{"glyphs":{" ":{"ha":361,"x_min":0,"x_max":0,"o":""},"ء":{"ha":857,"x_min":111,"x_max":815,"o":"m 111 -5 q 285 58 202 32 q 216 134 241 91 q 191 225 191 176 q 233 371 191 294 q 341 495 275 448 q 478 542 408 542 q 592 504 551 542 q 633 396 633 465 q 615 329 633 357 l 562 350 q 567 392 567 371 q 479 411 525 411 q 360 371 425 411 q 253 269 296 332 q 332 164 281 202 q 468 107 383 127 q 650 139 553 125 q 794 157 746 153 q 815 104 815 136 q 792 49 815 70 q 730 25 770 28 q 476 -2 570 13 q 134 -74 382 -16 l 111 -5 z "},"ا":{"ha":389,"x_min":125,"x_max":292,"o":"m 248 851 q 257 530 257 576 q 245 0 257 273 l 171 -14 q 156 476 168 213 q 126 937 144 740 l 125 960 q 151 1041 125 1010 q 233 1083 177 1072 q 262 981 249 1021 l 292 889 l 248 851 z "},"ﺎ":{"ha":414,"x_min":125,"x_max":441,"o":"m 235 1083 q 252 392 245 884 l 257 153 q 428 111 332 111 q 441 97 441 111 l 441 0 q 428 -14 441 -14 q 268 25 332 -14 q 196 129 204 63 q 140 774 169 354 l 125 991 q 235 1083 173 1042 z "},"ح":{"ha":1039,"x_min":111,"x_max":1011,"o":"m 222 -54 q 266 -201 222 -138 q 399 -301 310 -264 q 593 -338 489 -338 q 800 -326 705 -338 q 993 -292 895 -314 l 1011 -347 q 785 -444 886 -416 q 589 -472 683 -472 q 276 -361 388 -472 q 164 -54 164 -250 q 269 251 164 111 q 543 457 374 391 l 478 479 q 314 517 370 517 q 173 477 237 517 l 135 453 q 118 480 125 463 q 111 517 111 497 q 166 616 111 579 q 309 653 221 653 q 428 639 363 653 q 583 596 494 625 q 868 539 758 539 l 894 539 l 975 542 l 929 416 q 833 410 886 410 q 529 326 680 397 q 300 156 378 255 q 222 -54 222 58 z "},"ﺣ":{"ha":1039,"x_min":-14,"x_max":983,"o":"m 0 -14 q -14 0 -14 -14 l -14 97 q 0 111 -14 111 q 378 153 241 111 l 452 177 q 557 214 520 202 q 633 232 595 225 q 541 287 581 256 q 466 343 501 317 q 394 388 430 370 q 315 406 359 406 q 259 400 283 406 q 214 386 234 395 q 136 342 193 376 q 120 369 127 351 q 113 406 113 386 q 168 505 113 468 q 310 542 222 542 q 414 519 361 542 q 538 446 467 497 q 676 355 618 387 q 799 308 733 324 q 983 293 865 292 l 921 172 l 821 182 q 715 173 747 180 q 641 149 683 166 q 522 92 599 132 q 369 25 437 47 q 221 -5 301 3 q 0 -14 142 -14 z "},"ﺤ":{"ha":1088,"x_min":-14,"x_max":1116,"o":"m 0 -14 q -14 0 -14 -14 l -14 97 q 0 111 -14 111 q 378 153 241 111 q 511 203 425 167 q 632 243 580 232 q 541 295 581 267 q 465 348 500 323 q 394 389 429 372 q 315 406 358 406 q 259 400 283 406 q 214 386 234 395 q 136 342 193 376 q 120 369 127 351 q 113 406 113 386 q 168 505 113 468 q 310 542 222 542 q 416 520 362 542 q 538 453 471 498 q 662 374 613 401 q 753 334 711 348 q 840 314 795 321 q 983 307 886 307 l 921 186 q 782 200 838 192 l 771 200 q 823 142 793 159 q 909 118 852 125 q 1101 111 966 111 q 1116 97 1116 111 l 1116 0 q 1101 -14 1116 -14 q 903 5 979 -13 q 780 62 827 24 q 697 180 733 101 q 624 146 665 168 q 400 36 475 64 q 242 -3 325 8 q 0 -14 159 -14 z "},"ﺢ":{"ha":1128,"x_min":111,"x_max":1157,"o":"m 1143 -14 q 926 -3 993 -14 q 819 33 859 7 q 749 105 778 58 q 696 233 720 153 q 446 131 556 197 q 279 -17 336 65 q 222 -192 222 -100 q 320 -397 222 -323 q 586 -472 417 -472 q 746 -462 669 -472 q 930 -427 823 -452 l 949 -482 q 743 -574 842 -541 q 582 -607 644 -607 q 361 -555 456 -607 q 215 -409 267 -504 q 164 -192 164 -314 q 216 14 164 -87 q 363 194 269 115 q 576 315 458 273 l 502 347 q 385 393 425 381 q 314 406 344 406 q 173 366 237 406 l 135 342 q 118 369 125 351 q 111 406 111 386 q 166 505 111 468 q 309 542 221 542 q 413 525 356 542 q 564 464 469 507 q 868 386 734 386 l 894 386 l 975 389 l 929 264 q 833 257 886 257 q 760 248 800 254 q 801 169 782 192 q 849 133 821 145 q 927 116 878 121 q 1143 111 977 111 q 1157 97 1157 111 l 1157 0 q 1143 -14 1157 -14 z "},"د":{"ha":676,"x_min":56,"x_max":607,"o":"m 256 -14 q 106 13 157 -14 q 56 90 56 39 q 63 137 56 114 q 85 176 71 161 q 178 127 125 143 q 307 111 230 111 q 529 144 421 111 q 427 359 502 220 l 397 413 q 363 484 374 454 q 353 545 353 513 q 375 612 353 585 q 439 653 398 640 q 492 524 463 586 q 547 406 522 461 q 590 302 572 350 q 607 216 607 254 q 550 50 607 164 q 256 -14 427 -14 z "},"ر":{"ha":608,"x_min":-56,"x_max":525,"o":"m 158 -347 q 57 -320 121 -347 q -56 -256 -7 -292 l -33 -201 q 54 -216 24 -213 q 121 -220 85 -220 q 331 -147 243 -220 q 464 66 418 -74 q 435 131 449 104 q 387 217 420 158 q 330 328 356 268 q 304 429 304 388 q 330 496 304 471 q 400 543 355 522 q 446 408 411 499 q 510 218 496 277 q 525 118 525 159 q 477 -117 525 -9 q 345 -286 429 -225 q 158 -347 260 -347 z "},"ﺮ":{"ha":637,"x_min":-56,"x_max":665,"o":"m 652 -14 q 518 26 574 -14 q 393 -244 492 -141 q 158 -347 294 -347 q 57 -320 121 -347 q -56 -256 -7 -292 l -33 -201 q 54 -216 24 -213 q 121 -220 85 -220 q 331 -147 243 -220 q 464 66 418 -74 q 435 131 449 104 q 387 217 420 158 q 330 328 356 268 q 304 429 304 388 q 330 496 304 471 q 400 543 355 522 q 430 451 410 501 q 468 347 449 400 q 504 242 488 294 q 524 143 519 189 q 652 111 581 111 q 665 97 665 111 l 665 0 q 652 -14 665 -14 z "},"س":{"ha":1655,"x_min":111,"x_max":1572,"o":"m 407 -472 q 189 -392 267 -472 q 111 -165 111 -311 q 117 -76 111 -115 q 143 46 123 -38 l 203 32 q 184 -85 184 -38 q 244 -272 184 -205 q 411 -338 304 -338 q 572 -311 489 -338 q 721 -237 655 -285 q 814 -134 787 -190 q 707 179 707 101 q 814 325 707 264 q 848 127 821 264 q 951 111 899 111 q 1096 127 1044 111 q 1115 174 1105 143 l 1135 241 q 1174 349 1158 317 q 1206 389 1190 381 q 1240 398 1221 397 q 1278 386 1262 398 q 1240 286 1257 341 q 1207 178 1223 231 q 1347 130 1280 144 q 1495 115 1414 115 q 1434 294 1475 187 q 1401 404 1401 378 q 1431 479 1401 441 q 1508 542 1461 516 q 1527 447 1516 494 q 1548 355 1537 400 q 1565 267 1558 309 q 1572 187 1572 224 q 1553 95 1572 157 q 1510 -14 1533 33 q 1329 0 1403 -14 q 1162 57 1255 14 l 1149 31 q 1078 -1 1137 11 q 933 -14 1019 -14 q 871 -8 898 -14 q 875 -72 875 -42 q 812 -262 875 -170 q 638 -413 749 -353 q 407 -472 527 -472 z "},"ﺳ":{"ha":1075,"x_min":-14,"x_max":991,"o":"m 370 -14 q 264 1 323 -14 q 170 36 205 15 q 0 -14 116 -14 q -14 0 -14 -14 l -14 97 q 0 111 -14 111 q 75 120 45 111 q 132 149 105 128 q 166 182 153 165 q 220 267 180 199 q 270 292 234 292 q 310 281 295 292 q 241 131 263 169 q 387 111 297 111 q 515 127 465 111 q 555 241 526 146 q 592 345 574 309 q 625 389 609 380 q 659 398 642 398 q 697 386 682 398 q 659 286 676 341 q 627 178 642 231 q 767 130 700 144 q 914 115 833 115 q 853 294 895 187 q 821 404 821 378 q 850 479 821 441 q 928 542 880 516 q 946 447 935 494 q 967 355 957 400 q 984 267 977 309 q 991 187 991 224 q 972 95 991 157 q 929 -14 953 33 q 748 0 823 -14 q 582 57 674 14 l 568 31 q 502 0 556 12 q 370 -14 448 -12 z "},"ﺴ":{"ha":1083,"x_min":-14,"x_max":1111,"o":"m 1097 -14 q 969 11 1034 -14 q 865 77 905 36 l 842 31 q 787 -1 831 12 q 697 -14 743 -14 q 624 -2 654 -14 q 566 28 593 9 q 500 -1 551 10 q 370 -14 450 -12 q 264 1 323 -14 q 170 36 205 15 q 0 -14 116 -14 q -14 0 -14 -14 l -14 97 q 0 111 -14 111 q 75 120 45 111 q 132 149 105 128 q 166 182 153 165 q 220 267 180 199 q 270 292 234 292 q 310 281 295 292 q 241 131 263 169 q 387 111 297 111 q 515 127 465 111 q 555 241 526 146 q 592 345 574 309 q 625 389 609 380 q 659 398 642 398 q 697 386 682 398 q 633 198 672 330 l 612 135 q 657 119 638 122 q 700 115 676 115 q 790 132 739 115 q 837 250 802 151 q 893 386 871 347 q 943 412 909 412 q 983 400 968 412 q 969 364 976 383 q 901 168 962 345 q 986 127 940 142 q 1097 111 1031 111 q 1111 97 1111 111 l 1111 0 q 1097 -14 1111 -14 z "},"ﺲ":{"ha":1661,"x_min":111,"x_max":1689,"o":"m 1675 -14 q 1547 11 1612 -14 q 1443 77 1482 36 l 1419 31 q 1365 0 1409 13 q 1275 -14 1322 -14 q 1202 -2 1232 -14 q 1143 28 1171 9 q 1078 -1 1128 10 q 947 -14 1027 -12 q 871 -5 912 -14 q 875 -72 875 -39 q 812 -262 875 -170 q 638 -413 749 -353 q 407 -472 527 -472 q 189 -392 267 -472 q 111 -165 111 -311 q 117 -76 111 -115 q 143 46 123 -38 l 203 32 q 184 -85 184 -38 q 244 -272 184 -205 q 411 -338 304 -338 q 572 -311 489 -338 q 721 -237 655 -285 q 814 -134 787 -190 q 707 179 707 101 q 814 325 707 264 q 850 122 820 268 q 965 111 899 111 q 1093 127 1042 111 q 1133 241 1104 146 q 1170 345 1152 309 q 1203 389 1187 380 q 1237 398 1219 398 q 1275 386 1259 398 q 1211 198 1250 330 l 1190 135 q 1235 119 1216 122 q 1278 115 1254 115 q 1368 132 1317 115 q 1415 250 1379 151 q 1459 365 1444 333 q 1489 404 1475 396 q 1521 412 1503 412 q 1561 400 1546 412 q 1547 364 1554 383 q 1479 168 1539 345 q 1564 127 1518 142 q 1675 111 1609 111 q 1689 97 1689 111 l 1689 0 q 1675 -14 1689 -14 z "},"ص":{"ha":1790,"x_min":111,"x_max":1707,"o":"m 407 -472 q 189 -392 267 -472 q 111 -165 111 -311 q 117 -76 111 -115 q 143 46 123 -38 l 203 32 q 184 -85 184 -38 q 244 -272 184 -205 q 411 -338 304 -338 q 572 -311 489 -338 q 721 -237 655 -285 q 814 -134 787 -190 q 707 179 707 101 q 814 325 707 264 q 839 172 825 239 q 885 154 847 168 q 1172 463 1036 357 q 1418 570 1308 570 q 1539 528 1468 570 q 1659 430 1611 486 q 1707 332 1707 374 q 1643 155 1707 231 q 1451 32 1579 78 q 1181 -14 1322 -14 q 1023 -2 1114 -14 q 867 28 932 9 q 875 -72 875 -33 q 812 -262 875 -170 q 638 -413 749 -353 q 407 -472 527 -472 m 1378 433 q 1191 356 1300 433 q 960 135 1082 279 q 1197 111 1074 111 q 1418 147 1311 111 q 1633 250 1525 182 q 1516 384 1587 334 q 1378 433 1445 433 z "},"ﺻ":{"ha":1284,"x_min":-14,"x_max":1174,"o":"m 281 315 q 319 300 304 315 l 271 187 q 351 154 307 170 q 885 570 663 570 q 1008 527 936 570 q 1127 428 1080 484 q 1174 332 1174 372 q 1111 155 1174 232 q 918 33 1047 79 q 647 -14 789 -14 q 401 13 524 -14 q 207 79 277 39 l 193 62 q 113 4 161 21 q 0 -14 66 -14 q -14 0 -14 -14 l -14 97 q 0 111 -14 111 q 92 125 57 111 q 153 168 127 140 q 229 286 178 196 q 281 315 247 315 m 844 433 q 658 357 767 433 q 428 135 549 281 q 664 111 536 111 q 1100 250 878 111 q 983 384 1054 334 q 844 433 912 433 z "},"ﺼ":{"ha":1271,"x_min":-14,"x_max":1299,"o":"m 1284 -14 q 1147 14 1215 -14 q 1035 89 1080 41 q 858 14 964 41 q 647 -14 751 -14 q 401 13 524 -14 q 207 79 277 39 l 193 62 q 113 4 161 21 q 0 -14 66 -14 q -14 0 -14 -14 l -14 97 q 0 111 -14 111 q 92 125 57 111 q 153 168 127 140 q 229 286 178 196 q 281 315 247 315 q 319 300 304 315 l 271 187 q 351 154 307 170 q 885 570 663 570 q 1008 527 936 570 q 1127 428 1080 484 q 1174 332 1174 372 q 1109 155 1174 230 q 1284 111 1185 111 q 1299 97 1299 111 l 1299 0 q 1284 -14 1299 -14 m 844 433 q 658 357 767 433 q 428 135 549 281 q 664 111 536 111 q 1100 250 878 111 q 983 384 1054 334 q 844 433 912 433 z "},"ﺺ":{"ha":1796,"x_min":111,"x_max":1824,"o":"m 407 -472 q 189 -392 267 -472 q 111 -165 111 -311 q 117 -76 111 -115 q 143 46 123 -38 l 203 32 q 184 -85 184 -38 q 244 -272 184 -205 q 411 -338 304 -338 q 572 -311 489 -338 q 721 -237 655 -285 q 814 -134 787 -190 q 707 179 707 101 q 814 325 707 264 q 839 172 825 239 q 885 154 847 168 q 1172 463 1036 357 q 1418 570 1308 570 q 1539 528 1468 570 q 1659 430 1611 486 q 1707 332 1707 374 q 1642 151 1707 228 q 1810 111 1712 111 q 1824 97 1824 111 l 1824 0 q 1810 -14 1824 -14 q 1675 13 1742 -14 q 1563 85 1609 39 q 1390 13 1493 40 q 1181 -14 1286 -14 q 1023 -2 1114 -14 q 867 28 932 9 q 875 -72 875 -33 q 812 -262 875 -170 q 638 -413 749 -353 q 407 -472 527 -472 m 1378 433 q 1191 356 1300 433 q 960 135 1082 279 q 1197 111 1074 111 q 1418 147 1311 111 q 1633 250 1525 182 q 1516 384 1587 334 q 1378 433 1445 433 z "},"ط":{"ha":1257,"x_min":69,"x_max":1174,"o":"m 647 -14 q 458 -8 579 -14 q 290 12 336 -2 q 187 57 255 22 q 69 127 119 92 l 86 184 q 335 134 271 142 q 428 252 376 189 l 380 532 q 337 802 351 692 q 323 953 323 912 q 348 1040 323 1008 q 431 1083 374 1072 q 460 981 446 1021 l 489 889 l 446 851 q 479 530 454 724 q 494 326 490 415 q 705 507 606 444 q 885 570 804 570 q 1008 527 936 570 q 1127 428 1080 484 q 1174 332 1174 372 q 1111 155 1174 232 q 918 33 1047 79 q 647 -14 789 -14 m 844 433 q 652 353 764 433 q 416 122 540 272 q 664 111 524 111 q 1100 250 878 111 q 983 384 1054 334 q 844 433 912 433 z "},"ﻃ":{"ha":1079,"x_min":-14,"x_max":996,"o":"m 996 351 q 888 153 996 235 q 561 29 780 72 q 0 -14 341 -14 q -14 0 -14 -14 l -14 97 q 0 111 -14 111 l 62 111 l 140 113 q 245 250 199 195 l 197 532 q 154 802 168 692 q 140 953 140 912 q 165 1040 140 1008 q 248 1083 191 1072 q 290 939 267 1005 l 306 889 l 262 851 q 289 590 269 763 q 305 430 302 473 q 311 326 309 388 q 529 521 427 453 q 707 589 631 589 q 827 547 757 589 q 947 450 898 506 q 996 351 996 393 m 667 453 q 475 362 591 453 q 231 114 359 271 q 469 131 382 119 q 618 154 573 143 q 705 180 664 165 q 797 218 747 195 q 921 279 846 241 q 806 408 872 363 q 667 453 739 453 z "},"ﻄ":{"ha":1028,"x_min":-14,"x_max":1055,"o":"m 1042 -14 q 898 16 968 -14 q 786 94 828 45 q 0 -14 537 -14 q -14 0 -14 -14 l -14 97 q 0 111 -14 111 l 62 111 l 140 113 q 245 250 199 195 l 197 532 q 154 802 168 692 q 140 953 140 912 q 165 1040 140 1008 q 248 1083 191 1072 q 290 939 267 1005 l 306 889 l 262 851 q 289 590 269 763 q 305 430 302 473 q 311 326 309 388 q 529 521 427 453 q 707 589 631 589 q 827 547 757 589 q 947 450 898 506 q 996 351 996 393 q 880 147 996 231 q 1042 111 949 111 q 1055 97 1055 111 l 1055 0 q 1042 -14 1055 -14 m 667 453 q 475 362 591 453 q 231 114 359 271 q 469 131 382 119 q 618 154 573 143 q 705 180 664 165 q 797 218 747 195 q 921 279 846 241 q 806 408 872 363 q 667 453 739 453 z "},"ﻂ":{"ha":1267,"x_min":69,"x_max":1295,"o":"m 647 -14 q 458 -8 579 -14 q 290 12 336 -2 q 187 57 255 22 q 69 127 119 92 l 86 184 q 335 134 271 142 q 428 252 376 189 l 380 532 q 337 802 351 692 q 323 953 323 912 q 348 1040 323 1008 q 431 1083 374 1072 q 460 981 446 1021 l 489 889 l 446 851 q 479 530 454 724 q 494 326 490 415 q 705 507 606 444 q 885 570 804 570 q 1008 527 936 570 q 1127 428 1080 484 q 1174 332 1174 372 q 1109 154 1174 229 q 1280 111 1185 111 q 1295 97 1295 111 l 1295 0 q 1280 -14 1295 -14 q 1145 14 1213 -14 q 1032 87 1077 41 q 854 13 958 39 q 647 -14 751 -14 m 844 433 q 652 353 764 433 q 416 122 540 272 q 664 111 524 111 q 1100 250 878 111 q 983 384 1054 334 q 844 433 912 433 z "},"ع":{"ha":975,"x_min":111,"x_max":1031,"o":"m 608 -472 q 296 -361 408 -472 q 183 -54 183 -250 q 334 302 183 145 q 176 391 240 323 q 111 539 111 459 q 151 688 111 611 q 249 811 190 766 q 372 856 309 856 q 478 829 428 856 q 602 739 528 802 l 572 688 q 478 719 507 712 q 414 725 450 725 q 204 665 314 725 q 278 499 204 565 q 482 422 353 433 q 751 542 605 498 q 770 490 770 519 q 757 445 770 465 q 723 411 744 426 q 644 372 701 396 q 424 254 516 321 q 286 108 331 186 q 241 -54 241 30 q 286 -202 241 -139 q 419 -301 330 -265 q 612 -338 509 -338 q 1013 -292 807 -338 l 1031 -347 q 804 -444 906 -416 q 608 -472 703 -472 z "},"ﻋ":{"ha":825,"x_min":-14,"x_max":783,"o":"m 0 -14 q -14 0 -14 -14 l -14 97 q 0 111 -14 111 q 203 115 113 111 q 132 189 159 146 q 106 281 106 231 q 145 430 106 353 q 244 552 184 507 q 367 597 303 597 q 473 571 422 597 q 596 481 523 544 l 567 429 q 473 460 502 454 q 408 467 444 467 q 199 407 307 467 q 232 280 199 337 q 329 188 266 222 q 482 146 393 153 q 761 235 597 168 q 783 176 783 214 l 782 159 q 714 90 772 105 q 415 23 513 41 q 217 -4 318 6 q 0 -14 116 -14 z "},"ﻌ":{"ha":676,"x_min":-14,"x_max":704,"o":"m 688 -14 q 502 7 582 -14 q 358 75 422 27 q 184 6 269 26 q 1 -14 100 -14 q -14 1 -14 -14 l -14 96 q 1 111 -14 111 q 282 150 182 111 q 238 207 258 178 q 198 263 218 235 q 155 317 178 291 q 104 367 132 344 l 79 350 q 49 423 49 383 q 104 517 49 479 q 230 576 160 555 q 368 597 300 597 q 544 539 473 597 q 614 393 614 481 q 576 261 614 326 q 467 140 539 195 q 688 111 536 111 q 704 96 704 111 l 704 1 q 688 -14 704 -14 m 374 463 q 182 414 273 463 q 289 305 235 370 q 378 201 355 224 q 465 278 433 237 q 497 358 497 319 q 463 433 497 404 q 374 463 429 463 z "},"ﻊ":{"ha":739,"x_min":111,"x_max":918,"o":"m 750 -14 q 556 9 637 -14 q 414 81 474 31 q 236 -201 236 -39 q 332 -397 236 -321 q 583 -472 429 -472 q 731 -464 669 -472 q 900 -431 793 -455 l 918 -486 q 762 -566 808 -547 q 670 -596 715 -585 q 579 -607 625 -607 q 375 -555 467 -607 q 230 -410 283 -503 q 178 -204 178 -317 q 224 -17 178 -106 q 354 138 271 71 q 307 197 328 167 q 264 257 286 227 q 219 315 243 287 q 167 367 196 342 l 142 350 q 111 423 111 383 q 170 519 111 481 q 295 577 228 557 q 431 597 361 597 q 606 539 536 597 q 676 393 676 481 q 518 144 676 252 q 750 111 591 111 q 766 96 766 111 l 766 1 q 750 -14 766 -14 m 436 463 q 337 451 382 463 q 244 414 292 439 q 304 358 279 386 q 353 304 330 331 q 396 250 375 277 q 443 199 417 224 q 559 358 559 284 q 525 433 559 404 q 436 463 491 463 z "},"ﻛ":{"ha":677,"x_min":-14,"x_max":649,"o":"m 0 -14 q -14 0 -14 -14 l -14 97 q 0 111 -14 111 q 267 133 149 111 q 482 207 384 155 q 139 528 421 393 q 100 522 124 522 q 29 552 58 522 q 0 628 0 582 q 17 719 0 659 q 43 785 33 779 q 348 937 234 884 q 624 1055 461 989 q 643 1027 637 1044 q 649 994 649 1009 l 648 979 q 579 897 640 922 q 60 673 291 779 q 299 572 184 643 q 480 415 413 501 q 547 254 547 329 q 411 55 547 123 q 0 -14 275 -14 z "},"ﻜ":{"ha":750,"x_min":-14,"x_max":778,"o":"m 257 171 q 167 371 234 282 q 48 538 94 457 q 1 664 1 620 q 17 734 1 707 q 72 783 33 762 q 268 883 168 837 q 677 1055 368 929 q 697 1027 690 1044 q 703 994 703 1009 l 702 979 q 633 897 694 922 l 476 833 q 60 659 202 722 q 276 411 189 501 q 454 244 363 320 q 617 140 545 169 q 764 111 690 111 q 778 97 778 111 l 778 0 q 764 -14 778 -14 q 598 12 671 -14 q 450 98 525 38 q 319 210 374 158 q 281 77 319 141 q 140 9 206 33 q 0 -14 74 -14 q -14 0 -14 -14 l -14 97 q 0 111 -14 111 q 129 127 59 111 q 257 171 199 143 z "},"ك":{"ha":911,"x_min":28,"x_max":814,"o":"m 370 -14 q 142 -3 256 -14 q 28 18 28 7 q 37 90 28 48 q 54 144 45 131 q 220 120 122 129 q 400 111 318 111 q 753 143 571 111 q 720 325 737 221 q 669 622 703 429 q 627 953 635 814 q 652 1039 627 1007 q 734 1083 677 1071 q 742 1054 739 1067 q 793 889 746 1040 l 750 851 q 777 590 756 763 q 814 163 814 262 q 797 83 814 118 q 755 14 781 47 q 370 -14 578 -14 m 441 541 l 443 549 q 435 566 443 557 q 416 575 428 575 q 361 554 389 575 q 321 497 334 532 q 421 456 351 456 q 519 469 460 456 l 515 390 q 380 349 433 370 q 261 292 328 328 l 257 371 l 297 394 l 338 416 q 262 498 262 431 q 312 610 262 559 q 414 661 361 661 q 476 639 457 661 q 494 585 494 617 q 481 529 494 556 l 441 541 z "},"ﻚ":{"ha":1203,"x_min":111,"x_max":1231,"o":"m 1023 1083 q 1041 392 1034 884 l 1046 153 q 1217 111 1121 111 q 1231 97 1231 111 l 1231 0 q 1217 -14 1231 -14 q 1086 9 1142 -14 q 1006 71 1030 32 q 761 7 883 27 q 503 -14 639 -14 q 272 13 353 -14 q 151 92 190 39 q 111 225 111 145 q 134 349 111 285 l 191 349 q 186 288 186 325 q 219 181 186 218 q 326 127 253 144 q 538 111 399 111 q 981 163 768 111 q 929 783 957 361 l 914 991 q 1023 1083 964 1043 m 637 541 l 639 549 q 631 566 639 557 q 612 575 624 575 q 557 553 585 575 q 517 497 529 532 q 617 456 547 456 q 715 469 656 456 l 711 390 q 576 349 629 370 q 457 292 524 328 l 453 371 l 493 394 l 533 416 q 458 498 458 431 q 508 610 458 559 q 610 661 557 661 q 672 639 653 661 q 690 585 690 617 q 676 529 690 557 l 637 541 z "},"ل":{"ha":972,"x_min":111,"x_max":875,"o":"m 814 -134 q 737 347 783 73 q 682 706 709 513 q 655 953 655 900 q 680 1039 655 1007 q 762 1083 705 1071 q 770 1054 766 1067 q 821 889 774 1040 l 782 856 l 803 675 l 839 346 q 875 -72 875 58 q 812 -262 875 -170 q 638 -413 749 -353 q 407 -472 527 -472 q 189 -392 267 -472 q 111 -165 111 -311 q 117 -76 111 -115 q 143 46 123 -38 l 203 32 q 184 -85 184 -38 q 244 -272 184 -205 q 411 -338 304 -338 q 572 -311 489 -338 q 721 -237 655 -285 q 814 -134 787 -190 z "},"ﻟ":{"ha":347,"x_min":-16,"x_max":250,"o":"m -1 -14 q -16 0 -16 -14 l -16 97 q -1 111 -16 111 q 179 154 100 111 q 97 991 145 596 q 207 1083 145 1042 l 220 841 q 243 429 237 548 q 250 207 249 311 q 193 43 250 150 q -1 -14 162 -14 z "},"ﻠ":{"ha":400,"x_min":-14,"x_max":428,"o":"m 0 -14 q -14 0 -14 -14 l -14 97 q 0 111 -14 111 q 178 153 92 111 q 126 780 152 375 l 111 991 q 221 1083 159 1042 q 238 392 231 870 l 243 153 q 414 111 318 111 q 428 97 428 111 l 428 0 q 414 -14 428 -14 q 227 45 288 -14 q 119 -1 165 11 q 0 -14 72 -14 z "},"ﻞ":{"ha":966,"x_min":111,"x_max":994,"o":"m 981 -14 q 872 11 922 -14 l 875 -72 q 812 -262 875 -170 q 638 -413 749 -353 q 407 -472 527 -472 q 189 -392 267 -472 q 111 -165 111 -311 q 117 -76 111 -115 q 143 46 123 -38 l 203 32 q 184 -85 184 -38 q 244 -272 184 -205 q 411 -338 304 -338 q 572 -311 489 -338 q 721 -237 655 -285 q 814 -134 787 -190 q 737 347 783 73 q 682 706 709 513 q 655 953 655 900 q 680 1039 655 1007 q 762 1083 705 1071 q 770 1054 766 1067 q 821 889 774 1040 l 782 856 q 861 139 790 794 q 981 111 912 111 q 994 97 994 111 l 994 0 q 981 -14 994 -14 z "},"م":{"ha":799,"x_min":111,"x_max":736,"o":"m 252 -472 q 142 -564 197 -527 q 127 -234 142 -431 q 111 -5 111 -38 q 127 65 111 26 q 163 146 143 104 q 564 201 349 201 l 585 201 q 541 266 564 228 q 490 338 517 303 q 434 397 463 372 q 374 421 405 421 q 299 393 335 421 q 222 300 264 364 l 170 326 q 274 497 214 437 q 404 557 335 557 q 475 532 440 557 q 553 450 509 507 q 659 318 623 357 q 736 248 695 278 l 673 81 q 174 18 357 81 q 212 -203 180 -36 q 252 -472 241 -365 z "},"ﻣ":{"ha":745,"x_min":-14,"x_max":668,"o":"m 585 -14 q 377 13 488 -14 q 191 83 265 40 q 105 8 151 30 q 0 -14 60 -14 q -14 0 -14 -14 l -14 97 q 0 111 -14 111 q 103 140 62 111 q 179 232 145 169 l 211 297 q 331 485 271 427 q 467 542 391 542 q 559 487 513 542 q 637 340 606 432 q 668 157 668 248 q 585 -14 668 53 m 441 397 q 355 355 395 397 q 256 193 314 313 q 549 111 373 128 q 530 242 546 176 q 489 353 513 309 q 441 397 464 397 z "},"ﻤ":{"ha":675,"x_min":-14,"x_max":703,"o":"m 0 -14 q -14 0 -14 -14 l -14 97 q 0 111 -14 111 q 107 127 56 111 q 94 178 94 151 q 144 337 94 247 q 264 484 193 427 q 400 542 335 542 q 503 406 450 542 l 533 327 q 591 193 570 232 q 635 133 612 155 q 685 111 659 111 q 703 94 703 111 l 703 4 q 685 -14 703 -14 q 536 58 601 -14 l 515 -14 q 360 0 437 -14 q 231 35 283 14 q 101 -4 151 6 q 0 -14 51 -14 m 180 211 q 324 135 239 162 q 504 100 409 107 q 438 243 465 158 q 403 416 411 328 q 271 325 338 387 q 180 211 204 263 z "},"ﻢ":{"ha":863,"x_min":111,"x_max":895,"o":"m 286 178 q 317 290 286 231 q 244 241 279 267 q 180 193 210 215 q 220 -119 191 64 q 271 -472 254 -332 q 161 -564 221 -524 q 131 -159 155 -393 q 111 138 111 33 q 168 301 111 183 q 243 364 172 311 q 382 457 315 416 q 503 519 449 497 q 591 542 557 542 q 631 521 612 542 q 669 463 650 500 q 725 327 688 425 q 807 155 772 199 q 876 111 841 111 q 895 94 895 111 l 895 4 q 876 -14 895 -14 q 728 58 792 -14 l 707 -14 q 495 13 597 -14 q 340 82 393 39 q 286 178 286 125 m 372 211 q 516 135 431 162 q 696 100 601 107 q 630 243 657 158 q 595 416 603 328 q 463 325 530 387 q 372 211 396 263 z "},"ه":{"ha":667,"x_min":111,"x_max":583,"o":"m 111 192 q 271 503 111 350 l 264 509 q 231 576 231 530 q 244 624 231 602 q 275 653 256 646 q 421 565 350 629 q 538 419 493 500 q 583 273 583 338 q 546 140 583 225 q 472 32 508 56 q 311 -14 405 -14 q 164 42 217 -14 q 111 192 111 98 m 503 189 q 318 468 469 348 q 222 350 258 412 q 186 240 186 289 q 223 149 186 181 q 329 117 260 117 q 418 137 368 117 q 503 189 468 158 z "},"ﻫ":{"ha":829,"x_min":-14,"x_max":746,"o":"m 0 -14 q -14 0 -14 -14 l -14 100 q 0 111 -14 111 q 187 132 106 111 q 86 325 86 219 q 105 427 86 372 q 157 524 124 481 q 231 587 191 567 l 268 694 q 517 574 407 654 q 686 390 627 494 q 746 176 746 286 q 663 -43 746 100 q 300 58 452 -18 q 161 3 234 20 q 0 -14 89 -14 m 144 326 q 310 191 217 248 q 392 364 392 254 q 362 451 392 410 q 296 492 332 492 q 239 470 270 492 q 183 412 208 449 q 144 326 158 375 m 488 359 q 404 143 488 235 q 659 77 515 94 q 602 295 659 182 q 453 488 545 409 q 488 359 488 427 z "},"ﻬ":{"ha":636,"x_min":0,"x_max":664,"o":"m 530 -24 q 600 -78 575 -47 q 624 -140 624 -109 q 602 -224 624 -165 q 568 -296 579 -283 q 511 -332 551 -317 q 431 -347 470 -347 q 223 -272 304 -347 q 122 -57 142 -196 l 60 -83 l 43 -12 l 26 -14 l 14 -14 q 0 0 0 -14 l 0 97 q 14 111 0 111 q 121 115 64 111 q 427 677 151 416 l 485 661 q 514 469 490 587 q 534 313 534 363 q 401 98 534 184 q 646 111 505 111 q 664 94 664 111 l 664 4 q 646 -14 664 -14 q 530 -24 577 -14 m 390 514 q 292 359 323 420 q 241 234 260 298 q 220 109 222 171 q 440 205 341 124 l 426 288 q 390 514 396 442 m 293 -14 q 229 -24 270 -14 q 307 -177 251 -123 q 444 -232 363 -232 q 505 -220 474 -232 q 553 -189 536 -208 q 499 -103 540 -144 q 404 -38 459 -62 q 293 -14 349 -14 z "},"ﻪ":{"ha":739,"x_min":111,"x_max":766,"o":"m 456 82 q 325 100 372 89 q 223 137 278 111 q 140 188 168 163 q 111 233 111 213 q 133 306 111 254 q 170 385 154 357 q 273 486 193 429 q 450 585 353 544 l 441 653 q 504 704 474 684 q 566 745 533 724 q 580 257 572 466 l 583 153 q 753 111 657 111 q 766 97 766 111 l 766 0 q 753 -14 766 -14 q 593 23 654 -14 q 521 129 532 60 l 511 187 l 456 82 m 507 215 l 465 479 q 191 309 271 410 q 270 257 233 276 q 368 228 307 239 q 507 215 428 217 z "},"و":{"ha":765,"x_min":56,"x_max":682,"o":"m 315 -347 q 182 -314 261 -347 q 56 -243 102 -281 l 79 -189 q 278 -220 169 -220 q 487 -148 399 -220 q 621 66 574 -75 l 619 73 l 619 79 q 400 -14 523 -14 q 251 44 307 -14 q 196 197 196 101 q 229 361 196 281 q 316 492 262 441 q 427 542 371 542 q 553 480 494 542 q 647 317 612 419 q 682 118 682 215 q 630 -110 682 1 q 495 -284 578 -222 q 315 -347 412 -347 m 439 119 q 522 127 486 119 q 604 157 557 136 q 518 334 576 265 q 401 403 461 403 q 335 378 368 403 q 280 314 302 354 q 258 243 258 275 q 306 151 258 183 q 439 119 353 119 z "},"ﻮ":{"ha":765,"x_min":56,"x_max":793,"o":"m 315 -347 q 182 -314 261 -347 q 56 -243 102 -281 l 79 -189 q 278 -220 169 -220 q 589 -11 489 -220 q 340 19 414 -3 q 231 89 266 41 q 196 211 196 136 q 229 375 196 294 q 316 505 262 455 q 427 555 371 555 q 551 496 493 555 q 646 332 609 437 q 682 118 682 226 l 682 111 l 779 111 q 793 97 793 111 l 793 0 q 779 -14 793 -14 l 724 -14 l 665 -12 q 588 -186 640 -109 q 465 -305 535 -263 q 315 -347 394 -347 m 615 113 q 568 267 602 196 q 491 377 535 338 q 401 416 447 416 q 335 392 368 416 q 280 328 302 367 q 258 257 258 290 q 298 174 258 205 q 436 125 338 143 q 615 113 480 116 z "},"ى":{"ha":1010,"x_min":111,"x_max":954,"o":"m 895 -92 q 808 -81 853 -84 q 622 -50 682 -71 q 531 17 562 -29 q 500 135 500 63 q 555 310 500 214 q 687 474 610 406 q 828 542 765 542 q 906 510 876 542 q 954 400 937 477 l 896 383 q 873 404 884 399 q 843 408 863 408 q 736 363 800 408 q 622 254 671 318 q 558 129 572 190 q 626 92 583 106 q 738 68 669 77 q 869 38 825 55 q 932 -8 912 22 q 953 -90 953 -37 q 864 -256 953 -164 q 647 -410 776 -349 q 407 -472 518 -472 q 189 -392 267 -472 q 111 -165 111 -311 q 117 -76 111 -115 q 143 46 123 -38 l 203 32 q 184 -85 184 -38 q 244 -272 184 -205 q 411 -338 304 -338 q 590 -303 488 -338 q 778 -211 691 -269 q 895 -92 865 -152 z "},"ﻰ":{"ha":1122,"x_min":111,"x_max":1150,"o":"m 1132 -14 q 1003 -5 1078 -14 q 879 16 928 3 l 1026 -64 q 1057 -103 1050 -79 q 1064 -160 1064 -128 q 972 -307 1064 -233 q 739 -426 880 -380 q 463 -472 597 -472 q 203 -392 294 -472 q 111 -165 111 -311 q 117 -76 111 -115 q 143 46 123 -38 l 203 32 q 184 -85 184 -38 q 259 -270 184 -203 q 467 -338 334 -338 q 805 -291 659 -338 q 1006 -161 951 -243 l 973 -143 q 715 28 715 -4 q 726 73 715 47 q 751 118 736 98 q 771 138 766 138 l 774 138 q 1132 111 918 111 q 1150 93 1150 111 l 1150 3 q 1132 -14 1150 -14 z "},"ﻻ":{"ha":846,"x_min":57,"x_max":762,"o":"m 224 -14 q 220 3 220 -14 q 229 73 220 35 q 244 111 238 111 l 278 111 q 417 224 380 191 q 484 291 454 258 q 541 358 515 323 q 196 647 381 538 l 136 643 q 74 717 92 684 q 57 785 57 751 q 67 832 57 809 q 113 873 78 856 q 363 670 221 798 q 587 437 505 541 q 619 578 619 507 q 577 918 619 646 q 565 1008 565 991 q 675 1111 565 1090 q 683 1082 679 1095 q 733 917 686 1068 l 689 879 q 701 611 701 659 q 637 367 701 486 q 762 125 762 159 q 743 58 762 98 q 711 14 724 17 q 224 -14 551 -14 m 697 143 q 595 296 659 214 q 407 114 522 197 q 697 143 583 123 z "},"ﻼ":{"ha":997,"x_min":56,"x_max":1025,"o":"m 736 644 q 677 292 707 397 q 424 7 601 28 q 240 -9 313 -5 q 92 -14 168 -12 l 86 43 q 347 118 262 85 q 485 192 432 150 q 187 628 362 462 l 127 628 q 81 686 98 659 q 60 732 64 712 q 56 768 56 752 q 118 859 56 832 q 312 665 216 796 q 464 399 409 534 q 525 228 492 327 q 562 272 536 238 q 663 535 627 361 q 708 991 699 709 q 818 1083 756 1042 q 836 392 828 884 l 840 153 q 1011 111 916 111 q 1025 97 1025 111 l 1025 0 q 1011 -14 1025 -14 q 851 25 915 -14 q 779 129 787 63 q 754 377 763 256 q 736 644 745 498 z "},"ـ":{"ha":163,"x_min":-14,"x_max":191,"o":"m 0 -14 q -14 0 -14 -14 l -14 97 q 0 111 -14 111 l 176 111 q 191 97 191 111 l 191 0 q 176 -14 191 -14 l 0 -14 z "},"ٮ":{"ha":1317,"x_min":167,"x_max":1234,"o":"m 566 -14 q 268 58 370 -14 q 167 265 167 129 q 189 444 167 372 l 248 444 q 244 411 246 437 q 241 364 241 385 q 279 215 241 269 q 397 136 317 161 q 600 111 476 111 q 895 141 751 111 q 1156 227 1040 172 q 1097 406 1136 299 q 1065 515 1065 490 q 1095 590 1065 553 q 1173 653 1125 627 q 1190 558 1179 606 q 1210 466 1200 511 q 1227 378 1220 420 q 1234 298 1234 336 q 1177 132 1234 246 q 908 23 1063 60 q 566 -14 753 -14 z "},"ٯ":{"ha":1057,"x_min":111,"x_max":974,"o":"m 890 -127 q 871 83 890 -12 q 759 8 813 30 q 648 -14 705 -14 q 500 43 556 -14 q 444 197 444 100 q 477 361 444 281 q 565 492 510 441 q 675 542 619 542 q 823 474 753 542 q 933 287 892 406 q 974 22 974 167 q 932 -169 974 -80 q 814 -325 890 -258 q 635 -432 738 -391 q 435 -472 532 -472 q 197 -392 282 -472 q 111 -165 111 -311 q 117 -76 111 -115 q 143 46 123 -38 l 203 32 q 184 -85 184 -38 q 250 -273 184 -208 q 439 -338 316 -338 q 617 -310 524 -338 q 782 -235 711 -283 q 890 -127 852 -188 m 688 119 q 852 157 774 119 q 799 287 831 232 q 727 372 766 342 q 650 403 687 403 q 584 378 617 403 q 529 315 551 354 q 507 243 507 275 q 554 151 507 183 q 688 119 602 119 z "},"٠":{"ha":514,"x_min":125,"x_max":389,"o":"m 125 329 q 173 416 151 373 q 224 500 195 459 q 343 422 297 458 q 389 370 389 387 q 298 215 389 347 q 125 329 208 282 z "},"١":{"ha":517,"x_min":125,"x_max":392,"o":"m 125 794 q 147 857 125 826 q 214 914 169 887 q 344 596 296 765 q 392 298 392 427 q 370 -14 392 146 l 307 1 q 290 286 303 184 q 244 497 277 388 q 139 747 211 606 q 125 794 125 772 z "},"٢":{"ha":675,"x_min":125,"x_max":633,"o":"m 125 795 q 148 858 125 827 q 214 914 170 889 q 298 730 261 828 q 406 700 341 700 q 518 755 477 700 q 568 913 559 811 l 633 900 q 407 562 633 562 q 350 575 381 562 q 392 298 392 411 q 388 170 392 232 q 370 -14 385 109 l 307 1 q 290 297 303 201 q 242 502 276 394 q 139 747 208 610 q 125 795 125 772 z "},"٣":{"ha":781,"x_min":125,"x_max":739,"o":"m 125 795 q 214 914 125 864 q 298 729 259 831 q 390 700 338 700 q 460 729 438 700 q 482 823 482 759 q 478 897 482 854 l 526 914 q 550 771 550 828 l 550 761 q 596 751 572 751 q 649 781 631 751 q 668 865 668 810 q 665 911 668 890 l 732 904 q 739 818 739 853 q 700 672 739 728 q 597 615 661 615 q 519 637 560 615 q 406 562 481 562 q 347 575 378 562 q 389 298 389 418 q 370 -14 389 138 l 307 1 q 289 291 303 187 q 239 507 275 395 q 139 747 203 620 q 125 795 125 773 z "},"٤":{"ha":686,"x_min":111,"x_max":624,"o":"m 189 149 q 223 279 189 195 q 301 427 256 363 q 163 504 215 463 q 111 578 111 545 q 132 681 111 620 q 179 782 152 743 q 267 866 207 821 q 422 960 328 911 q 428 921 428 942 q 414 858 427 888 q 379 810 400 827 l 330 770 q 191 660 227 693 q 274 601 227 621 q 389 566 322 580 l 433 469 q 317 316 370 397 q 264 200 264 234 q 322 142 264 168 q 461 117 380 117 q 607 134 548 117 l 624 104 q 599 73 612 94 q 569 33 587 53 q 526 -2 551 13 q 464 -17 501 -17 q 259 25 330 -17 q 189 149 189 66 z "},"٥":{"ha":624,"x_min":77,"x_max":547,"o":"m 77 319 q 117 546 77 427 q 220 747 158 665 q 338 828 283 828 q 446 780 399 828 q 520 638 493 731 q 547 444 547 546 q 512 234 547 299 q 414 126 477 169 q 283 83 351 83 q 125 142 174 83 q 77 319 77 201 m 301 221 q 370 234 339 221 q 426 269 401 246 q 465 324 450 292 q 479 371 479 355 q 429 585 479 498 q 302 672 379 672 q 233 624 270 672 q 169 496 197 576 q 142 355 142 416 q 301 221 142 221 z "},"٦":{"ha":728,"x_min":41,"x_max":624,"o":"m 528 -16 q 438 264 467 134 q 410 530 410 394 q 436 761 410 629 q 269 751 368 751 q 139 764 201 751 q 41 794 77 777 l 79 932 q 269 892 184 892 q 507 908 387 892 l 528 882 q 504 766 509 803 q 500 688 500 729 q 531 353 500 496 q 624 89 562 210 l 528 -16 z "},"٧":{"ha":713,"x_min":14,"x_max":699,"o":"m 334 -14 q 236 293 273 189 q 151 500 199 397 q 24 751 104 604 q 14 786 14 768 q 94 911 14 852 q 259 560 171 792 q 380 161 348 328 q 486 568 414 357 q 629 911 558 779 l 699 794 q 535 425 595 588 q 421 52 475 261 q 334 -14 374 14 z "},"٨":{"ha":713,"x_min":14,"x_max":699,"o":"m 379 911 q 513 508 458 647 q 689 146 568 370 q 699 111 699 130 q 677 46 699 80 q 618 -14 655 13 q 515 185 572 58 q 404 473 458 313 q 330 734 350 632 q 226 329 297 541 q 83 -14 155 118 l 14 103 q 181 481 122 320 q 292 846 239 643 q 379 911 339 884 z "},"٩":{"ha":708,"x_min":69,"x_max":604,"o":"m 509 -16 q 422 251 450 134 q 393 494 395 369 q 304 476 349 476 q 130 529 191 476 q 69 682 69 581 q 102 800 69 737 q 186 903 136 863 q 283 943 237 943 q 427 859 379 943 q 475 599 475 774 q 604 87 475 349 l 509 -16 m 351 614 q 386 618 367 614 q 243 800 363 800 q 172 774 204 800 q 140 722 140 748 q 170 667 140 692 q 250 628 199 642 q 351 614 300 614 z "},"۴":{"ha":761,"x_min":125,"x_max":718,"o":"m 125 797 q 214 916 125 865 q 315 686 275 804 q 410 657 357 662 q 370 739 370 688 q 392 826 370 781 q 452 900 414 871 q 533 928 490 928 q 675 822 600 928 l 637 783 q 536 821 582 821 q 495 812 515 821 q 446 789 475 804 q 582 672 446 680 q 707 724 650 694 q 718 670 718 695 q 691 604 718 630 q 606 558 664 577 q 475 539 549 539 q 353 558 412 539 q 390 300 390 414 q 386 149 390 216 q 370 -14 382 81 l 307 1 q 288 303 303 195 q 237 517 272 411 q 139 749 202 623 q 125 797 125 774 z "},"۵":{"ha":742,"x_min":77,"x_max":665,"o":"m 285 942 q 522 697 447 793 q 631 506 597 601 q 665 297 665 411 q 643 149 665 217 q 581 39 621 80 q 488 -1 541 -1 q 368 58 418 -1 q 260 -1 327 -1 q 124 72 172 -1 q 77 278 77 146 q 96 420 77 349 q 149 564 115 492 q 262 764 182 636 q 251 822 251 786 q 285 942 251 887 m 140 282 q 173 181 140 226 q 254 136 205 136 q 317 166 296 136 q 343 256 338 197 l 401 286 q 425 177 401 218 q 498 136 448 136 q 571 172 541 136 q 600 256 600 207 q 526 464 600 342 q 330 699 452 586 q 192 481 243 595 q 140 282 140 368 z "},"۶":{"ha":725,"x_min":97,"x_max":676,"o":"m 97 65 q 183 222 149 165 q 260 333 218 279 q 314 399 302 387 q 168 477 224 420 q 111 604 111 533 q 143 757 111 683 q 227 872 175 831 q 343 913 279 913 q 450 886 398 913 q 579 794 503 860 l 549 737 q 452 769 481 764 q 386 775 422 775 q 286 762 330 775 q 197 718 241 749 q 447 521 197 531 q 659 639 532 581 q 671 606 666 629 q 676 567 676 583 q 581 458 676 521 q 475 382 545 435 q 355 278 405 329 q 258 161 306 228 q 146 -14 210 94 l 97 65 z "},"ﮨ":{"ha":450,"x_min":-14,"x_max":375,"o":"m 283 -334 q 223 -304 245 -330 q 201 -244 201 -278 q 229 -125 201 -186 q 309 5 256 -64 l 358 -25 q 300 -171 300 -106 q 317 -212 300 -196 q 375 -240 335 -228 q 345 -287 362 -267 q 310 -320 328 -307 q 283 -334 292 -334 m 0 -14 q -14 0 -14 -14 l -14 97 q 0 111 -14 111 q 151 127 73 111 q 289 171 230 143 q 230 350 269 243 q 199 460 199 434 q 229 534 199 497 q 306 597 258 572 q 323 503 313 550 q 343 410 334 456 q 360 322 353 365 q 367 243 367 280 q 310 77 367 191 q 0 -14 159 -14 z "},"ﮩ":{"ha":646,"x_min":-14,"x_max":673,"o":"m 314 -371 q 154 -192 211 -293 q 92 11 96 -92 q 43 -7 71 0 q 0 -14 14 -14 q -14 0 -14 -14 l -14 97 q 0 111 -14 111 q 59 115 42 111 q 89 129 76 119 q 109 154 102 138 q 172 206 130 206 q 224 178 201 206 q 212 133 217 163 q 207 82 207 102 q 241 -74 207 5 q 340 -222 275 -152 q 370 -90 353 -139 q 414 -6 387 -40 q 478 56 441 27 q 559 98 515 84 q 656 111 602 111 q 673 94 673 111 l 673 4 q 656 -14 673 -14 q 533 -19 574 -14 q 465 -36 492 -24 q 435 -155 441 -90 q 429 -296 429 -220 l 314 -371 m 559 -371 q 500 -341 522 -367 q 478 -282 478 -315 q 503 -167 478 -222 q 578 -47 528 -112 l 628 -78 q 576 -208 576 -148 q 594 -249 576 -233 q 652 -278 612 -265 q 622 -325 639 -305 q 586 -358 604 -345 q 559 -371 567 -371 z "},"ھ":{"ha":1031,"x_min":28,"x_max":947,"o":"m 248 -14 q 28 68 178 -14 l 43 125 q 224 111 104 111 q 389 134 313 111 q 288 325 288 219 q 307 427 288 372 q 359 524 326 481 q 432 587 392 567 l 469 694 q 716 575 606 656 q 887 390 827 495 q 947 176 947 284 q 864 -43 947 100 q 501 58 653 -18 q 248 -14 381 -14 m 346 326 q 510 191 422 244 q 593 364 593 256 q 564 450 593 409 q 497 492 534 492 q 440 470 471 492 q 384 412 409 449 q 346 326 359 375 m 689 359 q 606 142 689 234 q 860 77 724 92 q 803 297 860 184 q 656 488 746 410 q 689 359 689 425 z "},"ے":{"ha":1263,"x_min":111,"x_max":1234,"o":"m 664 -14 q 414 -1 544 -14 q 198 32 285 11 q 111 72 111 52 q 130 171 111 101 q 164 257 149 241 q 298 349 218 311 q 393 383 321 359 q 485 417 462 407 q 531 450 508 427 q 568 500 554 473 l 619 472 q 563 364 596 402 q 476 310 529 326 q 308 251 359 275 q 186 179 257 227 q 392 126 276 142 q 685 111 509 111 q 955 132 810 111 q 1211 186 1099 152 q 1234 133 1234 159 q 1183 63 1234 92 q 970 10 1131 34 q 664 -14 808 -14 z "},"ﮯ":{"ha":865,"x_min":83,"x_max":983,"o":"m 161 -175 q 534 -222 323 -222 q 960 -184 754 -222 q 983 -241 983 -213 q 954 -297 983 -274 q 880 -326 924 -320 q 524 -347 743 -347 q 318 -331 418 -347 q 150 -291 217 -315 q 83 -249 83 -267 q 99 -174 83 -228 q 125 -113 115 -121 q 425 57 245 3 q 884 111 604 111 q 901 93 901 111 l 901 3 q 884 -14 901 -14 q 588 -30 725 -14 q 351 -82 452 -46 q 161 -175 250 -117 z "},"ک":{"ha":1179,"x_min":111,"x_max":1150,"o":"m 517 111 q 705 121 624 111 q 849 150 786 132 q 985 207 913 169 q 640 528 923 394 q 602 522 625 522 q 530 552 559 522 q 501 628 501 582 q 518 719 501 659 q 545 785 534 779 q 847 936 740 886 q 1125 1055 954 985 q 1144 1027 1138 1044 q 1150 994 1150 1009 l 1149 979 q 1080 897 1141 922 q 561 673 782 774 q 796 575 681 644 q 980 418 911 505 q 1050 254 1050 332 q 912 54 1050 121 q 503 -14 775 -14 q 205 45 300 -14 q 111 216 111 103 q 132 321 111 273 l 191 321 q 184 254 184 300 q 259 145 184 178 q 517 111 334 111 z "},"ﮏ":{"ha":1268,"x_min":111,"x_max":1296,"o":"m 478 -14 q 199 44 286 -14 q 111 222 111 102 q 140 340 111 274 l 193 321 q 184 254 184 277 q 255 145 184 180 q 489 111 326 111 q 653 129 572 111 q 775 171 734 146 q 685 371 752 282 q 566 538 612 457 q 519 664 519 620 q 535 734 519 707 q 590 783 551 762 q 786 883 686 837 q 1196 1055 886 929 q 1215 1027 1208 1044 q 1221 994 1221 1009 l 1220 979 q 1152 897 1212 922 l 994 833 q 578 659 720 722 q 794 411 707 501 q 972 244 882 320 q 1136 140 1063 169 q 1282 111 1208 111 q 1296 97 1296 111 l 1296 0 q 1282 -14 1296 -14 q 1116 12 1190 -14 q 968 98 1043 38 q 838 210 892 158 q 799 77 838 141 q 645 11 733 35 q 478 -14 557 -14 z "},"گ":{"ha":1179,"x_min":111,"x_max":1150,"o":"m 517 111 q 705 121 624 111 q 849 150 786 132 q 985 207 913 169 q 640 528 923 394 q 602 522 625 522 q 530 552 559 522 q 501 628 501 582 q 518 719 501 659 q 545 785 534 779 q 847 936 740 886 q 1125 1055 954 985 q 1144 1027 1138 1044 q 1150 994 1150 1009 l 1149 979 q 1080 897 1141 922 q 561 673 782 774 q 796 575 681 644 q 980 418 911 505 q 1050 254 1050 332 q 912 54 1050 121 q 503 -14 775 -14 q 205 45 300 -14 q 111 216 111 103 q 132 321 111 273 l 191 321 q 184 254 184 300 q 259 145 184 178 q 517 111 334 111 m 511 861 q 500 925 500 907 q 503 935 500 933 q 753 1057 541 954 q 1075 1210 966 1159 q 1098 1168 1098 1193 l 1097 1158 q 1057 1114 1090 1128 q 680 942 795 996 q 511 861 566 888 z "},"ﮔ":{"ha":677,"x_min":-14,"x_max":649,"o":"m 0 -14 q -14 0 -14 -14 l -14 97 q 0 111 -14 111 q 267 133 149 111 q 482 207 384 155 q 139 528 421 393 q 100 522 124 522 q 29 552 58 522 q 0 628 0 582 q 17 719 0 659 q 43 785 33 779 q 348 937 234 884 q 624 1055 461 989 q 643 1027 637 1044 q 649 994 649 1009 l 648 979 q 579 897 640 922 q 60 673 291 779 q 299 572 184 643 q 480 415 413 501 q 547 254 547 329 q 411 55 547 123 q 0 -14 275 -14 m 7 861 q -3 925 -3 907 q -1 935 -3 933 q 250 1057 37 954 q 571 1210 462 1159 q 594 1168 594 1193 l 593 1158 q 553 1114 587 1128 q 176 942 291 996 q 7 861 62 888 z "},"ﮕ":{"ha":750,"x_min":-14,"x_max":778,"o":"m 257 171 q 167 371 234 282 q 48 538 94 457 q 1 664 1 620 q 17 734 1 707 q 72 783 33 762 q 268 883 168 837 q 677 1055 368 929 q 697 1027 690 1044 q 703 994 703 1009 l 702 979 q 633 897 694 922 l 476 833 q 60 659 202 722 q 276 411 189 501 q 454 244 363 320 q 617 140 545 169 q 764 111 690 111 q 778 97 778 111 l 778 0 q 764 -14 778 -14 q 598 12 671 -14 q 450 98 525 38 q 319 210 374 158 q 281 77 319 141 q 140 9 206 33 q 0 -14 74 -14 q -14 0 -14 -14 l -14 97 q 0 111 -14 111 q 129 127 59 111 q 257 171 199 143 m 7 861 q -3 925 -3 907 q -1 935 -3 933 q 250 1057 37 954 q 571 1210 462 1159 q 594 1168 594 1193 l 593 1158 q 553 1114 587 1128 q 176 942 291 996 q 7 861 62 888 z "},"ﮓ":{"ha":1268,"x_min":111,"x_max":1296,"o":"m 478 -14 q 199 44 286 -14 q 111 222 111 102 q 140 340 111 274 l 193 321 q 184 254 184 277 q 255 145 184 180 q 489 111 326 111 q 653 129 572 111 q 775 171 734 146 q 685 371 752 282 q 566 538 612 457 q 519 664 519 620 q 535 734 519 707 q 590 783 551 762 q 786 883 686 837 q 1196 1055 886 929 q 1215 1027 1208 1044 q 1221 994 1221 1009 l 1220 979 q 1152 897 1212 922 l 994 833 q 578 659 720 722 q 794 411 707 501 q 972 244 882 320 q 1136 140 1063 169 q 1282 111 1208 111 q 1296 97 1296 111 l 1296 0 q 1282 -14 1296 -14 q 1116 12 1190 -14 q 968 98 1043 38 q 838 210 892 158 q 799 77 838 141 q 645 11 733 35 q 478 -14 557 -14 m 511 861 q 500 925 500 907 q 503 935 500 933 q 753 1057 541 954 q 1075 1210 966 1159 q 1098 1168 1098 1193 l 1097 1158 q 1057 1114 1090 1128 q 680 942 795 996 q 511 861 566 888 z "},"ں":{"ha":958,"x_min":111,"x_max":875,"o":"m 407 -472 q 189 -392 267 -472 q 111 -165 111 -311 q 117 -76 111 -115 q 143 46 123 -38 l 203 32 q 184 -85 184 -38 q 244 -272 184 -205 q 411 -338 304 -338 q 572 -311 489 -338 q 721 -237 655 -285 q 814 -134 787 -190 q 707 179 707 101 q 814 325 707 264 q 832 215 821 267 q 852 113 842 162 q 868 19 861 64 q 875 -72 875 -27 q 812 -262 875 -170 q 638 -413 749 -353 q 407 -472 527 -472 z "},"ﮟ":{"ha":957,"x_min":111,"x_max":985,"o":"m 971 -14 q 869 8 916 -14 q 875 -72 875 -44 q 812 -262 875 -170 q 638 -413 749 -353 q 407 -472 527 -472 q 189 -392 267 -472 q 111 -165 111 -311 q 117 -76 111 -115 q 143 46 123 -38 l 203 32 q 184 -85 184 -38 q 244 -272 184 -205 q 411 -338 304 -338 q 572 -311 489 -338 q 721 -237 655 -285 q 814 -134 787 -190 q 707 179 707 101 q 814 325 707 264 q 846 142 819 281 q 909 117 880 123 q 971 111 939 111 q 985 97 985 111 l 985 0 q 971 -14 985 -14 z "},"٪":{"ha":656,"x_min":56,"x_max":600,"o":"m 144 -14 q 86 66 106 18 q 517 911 314 542 q 550 871 537 897 q 562 822 562 846 q 557 799 562 808 l 496 683 q 144 -14 250 211 m 56 701 q 99 780 79 741 q 144 857 119 819 q 260 780 226 810 q 294 737 294 750 q 212 597 294 715 q 56 701 134 659 m 361 167 q 405 245 385 207 q 450 322 425 284 q 566 245 531 275 q 600 203 600 216 q 518 62 600 181 q 361 167 438 124 z "},"؟":{"ha":694,"x_min":60,"x_max":624,"o":"m 329 436 q 124 571 189 494 q 60 754 60 648 q 143 937 60 869 q 364 1006 227 1006 q 555 965 487 1006 q 624 850 624 924 q 592 784 624 808 q 509 760 561 760 q 469 891 509 845 q 353 937 429 937 q 240 898 279 937 q 201 778 201 858 q 255 605 201 677 q 414 490 309 532 l 414 279 l 329 279 l 329 436 m 461 85 q 374 -9 461 -9 q 309 15 331 -9 q 286 85 286 39 q 308 155 286 130 q 374 179 330 179 q 461 85 461 179 z "},"،":{"ha":347,"x_min":69,"x_max":297,"o":"m 69 107 q 127 276 69 207 q 297 379 185 346 l 297 321 q 165 196 165 279 q 175 170 165 181 q 216 143 185 159 q 267 68 267 115 q 241 7 267 28 q 176 -14 215 -14 q 99 20 129 -14 q 69 107 69 54 z "},"؛":{"ha":347,"x_min":68,"x_max":296,"o":"m 87 81 q 175 175 87 175 q 240 151 218 175 q 262 81 262 126 q 240 11 262 35 q 175 -14 218 -14 q 87 81 87 -14 m 68 500 q 125 669 68 599 q 296 772 183 739 l 296 714 q 164 589 164 672 q 176 561 164 572 q 215 536 187 549 q 265 461 265 510 q 239 400 265 421 q 175 379 214 379 q 98 413 128 379 q 68 500 68 446 z "},"٫":{"ha":283,"x_min":28,"x_max":256,"o":"m 256 39 q 197 -131 256 -62 q 28 -233 139 -200 l 28 -175 q 160 -50 160 -133 q 150 -25 160 -35 q 109 3 140 -14 q 58 78 58 29 q 84 139 58 118 q 149 160 110 160 q 225 126 195 160 q 256 39 256 92 z "},"٬":{"ha":262,"x_min":28,"x_max":256,"o":"m 28 -111 q 86 59 28 -10 q 256 161 145 129 l 256 103 q 123 -22 123 61 q 133 -48 123 -37 q 174 -75 143 -58 q 225 -150 225 -102 q 200 -210 225 -188 q 135 -232 175 -232 q 58 -198 87 -232 q 28 -111 28 -165 z "},"٭":{"ha":654,"x_min":31,"x_max":624,"o":"m 330 745 l 393 525 l 621 533 l 624 526 l 433 399 l 510 184 l 504 180 l 325 321 l 147 180 l 142 184 l 218 399 l 31 525 l 33 533 l 260 525 l 322 745 l 330 745 z "},"ً":{"ha":0,"x_min":-60,"x_max":336,"o":"m 334 884 l 336 862 q 289 789 336 811 q -39 669 172 734 l -29 757 q 334 884 144 808 m 310 1025 l 312 1003 q 302 960 312 983 q 265 926 292 938 q -60 817 139 873 l -53 899 q 310 1025 136 956 z "},"ٍ":{"ha":0,"x_min":-60,"x_max":336,"o":"m 334 -244 l 336 -266 q 289 -339 336 -317 q -39 -458 172 -394 l -29 -371 q 334 -244 144 -319 m 310 -103 l 312 -125 q 302 -168 312 -145 q 265 -201 292 -190 q -60 -311 139 -255 l -53 -229 q 310 -103 136 -172 z "},"َ":{"ha":0,"x_min":-39,"x_max":336,"o":"m 334 896 l 336 874 q 289 802 336 823 q -39 682 172 747 l -29 770 q 334 896 184 836 z "},"ُ":{"ha":0,"x_min":-71,"x_max":292,"o":"m -71 694 q 25 721 -27 701 q 122 771 77 741 q 68 810 91 785 q 46 869 46 835 q 64 929 46 900 q 111 977 82 959 q 165 996 139 996 q 216 961 197 996 q 236 864 236 926 q 227 811 236 838 q 292 807 260 807 q 269 763 288 775 q 208 751 249 751 l 196 751 l 183 753 q 83 673 137 705 q -11 642 29 642 q -55 655 -39 642 q -71 694 -71 669 m 96 899 q 175 823 96 848 q 184 860 184 840 q 172 911 184 891 q 140 930 160 930 q 110 920 125 930 q 96 899 96 909 z "},"ٌ":{"ha":0,"x_min":-125,"x_max":319,"o":"m 24 646 q -4 663 20 646 q -28 685 -28 681 l -26 692 q -20 739 -20 722 q -25 762 -20 755 q -39 770 -31 770 q -62 763 -48 770 q -107 742 -76 757 l -125 762 q -64 824 -92 805 q -18 843 -37 843 q 22 822 9 843 q 35 770 35 801 q 26 715 35 743 q 151 771 104 734 q 96 811 117 786 q 74 869 74 837 q 92 929 74 900 q 138 977 110 959 q 193 996 167 996 q 244 961 224 996 q 264 864 264 926 q 256 811 264 832 q 319 807 287 807 q 296 763 316 775 q 236 751 277 751 l 208 754 q 107 677 163 709 q 24 646 52 646 m 123 899 q 203 823 123 848 q 212 860 212 840 q 200 911 212 891 q 168 930 188 930 q 138 920 153 930 q 123 899 123 909 z "},"ِ":{"ha":0,"x_min":-39,"x_max":336,"o":"m 334 -143 l 336 -165 q 289 -237 336 -216 q -39 -357 172 -292 l -29 -269 q 334 -143 184 -203 z "},"ّ":{"ha":0,"x_min":-47,"x_max":292,"o":"m 258 950 q 282 886 273 921 q 292 827 292 852 q 263 747 292 783 q 192 711 235 711 q 158 719 176 711 q 127 742 139 726 q 88 689 113 707 q 36 671 63 671 q -24 694 -1 671 q -47 761 -47 717 q -42 800 -47 776 q -25 846 -37 824 l 3 840 q -4 791 -4 811 q 40 741 -4 741 q 75 755 61 741 q 89 796 89 770 l 86 860 l 129 888 q 144 820 136 839 q 167 791 153 801 q 205 781 182 781 q 228 788 217 781 q 241 803 238 795 q 212 878 236 827 q 209 894 209 886 q 223 928 209 911 q 258 950 238 945 z "},"ْ":{"ha":0,"x_min":18,"x_max":229,"o":"m 119 693 q 46 727 73 693 q 18 810 18 762 q 33 879 18 849 q 73 926 48 909 q 122 943 98 943 q 173 926 148 943 q 214 879 199 909 q 229 808 229 848 q 195 727 229 761 q 119 693 161 693 m 187 808 q 177 833 187 817 q 150 860 166 850 q 111 871 134 871 q 76 856 92 871 q 60 821 60 842 q 76 781 60 796 q 123 766 93 766 q 167 781 147 766 q 187 808 187 795 z "},"ٓ":{"ha":0,"x_min":-153,"x_max":372,"o":"m 183 889 q -29 933 87 889 q -127 885 -83 910 l -153 928 q -17 1026 -35 1026 q 71 1009 -5 1026 q 191 991 146 991 q 276 1003 227 991 q 355 1029 326 1015 l 372 985 q 279 918 336 946 q 183 889 223 889 z "},"ٔ":{"ha":0,"x_min":-25,"x_max":237,"o":"m 160 1015 l 161 1023 q 154 1041 161 1032 q 135 1050 146 1050 q 77 1027 104 1050 q 39 972 51 1004 q 138 931 71 931 q 237 945 175 931 l 233 865 q 95 822 144 842 q -21 766 45 802 l -25 846 q 15 869 -6 859 q 56 892 36 880 q -20 974 -20 905 q 2 1049 -20 1011 q 60 1111 24 1086 q 132 1136 97 1136 q 192 1116 172 1136 q 212 1060 212 1097 q 208 1031 212 1048 q 199 1004 204 1015 l 160 1015 z "},"ٕ":{"ha":0,"x_min":31,"x_max":293,"o":"m 216 -190 l 217 -182 q 210 -164 217 -173 q 191 -155 202 -155 q 133 -178 159 -155 q 94 -233 106 -201 q 194 -274 127 -274 q 293 -260 231 -274 l 289 -340 q 150 -384 200 -363 q 35 -439 100 -404 l 31 -359 q 71 -336 50 -347 q 111 -313 92 -325 q 36 -231 36 -300 q 58 -156 36 -194 q 116 -94 79 -119 q 188 -69 153 -69 q 248 -89 227 -69 q 268 -145 268 -109 q 264 -174 268 -157 q 254 -201 260 -191 l 216 -190 z "},"ٰ":{"ha":0,"x_min":-25,"x_max":66,"o":"m 40 1057 q 61 921 56 976 q 66 794 66 866 q 21 644 66 707 l 11 647 q -19 919 11 800 q -25 958 -25 941 q -7 1020 -25 993 q 40 1057 11 1046 z "},"ٖ":{"ha":0,"x_min":-25,"x_max":66,"o":"m 40 -126 q 61 -262 56 -208 q 66 -389 66 -317 q 21 -539 66 -477 l 11 -536 q -19 -264 11 -384 q -25 -225 -25 -242 q -7 -164 -25 -191 q 40 -126 11 -137 z "},"ؕ":{"ha":0,"x_min":-168,"x_max":314,"o":"m -155 611 l -65 596 q -24 650 -47 625 l -58 821 q -74 909 -74 896 q -48 943 -74 927 q 11 965 -22 959 l 35 895 l 18 882 q 22 796 22 842 q 25 703 23 749 q 106 765 67 743 q 170 787 144 787 q 232 764 197 787 q 290 705 266 740 q 314 647 314 670 q 282 563 314 601 q 198 502 251 524 q 92 479 145 479 q 6 488 47 479 q -72 511 -35 496 q -168 559 -109 526 l -155 611 m 158 686 q 79 660 123 686 q -5 590 35 634 q 96 585 43 585 q 185 593 149 585 q 268 621 222 601 q 221 667 254 647 q 158 686 189 686 z "},"ﺪ":{"ha":774,"x_min":56,"x_max":802,"o":"m 787 -14 q 586 72 662 -14 q 256 -14 439 -14 q 106 13 157 -14 q 56 90 56 39 q 63 137 56 114 q 85 176 71 161 q 178 127 125 143 q 307 111 230 111 q 533 144 419 111 q 460 288 499 199 q 399 448 420 377 q 378 545 378 518 q 400 612 378 585 q 464 653 423 640 q 556 360 513 473 q 651 179 599 248 q 787 111 704 111 q 802 97 802 111 l 802 0 q 787 -14 802 -14 z "},"ہ":{"ha":694,"x_min":111,"x_max":722,"o":"m 704 -14 q 609 -1 649 -14 q 538 32 568 12 q 487 74 509 52 q 447 116 465 96 q 413 149 429 136 q 376 161 396 161 q 282 120 336 161 q 154 -14 229 79 l 111 24 q 431 293 294 293 q 493 271 463 293 q 559 202 524 248 q 629 134 593 157 q 704 111 664 111 q 722 94 722 111 l 722 4 q 704 -14 722 -14 z "},"چ":{"ha":1039,"x_min":111,"x_max":1011,"o":"m 222 -54 q 266 -201 222 -138 q 399 -301 310 -264 q 593 -338 489 -338 q 800 -326 705 -338 q 993 -292 895 -314 l 1011 -347 q 785 -444 886 -416 q 589 -472 683 -472 q 276 -361 388 -472 q 164 -54 164 -250 q 269 251 164 111 q 543 457 374 391 l 478 479 q 314 517 370 517 q 173 477 237 517 l 135 453 q 118 480 125 463 q 111 517 111 497 q 166 616 111 579 q 309 653 221 653 q 428 639 363 653 q 583 596 494 625 q 868 539 758 539 l 894 539 l 975 542 l 929 416 q 833 410 886 410 q 529 326 680 397 q 300 156 378 255 q 222 -54 222 58 m 593 65 q 496 -46 555 10 q 387 54 430 4 q 493 164 431 94 q 545 111 520 134 q 593 65 569 88 m 852 89 q 755 -22 815 34 q 647 78 687 30 q 753 187 694 121 q 852 89 767 172 m 733 -114 q 639 -204 668 -184 q 536 -114 579 -163 q 633 -14 569 -84 q 733 -114 671 -64 z "},"ﭻ":{"ha":1168,"x_min":111,"x_max":1197,"o":"m 210 -471 q 177 -360 190 -421 q 164 -253 164 -298 q 220 -17 164 -124 q 379 168 276 91 q 619 283 482 245 q 540 326 577 304 q 466 366 503 348 q 393 394 430 383 q 314 406 355 406 q 173 366 237 406 l 135 342 q 118 369 125 351 q 111 406 111 386 q 166 505 111 468 q 309 542 221 542 q 437 522 372 542 q 576 460 503 501 q 783 357 718 380 q 925 322 848 333 q 1096 309 1003 312 l 1034 187 q 852 211 913 201 l 843 211 q 907 142 875 161 q 995 117 939 123 q 1183 111 1052 111 q 1197 97 1197 111 l 1197 0 q 1183 -14 1197 -14 q 967 6 1043 -12 q 846 67 890 25 q 764 201 801 110 q 498 105 621 176 q 313 -57 375 35 q 250 -253 250 -149 q 258 -337 250 -294 q 290 -441 267 -379 l 210 -471 m 600 -203 q 503 -314 562 -258 q 394 -214 437 -264 q 500 -104 438 -174 q 551 -157 527 -134 q 600 -203 576 -180 m 859 -179 q 762 -290 822 -234 q 654 -190 694 -238 q 760 -81 701 -147 q 859 -179 774 -96 m 740 -382 q 646 -472 675 -452 q 543 -382 586 -431 q 640 -281 576 -352 q 740 -382 678 -332 z "},"أ":{"ha":389,"x_min":82,"x_max":345,"o":"m 257 758 q 267 437 267 483 l 267 378 q 256 0 267 258 l 180 -14 q 170 354 178 208 l 167 425 q 136 844 159 590 l 134 867 q 160 948 134 918 q 243 990 186 979 q 272 888 258 928 l 301 796 l 257 758 m 267 1217 l 269 1225 q 261 1242 269 1234 q 242 1251 254 1251 q 184 1229 211 1251 q 146 1174 158 1206 q 245 1133 178 1133 q 345 1146 282 1133 l 340 1067 q 202 1023 252 1043 q 86 968 152 1003 l 82 1047 q 122 1071 101 1060 q 163 1093 143 1082 q 87 1175 87 1107 q 109 1250 87 1213 q 168 1313 131 1288 q 239 1337 204 1337 q 299 1318 279 1337 q 319 1261 319 1298 q 315 1233 319 1250 q 306 1206 311 1216 l 267 1217 z "},"ﺄ":{"ha":414,"x_min":35,"x_max":441,"o":"m 235 991 q 250 444 245 736 q 256 153 253 263 q 427 111 332 111 q 441 97 441 111 l 441 0 q 427 -14 441 -14 q 267 25 331 -14 q 195 129 203 64 q 125 900 163 387 q 235 991 169 946 m 220 1217 l 221 1225 q 214 1242 221 1234 q 195 1251 206 1251 q 137 1229 163 1251 q 98 1174 111 1206 q 198 1133 131 1133 q 297 1146 235 1133 l 293 1067 q 154 1023 204 1043 q 39 968 104 1003 l 35 1047 q 75 1071 54 1060 q 115 1093 96 1082 q 40 1175 40 1107 q 62 1250 40 1213 q 120 1313 83 1288 q 192 1337 157 1337 q 252 1318 231 1337 q 272 1261 272 1298 q 268 1233 272 1250 q 258 1206 264 1216 l 220 1217 z "},"إ":{"ha":418,"x_min":93,"x_max":355,"o":"m 243 758 q 252 437 252 483 l 252 378 q 241 0 252 258 l 166 -14 q 156 354 163 208 l 153 425 q 121 844 145 590 l 120 867 q 146 948 120 918 q 229 990 172 979 q 258 888 244 928 l 287 796 l 243 758 m 278 -203 l 279 -195 q 272 -178 279 -186 q 253 -169 264 -169 q 195 -192 222 -169 q 157 -246 169 -214 q 256 -288 189 -288 q 355 -274 293 -288 l 351 -353 q 213 -397 262 -377 q 97 -452 163 -417 l 93 -373 q 133 -349 112 -360 q 174 -327 154 -338 q 98 -245 98 -313 q 120 -170 98 -208 q 178 -107 142 -132 q 250 -83 215 -83 q 310 -102 290 -83 q 330 -159 330 -122 q 326 -187 330 -170 q 317 -214 322 -204 l 278 -203 z "},"ﺈ":{"ha":414,"x_min":125,"x_max":441,"o":"m 235 991 q 250 444 245 736 q 256 153 253 263 q 427 111 332 111 q 441 97 441 111 l 441 0 q 427 -14 441 -14 q 267 25 331 -14 q 195 129 203 64 q 125 900 163 387 q 235 991 169 946 m 355 -203 l 356 -195 q 349 -178 356 -186 q 330 -169 341 -169 q 272 -192 298 -169 q 233 -246 245 -214 q 333 -288 266 -288 q 432 -274 370 -288 l 428 -353 q 289 -397 339 -377 q 174 -452 239 -417 l 170 -373 q 210 -349 189 -360 q 250 -327 231 -338 q 175 -245 175 -313 q 197 -170 175 -208 q 255 -107 218 -132 q 327 -83 292 -83 q 387 -102 366 -83 q 407 -159 407 -122 q 403 -187 407 -170 q 393 -214 399 -204 l 355 -203 z "},"آ":{"ha":389,"x_min":-72,"x_max":453,"o":"m 258 758 q 268 437 268 483 l 268 378 q 257 0 268 258 l 182 -14 q 172 354 179 208 l 168 425 q 137 844 161 590 l 136 867 q 162 948 136 918 q 244 990 188 979 q 273 888 260 928 l 302 796 l 258 758 m 264 1055 q 52 1099 168 1055 q -47 1050 -2 1076 l -72 1093 q 64 1192 46 1192 q 152 1175 76 1192 q 271 1157 227 1157 q 357 1168 307 1157 q 436 1195 407 1180 l 453 1150 q 360 1083 416 1112 q 264 1055 304 1055 z "},"ﺂ":{"ha":414,"x_min":-81,"x_max":444,"o":"m 235 991 q 250 444 245 736 q 256 153 253 263 q 427 111 332 111 q 441 97 441 111 l 441 0 q 427 -14 441 -14 q 267 25 331 -14 q 195 129 203 64 q 125 900 163 387 q 235 991 169 946 m 255 1055 q 43 1099 159 1055 q -56 1050 -11 1076 l -81 1093 q 55 1192 37 1192 q 143 1175 67 1192 q 262 1157 218 1157 q 348 1168 298 1157 q 427 1195 398 1180 l 444 1150 q 351 1083 408 1112 q 255 1055 295 1055 z "},"ٱ":{"ha":389,"x_min":-18,"x_max":346,"o":"m 254 758 q 264 437 264 483 l 264 378 q 253 0 264 258 l 178 -14 q 168 354 175 208 l 164 425 q 133 844 157 590 l 132 867 q 158 948 132 918 q 240 990 184 979 q 269 888 256 928 l 298 796 l 254 758 m 216 1052 q 146 1063 180 1052 q 70 1096 113 1074 q 7 1052 35 1080 l -18 1072 q 36 1142 12 1118 q 90 1165 61 1165 q 122 1154 97 1165 q 189 1231 155 1203 q 267 1259 224 1259 q 322 1227 299 1259 q 346 1150 346 1196 q 331 1088 346 1125 q 272 1058 294 1063 q 216 1052 250 1052 m 253 1189 q 157 1141 210 1189 q 216 1126 186 1126 q 272 1129 257 1126 q 315 1145 286 1133 q 253 1189 292 1189 z "},"ﭑ":{"ha":414,"x_min":-9,"x_max":441,"o":"m 235 991 q 250 444 245 736 q 256 153 253 263 q 427 111 332 111 q 441 97 441 111 l 441 0 q 427 -14 441 -14 q 267 25 331 -14 q 195 129 203 64 q 125 900 163 387 q 235 991 169 946 m 225 1052 q 156 1063 189 1052 q 79 1096 122 1074 q 16 1052 44 1080 l -9 1072 q 46 1142 21 1118 q 100 1165 71 1165 q 132 1154 106 1165 q 199 1231 164 1203 q 276 1259 233 1259 q 332 1227 309 1259 q 355 1150 355 1196 q 340 1088 355 1125 q 281 1058 303 1063 q 225 1052 259 1052 m 262 1189 q 167 1141 219 1189 q 225 1126 195 1126 q 281 1129 267 1126 q 325 1145 296 1133 q 262 1189 302 1189 z "},"ب":{"ha":1261,"x_min":112,"x_max":1179,"o":"m 511 -14 q 213 58 315 -14 q 112 265 112 129 q 134 444 112 372 l 193 444 q 189 411 191 437 q 186 364 186 385 q 224 215 186 269 q 342 136 262 161 q 545 111 421 111 q 840 141 696 111 q 1101 227 985 172 q 1042 406 1081 299 q 1010 515 1010 490 q 1040 590 1010 553 q 1118 653 1070 627 q 1135 558 1124 606 q 1155 466 1145 511 q 1172 378 1165 420 q 1179 298 1179 336 q 1122 132 1179 246 q 853 23 1008 60 q 511 -14 698 -14 m 808 -234 q 703 -353 774 -286 q 586 -247 630 -297 q 700 -127 655 -179 q 808 -234 753 -186 z "},"ﺑ":{"ha":450,"x_min":-14,"x_max":367,"o":"m 0 -14 q -14 0 -14 -14 l -14 97 q 0 111 -14 111 q 151 127 73 111 q 289 171 230 143 q 230 350 269 243 q 199 460 199 434 q 229 534 199 497 q 306 597 258 572 q 323 503 313 550 q 343 410 334 456 q 360 322 353 365 q 367 243 367 280 q 310 77 367 191 q 0 -14 159 -14 m 299 -234 q 193 -353 264 -286 q 77 -247 121 -297 q 191 -127 146 -179 q 299 -234 244 -186 z "},"ﺒ":{"ha":478,"x_min":-14,"x_max":505,"o":"m 0 -14 q -14 0 -14 -14 l -14 97 q 0 111 -14 111 q 115 126 70 111 q 182 170 159 141 q 246 279 205 199 l 275 332 q 325 358 289 358 q 366 346 349 358 q 286 172 320 236 q 492 111 382 111 q 505 97 505 111 l 505 0 q 492 -14 505 -14 q 233 82 340 -14 l 220 63 l 207 46 q 163 19 197 34 q 87 -5 130 4 q 0 -14 45 -14 m 341 -234 q 235 -353 307 -286 q 119 -247 163 -297 q 233 -127 188 -179 q 341 -234 286 -186 z "},"ﺐ":{"ha":1335,"x_min":112,"x_max":1363,"o":"m 1350 -14 q 1070 102 1183 -14 q 824 17 968 47 q 511 -14 680 -14 q 213 58 315 -14 q 112 265 112 129 q 134 444 112 372 l 193 444 q 189 411 191 437 q 186 364 186 385 q 224 215 186 269 q 342 136 262 161 q 545 111 421 111 q 738 125 631 111 q 926 161 844 140 q 1036 204 1007 183 q 1090 273 1064 226 l 1113 314 q 1163 340 1128 340 q 1203 328 1187 340 q 1135 178 1158 216 q 1350 111 1230 111 q 1363 97 1363 111 l 1363 0 q 1350 -14 1363 -14 m 808 -234 q 703 -353 774 -286 q 586 -247 630 -297 q 700 -127 655 -179 q 808 -234 753 -186 z "},"پ":{"ha":1261,"x_min":112,"x_max":1179,"o":"m 511 -14 q 213 58 315 -14 q 112 265 112 129 q 134 444 112 372 l 193 444 q 189 411 191 437 q 186 364 186 385 q 224 215 186 269 q 342 136 262 161 q 545 111 421 111 q 840 141 696 111 q 1101 227 985 172 q 1042 406 1081 299 q 1010 515 1010 490 q 1040 590 1010 553 q 1118 653 1070 627 q 1135 558 1124 606 q 1155 466 1145 511 q 1172 378 1165 420 q 1179 298 1179 336 q 1122 132 1179 246 q 853 23 1008 60 q 511 -14 698 -14 m 705 -224 q 608 -335 668 -279 q 500 -235 543 -285 q 606 -125 544 -195 q 657 -178 633 -155 q 705 -224 682 -201 m 965 -200 q 868 -311 928 -255 q 760 -211 800 -259 q 865 -102 806 -168 q 965 -200 880 -117 m 846 -403 q 751 -493 781 -473 q 648 -403 692 -452 q 746 -302 682 -373 q 846 -403 784 -353 z "},"ﭗ":{"ha":1335,"x_min":112,"x_max":1363,"o":"m 1350 -14 q 1070 102 1183 -14 q 824 17 968 47 q 511 -14 680 -14 q 213 58 315 -14 q 112 265 112 129 q 134 444 112 372 l 193 444 q 189 411 191 437 q 186 364 186 385 q 224 215 186 269 q 342 136 262 161 q 545 111 421 111 q 738 125 631 111 q 926 161 844 140 q 1036 204 1007 183 q 1090 273 1064 226 l 1113 314 q 1163 340 1128 340 q 1203 328 1187 340 q 1135 178 1158 216 q 1350 111 1230 111 q 1363 97 1363 111 l 1363 0 q 1350 -14 1363 -14 m 705 -224 q 608 -335 668 -279 q 500 -235 543 -285 q 606 -125 544 -195 q 657 -178 633 -155 q 705 -224 682 -201 m 965 -200 q 868 -311 928 -255 q 760 -211 800 -259 q 865 -102 806 -168 q 965 -200 880 -117 m 846 -403 q 751 -493 781 -473 q 648 -403 692 -452 q 746 -302 682 -373 q 846 -403 784 -353 z "},"ﭘ":{"ha":585,"x_min":-14,"x_max":502,"o":"m 0 -14 q -14 0 -14 -14 l -14 97 q 0 111 -14 111 q 140 117 58 111 q 290 137 222 123 q 400 171 358 151 q 341 350 380 243 q 310 460 310 434 q 340 534 310 497 q 416 597 370 572 q 434 503 424 550 q 455 410 445 456 q 471 322 465 365 q 478 243 478 280 q 421 77 478 191 q 234 11 352 35 q 0 -14 115 -14 m 242 -224 q 145 -335 205 -279 q 37 -235 79 -285 q 142 -125 81 -195 q 194 -178 170 -155 q 242 -224 218 -201 m 502 -200 q 405 -311 465 -255 q 296 -211 336 -259 q 402 -102 343 -168 q 502 -200 416 -117 m 382 -403 q 288 -493 317 -473 q 185 -403 229 -452 q 283 -302 218 -373 q 382 -403 321 -353 z "},"ﭙ":{"ha":589,"x_min":-14,"x_max":616,"o":"m 436 358 q 476 346 460 358 q 397 172 429 231 q 603 111 494 111 q 616 97 616 111 l 616 0 q 603 -14 616 -14 q 345 82 451 -14 l 332 63 l 318 46 q 256 21 308 35 q 137 -4 205 6 q 0 -14 70 -14 q -14 0 -14 -14 l -14 97 q 0 111 -14 111 q 271 149 217 111 q 309 192 288 160 q 357 279 330 224 l 386 332 q 436 358 401 358 m 287 -224 q 190 -335 250 -279 q 81 -235 124 -285 q 187 -125 125 -195 q 239 -178 214 -155 q 287 -224 263 -201 m 547 -200 q 450 -311 509 -255 q 341 -211 381 -259 q 447 -102 388 -168 q 547 -200 461 -117 m 427 -403 q 333 -493 362 -473 q 230 -403 273 -452 q 328 -302 263 -373 q 427 -403 366 -353 z "},"ت":{"ha":1261,"x_min":112,"x_max":1179,"o":"m 511 -14 q 213 58 315 -14 q 112 265 112 129 q 134 444 112 372 l 193 444 q 189 411 191 437 q 186 364 186 385 q 224 215 186 269 q 342 136 262 161 q 545 111 421 111 q 840 141 696 111 q 1101 227 985 172 q 1042 406 1081 299 q 1010 515 1010 490 q 1040 590 1010 553 q 1118 653 1070 627 q 1135 558 1124 606 q 1155 466 1145 511 q 1172 378 1165 420 q 1179 298 1179 336 q 1122 132 1179 246 q 853 23 1008 60 q 511 -14 698 -14 m 603 652 q 506 541 566 597 q 397 640 439 592 q 503 750 429 669 q 603 652 517 734 m 849 675 q 751 564 812 621 q 644 664 688 612 q 749 774 672 690 q 849 675 764 758 z "},"ﺗ":{"ha":534,"x_min":-14,"x_max":452,"o":"m 0 -14 q -14 0 -14 -14 l -14 97 q 0 111 -14 111 q 151 127 73 111 q 289 171 230 143 q 230 350 269 243 q 199 460 199 434 q 229 534 199 497 q 306 597 258 572 q 323 503 313 550 q 343 410 334 456 q 360 322 353 365 q 367 243 367 280 q 310 77 367 191 q 0 -14 159 -14 m 206 817 q 109 706 169 762 q 1 806 42 758 q 106 916 33 835 q 206 817 121 900 m 452 840 q 355 729 416 787 q 247 829 291 778 q 352 939 275 855 q 452 840 367 923 z "},"ﺘ":{"ha":589,"x_min":-14,"x_max":616,"o":"m 436 358 q 476 346 460 358 q 397 172 429 231 q 603 111 494 111 q 616 97 616 111 l 616 0 q 603 -14 616 -14 q 345 82 451 -14 l 332 63 l 318 46 q 256 21 308 35 q 137 -4 205 6 q 0 -14 70 -14 q -14 0 -14 -14 l -14 97 q 0 111 -14 111 q 271 149 217 111 q 309 192 288 160 q 357 279 330 224 l 386 332 q 436 358 401 358 m 262 586 q 165 475 224 531 q 56 574 98 526 q 162 684 88 604 q 262 586 176 669 m 508 609 q 410 498 471 555 q 302 598 347 547 q 408 708 331 624 q 508 609 422 692 z "},"ﺖ":{"ha":1335,"x_min":112,"x_max":1363,"o":"m 1350 -14 q 1070 102 1183 -14 q 824 17 968 47 q 511 -14 680 -14 q 213 58 315 -14 q 112 265 112 129 q 134 444 112 372 l 193 444 q 189 411 191 437 q 186 364 186 385 q 224 215 186 269 q 342 136 262 161 q 545 111 421 111 q 738 125 631 111 q 926 161 844 140 q 1036 204 1007 183 q 1090 273 1064 226 l 1113 314 q 1163 340 1128 340 q 1203 328 1187 340 q 1135 178 1158 216 q 1350 111 1230 111 q 1363 97 1363 111 l 1363 0 q 1350 -14 1363 -14 m 664 551 q 567 439 627 496 q 458 539 500 491 q 564 649 490 568 q 664 551 578 633 m 910 574 q 812 463 873 520 q 705 563 749 511 q 810 673 733 589 q 910 574 825 656 z "},"ث":{"ha":1261,"x_min":112,"x_max":1179,"o":"m 511 -14 q 213 58 315 -14 q 112 265 112 129 q 134 444 112 372 l 193 444 q 189 411 191 437 q 186 364 186 385 q 224 215 186 269 q 342 136 262 161 q 545 111 421 111 q 840 141 696 111 q 1101 227 985 172 q 1042 406 1081 299 q 1010 515 1010 490 q 1040 590 1010 553 q 1118 653 1070 627 q 1135 558 1124 606 q 1155 466 1145 511 q 1172 378 1165 420 q 1179 298 1179 336 q 1122 132 1179 246 q 853 23 1008 60 q 511 -14 698 -14 m 720 835 q 625 745 654 765 q 522 835 566 785 q 620 935 559 867 q 670 880 638 910 q 720 835 701 849 m 597 652 q 500 541 561 598 q 392 640 434 591 q 497 750 420 666 q 597 652 508 739 m 857 675 q 760 564 821 621 q 652 664 696 612 q 757 774 680 690 q 857 675 772 758 z "},"ﺛ":{"ha":542,"x_min":-14,"x_max":459,"o":"m 0 -14 q -14 0 -14 -14 l -14 97 q 0 111 -14 111 q 151 127 73 111 q 289 171 230 143 q 230 350 269 243 q 199 460 199 434 q 229 534 199 497 q 306 597 258 572 q 323 503 313 550 q 343 410 334 456 q 360 322 353 365 q 367 243 367 280 q 310 77 367 191 q 0 -14 159 -14 m 321 1000 q 227 910 256 930 q 124 1000 168 951 q 222 1100 161 1033 q 272 1045 240 1076 q 321 1000 303 1015 m 199 817 q 102 706 163 764 q -6 806 36 756 q 99 916 22 831 q 199 817 110 904 m 459 840 q 361 729 422 787 q 254 829 298 778 q 359 939 282 855 q 459 840 374 923 z "},"ﺜ":{"ha":589,"x_min":-14,"x_max":616,"o":"m 436 358 q 476 346 460 358 q 397 172 429 231 q 603 111 494 111 q 616 97 616 111 l 616 0 q 603 -14 616 -14 q 345 82 451 -14 l 332 63 l 318 46 q 256 21 308 35 q 137 -4 205 6 q 0 -14 70 -14 q -14 0 -14 -14 l -14 97 q 0 111 -14 111 q 271 149 217 111 q 309 192 288 160 q 357 279 330 224 l 386 332 q 436 358 401 358 m 377 769 q 283 679 312 699 q 180 769 223 720 q 277 869 216 802 q 327 814 296 844 q 377 769 359 783 m 255 586 q 157 475 218 532 q 50 574 92 525 q 155 684 78 600 q 255 586 165 673 m 515 609 q 417 498 478 555 q 309 598 353 547 q 414 708 338 624 q 515 609 429 692 z "},"ﺚ":{"ha":1335,"x_min":112,"x_max":1363,"o":"m 1350 -14 q 1070 102 1183 -14 q 824 17 968 47 q 511 -14 680 -14 q 213 58 315 -14 q 112 265 112 129 q 134 444 112 372 l 193 444 q 189 411 191 437 q 186 364 186 385 q 224 215 186 269 q 342 136 262 161 q 545 111 421 111 q 738 125 631 111 q 926 161 844 140 q 1036 204 1007 183 q 1090 273 1064 226 l 1113 314 q 1163 340 1128 340 q 1203 328 1187 340 q 1135 178 1158 216 q 1350 111 1230 111 q 1363 97 1363 111 l 1363 0 q 1350 -14 1363 -14 m 781 734 q 686 644 715 664 q 583 734 627 684 q 681 833 620 766 q 731 779 699 809 q 781 734 762 748 m 659 551 q 561 439 622 497 q 453 539 495 490 q 558 649 481 565 q 659 551 569 637 m 918 574 q 821 463 882 520 q 713 563 757 511 q 818 673 741 589 q 918 574 833 656 z "},"ٹ":{"ha":1261,"x_min":112,"x_max":1179,"o":"m 511 -14 q 213 58 315 -14 q 112 265 112 129 q 134 444 112 372 l 193 444 q 189 411 191 437 q 186 364 186 385 q 224 215 186 269 q 342 136 262 161 q 545 111 421 111 q 840 141 696 111 q 1101 227 985 172 q 1042 406 1081 299 q 1010 515 1010 490 q 1040 590 1010 553 q 1118 653 1070 627 q 1135 558 1124 606 q 1155 466 1145 511 q 1172 378 1165 420 q 1179 298 1179 336 q 1122 132 1179 246 q 853 23 1008 60 q 511 -14 698 -14 m 349 587 l 439 572 q 480 625 457 600 l 446 797 q 430 885 430 871 q 456 919 430 903 q 515 941 481 935 l 538 870 l 522 857 q 526 771 526 818 q 529 678 527 725 q 610 741 571 718 q 673 763 648 763 q 735 739 701 763 q 794 681 770 715 q 818 623 818 646 q 786 538 818 576 q 702 477 755 500 q 595 455 649 455 q 510 464 551 455 q 432 487 469 472 q 336 535 395 501 l 349 587 m 662 662 q 583 636 627 662 q 498 566 539 610 q 600 560 547 560 q 689 568 653 560 q 772 596 726 576 q 725 642 758 623 q 662 662 692 662 z "},"ﭨ":{"ha":561,"x_min":-58,"x_max":424,"o":"m 1 -14 q -12 0 -12 -14 l -12 97 q 1 111 -12 111 q 153 127 74 111 q 290 171 231 143 q 231 350 271 243 q 200 460 200 434 q 230 534 200 497 q 307 597 260 572 q 325 503 314 550 q 345 410 335 456 q 361 322 355 365 q 368 243 368 280 q 311 77 368 191 q 1 -14 160 -14 m -45 852 l 45 838 q 86 891 63 866 l 52 1063 q 36 1151 36 1137 q 62 1184 36 1168 q 121 1206 87 1200 l 144 1136 l 128 1123 q 132 1037 132 1084 q 135 944 133 991 q 216 1006 177 984 q 279 1029 254 1029 q 341 1005 307 1029 q 400 946 376 981 q 424 888 424 911 q 392 804 424 842 q 308 743 361 766 q 201 721 255 721 q 116 729 157 721 q 38 752 75 738 q -58 801 1 767 l -45 852 m 268 928 q 189 902 233 928 q 104 831 145 876 q 205 826 153 826 q 295 834 259 826 q 378 862 332 842 q 331 908 363 888 q 268 928 298 928 z "},"ﭩ":{"ha":589,"x_min":-14,"x_max":616,"o":"m 436 358 q 476 346 460 358 q 397 172 429 231 q 603 111 494 111 q 616 97 616 111 l 616 0 q 603 -14 616 -14 q 345 82 451 -14 l 332 63 l 318 46 q 256 21 308 35 q 137 -4 205 6 q 0 -14 70 -14 q -14 0 -14 -14 l -14 97 q 0 111 -14 111 q 271 149 217 111 q 309 192 288 160 q 357 279 330 224 l 386 332 q 436 358 401 358 m 31 593 l 121 578 q 162 632 139 607 l 127 804 q 112 892 112 878 q 138 925 112 909 q 197 947 163 941 l 220 877 l 204 864 q 208 778 208 825 q 211 685 209 732 q 292 747 253 725 q 355 770 330 770 q 417 746 383 770 q 476 687 452 722 q 500 629 500 652 q 468 545 500 583 q 384 484 437 507 q 277 462 331 462 q 192 470 233 462 q 114 493 151 479 q 18 542 77 508 l 31 593 m 344 669 q 265 643 309 669 q 180 572 221 616 q 281 567 229 567 q 371 575 335 567 q 454 603 408 583 q 407 649 439 629 q 344 669 374 669 z "},"ﭧ":{"ha":1335,"x_min":112,"x_max":1363,"o":"m 1350 -14 q 1070 102 1183 -14 q 824 17 968 47 q 511 -14 680 -14 q 213 58 315 -14 q 112 265 112 129 q 134 444 112 372 l 193 444 q 189 411 191 437 q 186 364 186 385 q 224 215 186 269 q 342 136 262 161 q 545 111 421 111 q 738 125 631 111 q 926 161 844 140 q 1036 204 1007 183 q 1090 273 1064 226 l 1113 314 q 1163 340 1128 340 q 1203 328 1187 340 q 1135 178 1158 216 q 1350 111 1230 111 q 1363 97 1363 111 l 1363 0 q 1350 -14 1363 -14 m 403 475 l 493 460 q 534 514 511 489 l 500 686 q 484 774 484 760 q 510 807 484 791 q 569 829 536 823 l 593 759 l 576 746 q 581 660 580 707 q 583 567 581 614 q 664 629 625 607 q 728 652 703 652 q 790 628 755 652 q 848 569 824 604 q 872 511 872 534 q 841 427 872 465 q 756 366 809 389 q 650 344 703 344 q 564 352 605 344 q 487 375 524 361 q 390 424 450 390 l 403 475 m 716 551 q 637 525 681 551 q 553 454 593 498 q 654 449 602 449 q 744 457 707 449 q 826 485 780 465 q 779 531 812 511 q 716 551 747 551 z "},"ة":{"ha":692,"x_min":112,"x_max":608,"o":"m 136 192 q 296 503 136 350 l 289 509 q 256 576 256 530 q 269 624 256 602 q 300 653 281 646 q 447 565 375 629 q 563 419 518 500 q 608 273 608 338 q 571 140 608 225 q 497 32 533 56 q 336 -14 430 -14 q 189 42 242 -14 q 136 192 136 98 m 528 189 q 343 468 494 348 q 247 350 283 412 q 211 240 211 289 q 248 149 211 181 q 354 117 286 117 q 443 137 393 117 q 528 189 493 158 m 317 885 q 220 774 280 830 q 112 873 153 825 q 218 983 144 903 q 317 885 232 968 m 564 908 q 466 797 527 854 q 358 897 402 846 q 463 1007 387 923 q 564 908 478 991 z "},"ﺔ":{"ha":764,"x_min":112,"x_max":791,"o":"m 481 82 q 350 100 397 89 q 248 137 303 111 q 165 188 193 163 q 136 233 136 213 q 158 306 136 254 q 195 385 179 357 q 298 486 218 429 q 475 585 378 544 l 467 653 q 529 704 499 684 q 591 745 558 724 q 605 257 597 466 l 608 153 q 778 111 682 111 q 791 97 791 111 l 791 0 q 778 -14 791 -14 q 618 23 679 -14 q 546 129 557 60 l 536 187 l 481 82 m 532 215 l 490 479 q 216 309 296 410 q 295 257 258 276 q 393 228 332 239 q 532 215 453 217 m 317 937 q 220 825 280 882 q 112 925 153 877 q 218 1035 144 954 q 317 937 232 1019 m 564 960 q 466 848 527 906 q 358 949 402 897 q 463 1059 387 975 q 564 960 478 1042 z "},"ﭼ":{"ha":1039,"x_min":-14,"x_max":983,"o":"m 0 -14 q -14 0 -14 -14 l -14 97 q 0 111 -14 111 q 378 153 241 111 l 452 177 q 557 214 520 202 q 633 232 595 225 q 541 287 581 256 q 466 343 501 317 q 394 388 430 370 q 315 406 359 406 q 259 400 283 406 q 214 386 234 395 q 136 342 193 376 q 120 369 127 351 q 113 406 113 386 q 168 505 113 468 q 310 542 222 542 q 414 519 361 542 q 538 446 467 497 q 676 355 618 387 q 799 308 733 324 q 983 293 865 292 l 921 172 l 821 182 q 715 173 747 180 q 641 149 683 166 q 522 92 599 132 q 369 25 437 47 q 221 -5 301 3 q 0 -14 142 -14 m 511 -224 q 414 -335 473 -279 q 305 -235 348 -285 q 411 -125 349 -195 q 463 -178 438 -155 q 511 -224 487 -201 m 770 -200 q 673 -311 733 -255 q 565 -211 605 -259 q 671 -102 612 -168 q 770 -200 685 -117 m 651 -403 q 557 -493 586 -473 q 454 -403 497 -452 q 551 -302 487 -373 q 651 -403 589 -353 z "},"ﭽ":{"ha":1088,"x_min":-14,"x_max":1116,"o":"m 0 -14 q -14 0 -14 -14 l -14 97 q 0 111 -14 111 q 378 153 241 111 q 511 203 425 167 q 632 243 580 232 q 541 295 581 267 q 465 348 500 323 q 394 389 429 372 q 315 406 358 406 q 259 400 283 406 q 214 386 234 395 q 136 342 193 376 q 120 369 127 351 q 113 406 113 386 q 168 505 113 468 q 310 542 222 542 q 416 520 362 542 q 538 453 471 498 q 662 374 613 401 q 753 334 711 348 q 840 314 795 321 q 983 307 886 307 l 921 186 q 782 200 838 192 l 771 200 q 823 142 793 159 q 909 118 852 125 q 1101 111 966 111 q 1116 97 1116 111 l 1116 0 q 1101 -14 1116 -14 q 903 5 979 -13 q 780 62 827 24 q 697 180 733 101 q 624 146 665 168 q 400 36 475 64 q 242 -3 325 8 q 0 -14 159 -14 m 511 -224 q 414 -335 473 -279 q 305 -235 348 -285 q 411 -125 349 -195 q 463 -178 438 -155 q 511 -224 487 -201 m 770 -200 q 673 -311 733 -255 q 565 -211 605 -259 q 671 -102 612 -168 q 770 -200 685 -117 m 651 -403 q 557 -493 586 -473 q 454 -403 497 -452 q 551 -302 487 -373 q 651 -403 589 -353 z "},"ج":{"ha":1039,"x_min":111,"x_max":1011,"o":"m 222 -54 q 266 -201 222 -138 q 399 -301 310 -264 q 593 -338 489 -338 q 800 -326 705 -338 q 993 -292 895 -314 l 1011 -347 q 785 -444 886 -416 q 589 -472 683 -472 q 276 -361 388 -472 q 164 -54 164 -250 q 269 251 164 111 q 543 457 374 391 l 478 479 q 314 517 370 517 q 173 477 237 517 l 135 453 q 118 480 125 463 q 111 517 111 497 q 166 616 111 579 q 309 653 221 653 q 428 639 363 653 q 583 596 494 625 q 868 539 758 539 l 894 539 l 975 542 l 929 416 q 833 410 886 410 q 529 326 680 397 q 300 156 378 255 q 222 -54 222 58 m 690 -14 q 585 -134 656 -66 q 468 -27 512 -77 q 582 92 537 41 q 690 -14 635 34 z "},"ﺟ":{"ha":1039,"x_min":-14,"x_max":983,"o":"m 0 -14 q -14 0 -14 -14 l -14 97 q 0 111 -14 111 q 378 153 241 111 l 452 177 q 557 214 520 202 q 633 232 595 225 q 541 287 581 256 q 466 343 501 317 q 394 388 430 370 q 315 406 359 406 q 259 400 283 406 q 214 386 234 395 q 136 342 193 376 q 120 369 127 351 q 113 406 113 386 q 168 505 113 468 q 310 542 222 542 q 414 519 361 542 q 538 446 467 497 q 676 355 618 387 q 799 308 733 324 q 983 293 865 292 l 921 172 l 821 182 q 715 173 747 180 q 641 149 683 166 q 522 92 599 132 q 369 25 437 47 q 221 -5 301 3 q 0 -14 142 -14 m 619 -213 q 513 -332 585 -265 q 397 -226 441 -276 q 511 -106 466 -158 q 619 -213 564 -165 z "},"ﺠ":{"ha":1088,"x_min":-14,"x_max":1116,"o":"m 0 -14 q -14 0 -14 -14 l -14 97 q 0 111 -14 111 q 378 153 241 111 q 511 203 425 167 q 632 243 580 232 q 541 295 581 267 q 465 348 500 323 q 394 389 429 372 q 315 406 358 406 q 259 400 283 406 q 214 386 234 395 q 136 342 193 376 q 120 369 127 351 q 113 406 113 386 q 168 505 113 468 q 310 542 222 542 q 416 520 362 542 q 538 453 471 498 q 662 374 613 401 q 753 334 711 348 q 840 314 795 321 q 983 307 886 307 l 921 186 q 782 200 838 192 l 771 200 q 823 142 793 159 q 909 118 852 125 q 1101 111 966 111 q 1116 97 1116 111 l 1116 0 q 1101 -14 1116 -14 q 903 5 979 -13 q 780 62 827 24 q 697 180 733 101 q 624 146 665 168 q 400 36 475 64 q 242 -3 325 8 q 0 -14 159 -14 m 619 -213 q 513 -332 585 -265 q 397 -226 441 -276 q 511 -106 466 -158 q 619 -213 564 -165 z "},"ﺞ":{"ha":1128,"x_min":111,"x_max":1157,"o":"m 1143 -14 q 926 -3 993 -14 q 819 33 859 7 q 749 105 778 58 q 696 233 720 153 q 446 131 556 197 q 279 -17 336 65 q 222 -192 222 -100 q 320 -397 222 -323 q 586 -472 417 -472 q 746 -462 669 -472 q 930 -427 823 -452 l 949 -482 q 743 -574 842 -541 q 582 -607 644 -607 q 361 -555 456 -607 q 215 -409 267 -504 q 164 -192 164 -314 q 216 14 164 -87 q 363 194 269 115 q 576 315 458 273 l 502 347 q 385 393 425 381 q 314 406 344 406 q 173 366 237 406 l 135 342 q 118 369 125 351 q 111 406 111 386 q 166 505 111 468 q 309 542 221 542 q 413 525 356 542 q 564 464 469 507 q 868 386 734 386 l 894 386 l 975 389 l 929 264 q 833 257 886 257 q 760 248 800 254 q 801 169 782 192 q 849 133 821 145 q 927 116 878 121 q 1143 111 977 111 q 1157 97 1157 111 l 1157 0 q 1143 -14 1157 -14 m 669 -197 q 564 -316 635 -249 q 447 -210 491 -260 q 561 -90 516 -142 q 669 -197 614 -149 z "},"خ":{"ha":1039,"x_min":111,"x_max":1011,"o":"m 222 -54 q 266 -201 222 -138 q 399 -301 310 -264 q 593 -338 489 -338 q 800 -326 705 -338 q 993 -292 895 -314 l 1011 -347 q 785 -444 886 -416 q 589 -472 683 -472 q 276 -361 388 -472 q 164 -54 164 -250 q 269 251 164 111 q 543 457 374 391 l 478 479 q 314 517 370 517 q 173 477 237 517 l 135 453 q 118 480 125 463 q 111 517 111 497 q 166 616 111 579 q 309 653 221 653 q 428 639 363 653 q 583 596 494 625 q 868 539 758 539 l 894 539 l 975 542 l 929 416 q 833 410 886 410 q 529 326 680 397 q 300 156 378 255 q 222 -54 222 58 m 644 848 q 538 728 610 795 q 422 835 466 785 q 536 954 491 903 q 644 848 589 896 z "},"ﺧ":{"ha":1039,"x_min":-14,"x_max":983,"o":"m 0 -14 q -14 0 -14 -14 l -14 97 q 0 111 -14 111 q 378 153 241 111 l 452 177 q 557 214 520 202 q 633 232 595 225 q 541 287 581 256 q 466 343 501 317 q 394 388 430 370 q 315 406 359 406 q 259 400 283 406 q 214 386 234 395 q 136 342 193 376 q 120 369 127 351 q 113 406 113 386 q 168 505 113 468 q 310 542 222 542 q 414 519 361 542 q 538 446 467 497 q 676 355 618 387 q 799 308 733 324 q 983 293 865 292 l 921 172 l 821 182 q 715 173 747 180 q 641 149 683 166 q 522 92 599 132 q 369 25 437 47 q 221 -5 301 3 q 0 -14 142 -14 m 755 717 q 650 597 721 665 q 533 704 577 654 q 647 823 602 772 q 755 717 701 765 z "},"ﺨ":{"ha":1088,"x_min":-14,"x_max":1116,"o":"m 0 -14 q -14 0 -14 -14 l -14 97 q 0 111 -14 111 q 378 153 241 111 q 511 203 425 167 q 632 243 580 232 q 541 295 581 267 q 465 348 500 323 q 394 389 429 372 q 315 406 358 406 q 259 400 283 406 q 214 386 234 395 q 136 342 193 376 q 120 369 127 351 q 113 406 113 386 q 168 505 113 468 q 310 542 222 542 q 416 520 362 542 q 538 453 471 498 q 662 374 613 401 q 753 334 711 348 q 840 314 795 321 q 983 307 886 307 l 921 186 q 782 200 838 192 l 771 200 q 823 142 793 159 q 909 118 852 125 q 1101 111 966 111 q 1116 97 1116 111 l 1116 0 q 1101 -14 1116 -14 q 903 5 979 -13 q 780 62 827 24 q 697 180 733 101 q 624 146 665 168 q 400 36 475 64 q 242 -3 325 8 q 0 -14 159 -14 m 755 717 q 650 597 721 665 q 533 704 577 654 q 647 823 602 772 q 755 717 701 765 z "},"ﺦ":{"ha":1128,"x_min":111,"x_max":1157,"o":"m 1143 -14 q 926 -3 993 -14 q 819 33 859 7 q 749 105 778 58 q 696 233 720 153 q 446 131 556 197 q 279 -17 336 65 q 222 -192 222 -100 q 320 -397 222 -323 q 586 -472 417 -472 q 746 -462 669 -472 q 930 -427 823 -452 l 949 -482 q 743 -574 842 -541 q 582 -607 644 -607 q 361 -555 456 -607 q 215 -409 267 -504 q 164 -192 164 -314 q 216 14 164 -87 q 363 194 269 115 q 576 315 458 273 l 502 347 q 385 393 425 381 q 314 406 344 406 q 173 366 237 406 l 135 342 q 118 369 125 351 q 111 406 111 386 q 166 505 111 468 q 309 542 221 542 q 413 525 356 542 q 564 464 469 507 q 868 386 734 386 l 894 386 l 975 389 l 929 264 q 833 257 886 257 q 760 248 800 254 q 801 169 782 192 q 849 133 821 145 q 927 116 878 121 q 1143 111 977 111 q 1157 97 1157 111 l 1157 0 q 1143 -14 1157 -14 m 713 717 q 607 597 678 665 q 490 704 534 654 q 604 823 559 772 q 713 717 658 765 z "},"ذ":{"ha":676,"x_min":56,"x_max":607,"o":"m 256 -14 q 106 13 157 -14 q 56 90 56 39 q 63 137 56 114 q 85 176 71 161 q 178 127 125 143 q 307 111 230 111 q 529 144 421 111 q 427 359 502 220 l 397 413 q 363 484 374 454 q 353 545 353 513 q 375 612 353 585 q 439 653 398 640 q 492 524 463 586 q 547 406 522 461 q 590 302 572 350 q 607 216 607 254 q 550 50 607 164 q 256 -14 427 -14 m 492 868 q 386 749 457 816 q 269 855 313 805 q 383 975 338 923 q 492 868 437 916 z "},"ﺬ":{"ha":774,"x_min":56,"x_max":802,"o":"m 787 -14 q 586 72 662 -14 q 256 -14 439 -14 q 106 13 157 -14 q 56 90 56 39 q 63 137 56 114 q 85 176 71 161 q 178 127 125 143 q 307 111 230 111 q 533 144 419 111 q 460 288 499 199 q 399 448 420 377 q 378 545 378 518 q 400 612 378 585 q 464 653 423 640 q 556 360 513 473 q 651 179 599 248 q 787 111 704 111 q 802 97 802 111 l 802 0 q 787 -14 802 -14 m 492 868 q 386 749 457 816 q 269 855 313 805 q 383 975 338 923 q 492 868 437 916 z "},"ڈ":{"ha":682,"x_min":56,"x_max":612,"o":"m 261 -14 q 112 13 163 -14 q 61 90 61 39 q 69 137 61 114 q 90 176 77 161 q 183 127 131 143 q 313 111 235 111 q 534 144 427 111 q 432 359 507 220 l 403 413 q 369 484 379 454 q 358 545 358 513 q 381 612 358 585 q 444 653 404 640 q 498 524 469 586 q 552 406 527 461 q 595 302 578 350 q 612 216 612 254 q 555 50 612 164 q 261 -14 432 -14 m 68 899 l 159 884 q 200 937 177 912 l 165 1109 q 150 1197 150 1183 q 176 1231 150 1215 q 235 1253 201 1246 l 258 1182 l 242 1169 q 246 1083 245 1130 q 249 990 247 1037 q 330 1053 291 1030 q 393 1075 368 1075 q 455 1051 421 1075 q 514 992 490 1027 q 538 935 538 958 q 506 850 538 888 q 422 789 475 812 q 315 767 369 767 q 230 775 271 767 q 152 799 189 784 q 56 847 115 813 l 68 899 m 382 974 q 303 948 347 974 q 218 878 259 922 q 319 872 267 872 q 409 880 373 872 q 492 908 446 888 q 445 954 477 935 q 382 974 412 974 z "},"ﮉ":{"ha":774,"x_min":56,"x_max":802,"o":"m 787 -14 q 586 72 662 -14 q 256 -14 439 -14 q 106 13 157 -14 q 56 90 56 39 q 63 137 56 114 q 85 176 71 161 q 178 127 125 143 q 307 111 230 111 q 533 144 419 111 q 460 288 499 199 q 399 448 420 377 q 378 545 378 518 q 400 612 378 585 q 464 653 423 640 q 556 360 513 473 q 651 179 599 248 q 787 111 704 111 q 802 97 802 111 l 802 0 q 787 -14 802 -14 m 90 899 l 180 884 q 222 937 199 912 l 187 1109 q 172 1197 172 1183 q 197 1231 172 1215 q 256 1253 223 1246 l 280 1182 l 264 1169 q 268 1083 267 1130 q 271 990 269 1037 q 351 1053 313 1030 q 415 1075 390 1075 q 477 1051 443 1075 q 535 992 511 1027 q 559 935 559 958 q 528 850 559 888 q 444 789 496 812 q 337 767 391 767 q 252 775 292 767 q 174 799 211 784 q 77 847 137 813 l 90 899 m 404 974 q 325 948 368 974 q 240 878 281 922 q 341 872 289 872 q 431 880 395 872 q 513 908 467 888 q 467 954 499 935 q 404 974 434 974 z "},"ز":{"ha":608,"x_min":-56,"x_max":525,"o":"m 158 -347 q 57 -320 121 -347 q -56 -256 -7 -292 l -33 -201 q 54 -216 24 -213 q 121 -220 85 -220 q 331 -147 243 -220 q 464 66 418 -74 q 435 131 449 104 q 387 217 420 158 q 330 328 356 268 q 304 429 304 388 q 330 496 304 471 q 400 543 355 522 q 446 408 411 499 q 510 218 496 277 q 525 118 525 159 q 477 -117 525 -9 q 345 -286 429 -225 q 158 -347 260 -347 m 426 772 q 320 653 391 720 q 203 760 248 709 q 317 879 273 827 q 426 772 371 821 z "},"ﺰ":{"ha":637,"x_min":-56,"x_max":665,"o":"m 652 -14 q 518 26 574 -14 q 393 -244 492 -141 q 158 -347 294 -347 q 57 -320 121 -347 q -56 -256 -7 -292 l -33 -201 q 54 -216 24 -213 q 121 -220 85 -220 q 331 -147 243 -220 q 464 66 418 -74 q 435 131 449 104 q 387 217 420 158 q 330 328 356 268 q 304 429 304 388 q 330 496 304 471 q 400 543 355 522 q 430 451 410 501 q 468 347 449 400 q 504 242 488 294 q 524 143 519 189 q 652 111 581 111 q 665 97 665 111 l 665 0 q 652 -14 665 -14 m 426 772 q 320 653 391 720 q 203 760 248 709 q 317 879 273 827 q 426 772 371 821 z "},"ڑ":{"ha":608,"x_min":-56,"x_max":525,"o":"m 158 -347 q 57 -320 121 -347 q -56 -256 -7 -292 l -33 -201 q 54 -216 24 -213 q 121 -220 85 -220 q 331 -147 243 -220 q 464 66 418 -74 q 435 131 449 104 q 387 217 420 158 q 330 328 356 268 q 304 429 304 388 q 330 496 304 471 q 400 543 355 522 q 446 408 411 499 q 510 218 496 277 q 525 118 525 159 q 477 -117 525 -9 q 345 -286 429 -225 q 158 -347 260 -347 m 14 775 l 104 760 q 146 814 123 789 l 111 985 q 96 1074 96 1060 q 121 1107 96 1091 q 180 1129 147 1123 l 204 1059 l 188 1046 q 192 960 191 1006 q 195 867 193 913 q 275 929 237 907 q 339 951 314 951 q 401 928 367 951 q 459 869 435 904 q 484 811 484 834 q 452 727 484 765 q 368 666 420 688 q 261 644 315 644 q 176 652 216 644 q 98 675 135 661 q 1 724 61 690 l 14 775 m 328 850 q 249 824 292 850 q 164 754 205 798 q 265 749 213 749 q 355 757 319 749 q 437 785 391 765 q 391 831 423 811 q 328 850 358 850 z "},"ﮍ":{"ha":637,"x_min":-56,"x_max":665,"o":"m 652 -14 q 518 26 574 -14 q 393 -244 492 -141 q 158 -347 294 -347 q 57 -320 121 -347 q -56 -256 -7 -292 l -33 -201 q 54 -216 24 -213 q 121 -220 85 -220 q 331 -147 243 -220 q 464 66 418 -74 q 435 131 449 104 q 387 217 420 158 q 330 328 356 268 q 304 429 304 388 q 330 496 304 471 q 400 543 355 522 q 430 451 410 501 q 468 347 449 400 q 504 242 488 294 q 524 143 519 189 q 652 111 581 111 q 665 97 665 111 l 665 0 q 652 -14 665 -14 m 14 775 l 104 760 q 146 814 123 789 l 111 985 q 96 1074 96 1060 q 121 1107 96 1091 q 180 1129 147 1123 l 204 1059 l 188 1046 q 192 960 191 1006 q 195 867 193 913 q 275 929 237 907 q 339 951 314 951 q 401 928 367 951 q 459 869 435 904 q 484 811 484 834 q 452 727 484 765 q 368 666 420 688 q 261 644 315 644 q 176 652 216 644 q 98 675 135 661 q 1 724 61 690 l 14 775 m 328 850 q 249 824 292 850 q 164 754 205 798 q 265 749 213 749 q 355 757 319 749 q 437 785 391 765 q 391 831 423 811 q 328 850 358 850 z "},"ژ":{"ha":631,"x_min":-56,"x_max":548,"o":"m 158 -347 q 57 -320 121 -347 q -56 -256 -7 -292 l -33 -201 q 54 -216 24 -213 q 121 -220 85 -220 q 331 -147 243 -220 q 464 66 418 -74 q 435 131 449 104 q 387 217 420 158 q 330 328 356 268 q 304 429 304 388 q 330 496 304 471 q 400 543 355 522 q 446 408 411 499 q 510 218 496 277 q 525 118 525 159 q 477 -117 525 -9 q 345 -286 429 -225 q 158 -347 260 -347 m 410 956 q 316 865 345 886 q 213 956 256 906 q 311 1055 250 988 q 360 1000 329 1031 q 410 956 392 970 m 288 772 q 191 661 252 719 q 83 761 125 711 q 188 871 111 787 q 288 772 199 859 m 548 795 q 450 684 511 742 q 342 785 387 733 q 448 895 371 810 q 548 795 463 878 z "},"ﮋ":{"ha":637,"x_min":-56,"x_max":665,"o":"m 652 -14 q 518 26 574 -14 q 393 -244 492 -141 q 158 -347 294 -347 q 57 -320 121 -347 q -56 -256 -7 -292 l -33 -201 q 54 -216 24 -213 q 121 -220 85 -220 q 331 -147 243 -220 q 464 66 418 -74 q 435 131 449 104 q 387 217 420 158 q 330 328 356 268 q 304 429 304 388 q 330 496 304 471 q 400 543 355 522 q 430 451 410 501 q 468 347 449 400 q 504 242 488 294 q 524 143 519 189 q 652 111 581 111 q 665 97 665 111 l 665 0 q 652 -14 665 -14 m 410 956 q 316 865 345 886 q 213 956 256 906 q 311 1055 250 988 q 360 1000 329 1031 q 410 956 392 970 m 288 772 q 191 661 252 719 q 83 761 125 711 q 188 871 111 787 q 288 772 199 859 m 548 795 q 450 684 511 742 q 342 785 387 733 q 448 895 371 810 q 548 795 463 878 z "},"ش":{"ha":1655,"x_min":111,"x_max":1572,"o":"m 407 -472 q 189 -392 267 -472 q 111 -165 111 -311 q 117 -76 111 -115 q 143 46 123 -38 l 203 32 q 184 -85 184 -38 q 244 -272 184 -205 q 411 -338 304 -338 q 572 -311 489 -338 q 721 -237 655 -285 q 814 -134 787 -190 q 707 179 707 101 q 814 325 707 264 q 848 127 821 264 q 951 111 899 111 q 1096 127 1044 111 q 1115 174 1105 143 l 1135 241 q 1174 349 1158 317 q 1206 389 1190 381 q 1240 398 1221 397 q 1278 386 1262 398 q 1240 286 1257 341 q 1207 178 1223 231 q 1347 130 1280 144 q 1495 115 1414 115 q 1434 294 1475 187 q 1401 404 1401 378 q 1431 479 1401 441 q 1508 542 1461 516 q 1527 447 1516 494 q 1548 355 1537 400 q 1565 267 1558 309 q 1572 187 1572 224 q 1553 95 1572 157 q 1510 -14 1533 33 q 1329 0 1403 -14 q 1162 57 1255 14 l 1149 31 q 1078 -1 1137 11 q 933 -14 1019 -14 q 871 -8 898 -14 q 875 -72 875 -42 q 812 -262 875 -170 q 638 -413 749 -353 q 407 -472 527 -472 m 1282 835 q 1187 745 1217 765 q 1084 835 1128 785 q 1182 935 1121 867 q 1232 880 1200 910 q 1282 835 1263 849 m 1160 652 q 1062 541 1123 598 q 954 640 996 591 q 1059 750 983 666 q 1160 652 1070 739 m 1419 675 q 1322 564 1383 621 q 1214 664 1258 612 q 1319 774 1242 690 q 1419 675 1334 758 z "},"ﺷ":{"ha":1075,"x_min":-14,"x_max":991,"o":"m 370 -14 q 264 1 323 -14 q 170 36 205 15 q 0 -14 116 -14 q -14 0 -14 -14 l -14 97 q 0 111 -14 111 q 75 120 45 111 q 132 149 105 128 q 166 182 153 165 q 220 267 180 199 q 270 292 234 292 q 310 281 295 292 q 241 131 263 169 q 387 111 297 111 q 515 127 465 111 q 555 241 526 146 q 592 345 574 309 q 625 389 609 380 q 659 398 642 398 q 697 386 682 398 q 659 286 676 341 q 627 178 642 231 q 767 130 700 144 q 914 115 833 115 q 853 294 895 187 q 821 404 821 378 q 850 479 821 441 q 928 542 880 516 q 946 447 935 494 q 967 355 957 400 q 984 267 977 309 q 991 187 991 224 q 972 95 991 157 q 929 -14 953 33 q 748 0 823 -14 q 582 57 674 14 l 568 31 q 502 0 556 12 q 370 -14 448 -12 m 676 835 q 582 745 611 765 q 479 835 522 785 q 576 935 515 867 q 626 880 595 910 q 676 835 658 849 m 554 652 q 456 541 517 598 q 349 640 391 591 q 454 750 377 666 q 554 652 465 739 m 814 675 q 716 564 777 621 q 608 664 652 612 q 713 774 637 690 q 814 675 728 758 z "},"ﺸ":{"ha":1083,"x_min":-14,"x_max":1111,"o":"m 1097 -14 q 969 11 1034 -14 q 865 77 905 36 l 842 31 q 787 -1 831 12 q 697 -14 743 -14 q 624 -2 654 -14 q 566 28 593 9 q 500 -1 551 10 q 370 -14 450 -12 q 264 1 323 -14 q 170 36 205 15 q 0 -14 116 -14 q -14 0 -14 -14 l -14 97 q 0 111 -14 111 q 75 120 45 111 q 132 149 105 128 q 166 182 153 165 q 220 267 180 199 q 270 292 234 292 q 310 281 295 292 q 241 131 263 169 q 387 111 297 111 q 515 127 465 111 q 555 241 526 146 q 592 345 574 309 q 625 389 609 380 q 659 398 642 398 q 697 386 682 398 q 633 198 672 330 l 612 135 q 657 119 638 122 q 700 115 676 115 q 790 132 739 115 q 837 250 802 151 q 893 386 871 347 q 943 412 909 412 q 983 400 968 412 q 969 364 976 383 q 901 168 962 345 q 986 127 940 142 q 1097 111 1031 111 q 1111 97 1111 111 l 1111 0 q 1097 -14 1111 -14 m 656 835 q 562 745 591 765 q 458 835 502 785 q 556 935 495 867 q 606 880 574 910 q 656 835 637 849 m 534 652 q 436 541 497 598 q 328 640 370 591 q 433 750 357 666 q 534 652 444 739 m 793 675 q 696 564 757 621 q 588 664 632 612 q 693 774 616 690 q 793 675 708 758 z "},"ﺶ":{"ha":1661,"x_min":111,"x_max":1689,"o":"m 1675 -14 q 1547 11 1612 -14 q 1443 77 1482 36 l 1419 31 q 1365 0 1409 13 q 1275 -14 1322 -14 q 1202 -2 1232 -14 q 1143 28 1171 9 q 1078 -1 1128 10 q 947 -14 1027 -12 q 871 -5 912 -14 q 875 -72 875 -39 q 812 -262 875 -170 q 638 -413 749 -353 q 407 -472 527 -472 q 189 -392 267 -472 q 111 -165 111 -311 q 117 -76 111 -115 q 143 46 123 -38 l 203 32 q 184 -85 184 -38 q 244 -272 184 -205 q 411 -338 304 -338 q 572 -311 489 -338 q 721 -237 655 -285 q 814 -134 787 -190 q 707 179 707 101 q 814 325 707 264 q 850 122 820 268 q 965 111 899 111 q 1093 127 1042 111 q 1133 241 1104 146 q 1170 345 1152 309 q 1203 389 1187 380 q 1237 398 1219 398 q 1275 386 1259 398 q 1211 198 1250 330 l 1190 135 q 1235 119 1216 122 q 1278 115 1254 115 q 1368 132 1317 115 q 1415 250 1379 151 q 1459 365 1444 333 q 1489 404 1475 396 q 1521 412 1503 412 q 1561 400 1546 412 q 1547 364 1554 383 q 1479 168 1539 345 q 1564 127 1518 142 q 1675 111 1609 111 q 1689 97 1689 111 l 1689 0 q 1675 -14 1689 -14 m 1270 835 q 1175 745 1204 765 q 1072 835 1116 785 q 1170 935 1109 867 q 1220 880 1188 910 q 1270 835 1251 849 m 1147 652 q 1050 541 1111 598 q 942 640 984 591 q 1047 750 970 666 q 1147 652 1058 739 m 1407 675 q 1310 564 1371 621 q 1202 664 1246 612 q 1307 774 1230 690 q 1407 675 1322 758 z "},"ض":{"ha":1790,"x_min":111,"x_max":1707,"o":"m 407 -472 q 189 -392 267 -472 q 111 -165 111 -311 q 117 -76 111 -115 q 143 46 123 -38 l 203 32 q 184 -85 184 -38 q 244 -272 184 -205 q 411 -338 304 -338 q 572 -311 489 -338 q 721 -237 655 -285 q 814 -134 787 -190 q 707 179 707 101 q 814 325 707 264 q 839 172 825 239 q 885 154 847 168 q 1172 463 1036 357 q 1418 570 1308 570 q 1539 528 1468 570 q 1659 430 1611 486 q 1707 332 1707 374 q 1643 155 1707 231 q 1451 32 1579 78 q 1181 -14 1322 -14 q 1023 -2 1114 -14 q 867 28 932 9 q 875 -72 875 -33 q 812 -262 875 -170 q 638 -413 749 -353 q 407 -472 527 -472 m 1378 433 q 1191 356 1300 433 q 960 135 1082 279 q 1197 111 1074 111 q 1418 147 1311 111 q 1633 250 1525 182 q 1516 384 1587 334 q 1378 433 1445 433 m 1265 754 q 1160 635 1231 702 q 1043 741 1087 691 q 1157 861 1112 809 q 1265 754 1211 802 z "},"ﺿ":{"ha":1284,"x_min":-14,"x_max":1174,"o":"m 281 315 q 319 300 304 315 l 271 187 q 351 154 307 170 q 885 570 663 570 q 1008 527 936 570 q 1127 428 1080 484 q 1174 332 1174 372 q 1111 155 1174 232 q 918 33 1047 79 q 647 -14 789 -14 q 401 13 524 -14 q 207 79 277 39 l 193 62 q 113 4 161 21 q 0 -14 66 -14 q -14 0 -14 -14 l -14 97 q 0 111 -14 111 q 92 125 57 111 q 153 168 127 140 q 229 286 178 196 q 281 315 247 315 m 844 433 q 658 357 767 433 q 428 135 549 281 q 664 111 536 111 q 1100 250 878 111 q 983 384 1054 334 q 844 433 912 433 m 710 754 q 604 635 675 702 q 488 741 532 691 q 602 861 557 809 q 710 754 655 802 z "},"ﻀ":{"ha":1271,"x_min":-14,"x_max":1299,"o":"m 1284 -14 q 1147 14 1215 -14 q 1035 89 1080 41 q 858 14 964 41 q 647 -14 751 -14 q 401 13 524 -14 q 207 79 277 39 l 193 62 q 113 4 161 21 q 0 -14 66 -14 q -14 0 -14 -14 l -14 97 q 0 111 -14 111 q 92 125 57 111 q 153 168 127 140 q 229 286 178 196 q 281 315 247 315 q 319 300 304 315 l 271 187 q 351 154 307 170 q 885 570 663 570 q 1008 527 936 570 q 1127 428 1080 484 q 1174 332 1174 372 q 1109 155 1174 230 q 1284 111 1185 111 q 1299 97 1299 111 l 1299 0 q 1284 -14 1299 -14 m 844 433 q 658 357 767 433 q 428 135 549 281 q 664 111 536 111 q 1100 250 878 111 q 983 384 1054 334 q 844 433 912 433 m 717 754 q 611 635 682 702 q 494 741 538 691 q 608 861 564 809 q 717 754 662 802 z "},"ﺾ":{"ha":1796,"x_min":111,"x_max":1824,"o":"m 407 -472 q 189 -392 267 -472 q 111 -165 111 -311 q 117 -76 111 -115 q 143 46 123 -38 l 203 32 q 184 -85 184 -38 q 244 -272 184 -205 q 411 -338 304 -338 q 572 -311 489 -338 q 721 -237 655 -285 q 814 -134 787 -190 q 707 179 707 101 q 814 325 707 264 q 839 172 825 239 q 885 154 847 168 q 1172 463 1036 357 q 1418 570 1308 570 q 1539 528 1468 570 q 1659 430 1611 486 q 1707 332 1707 374 q 1642 151 1707 228 q 1810 111 1712 111 q 1824 97 1824 111 l 1824 0 q 1810 -14 1824 -14 q 1675 13 1742 -14 q 1563 85 1609 39 q 1390 13 1493 40 q 1181 -14 1286 -14 q 1023 -2 1114 -14 q 867 28 932 9 q 875 -72 875 -33 q 812 -262 875 -170 q 638 -413 749 -353 q 407 -472 527 -472 m 1378 433 q 1191 356 1300 433 q 960 135 1082 279 q 1197 111 1074 111 q 1418 147 1311 111 q 1633 250 1525 182 q 1516 384 1587 334 q 1378 433 1445 433 m 1265 754 q 1160 635 1231 702 q 1043 741 1087 691 q 1157 861 1112 809 q 1265 754 1211 802 z "},"ظ":{"ha":1257,"x_min":69,"x_max":1174,"o":"m 647 -14 q 458 -8 579 -14 q 290 12 336 -2 q 187 57 255 22 q 69 127 119 92 l 86 184 q 335 134 271 142 q 428 252 376 189 l 380 532 q 337 802 351 692 q 323 953 323 912 q 348 1040 323 1008 q 431 1083 374 1072 q 460 981 446 1021 l 489 889 l 446 851 q 479 530 454 724 q 494 326 490 415 q 705 507 606 444 q 885 570 804 570 q 1008 527 936 570 q 1127 428 1080 484 q 1174 332 1174 372 q 1111 155 1174 232 q 918 33 1047 79 q 647 -14 789 -14 m 844 433 q 652 353 764 433 q 416 122 540 272 q 664 111 524 111 q 1100 250 878 111 q 983 384 1054 334 q 844 433 912 433 m 819 757 q 713 637 785 705 q 597 744 641 694 q 711 863 666 812 q 819 757 764 805 z "},"ﻇ":{"ha":1079,"x_min":-14,"x_max":996,"o":"m 996 351 q 888 153 996 235 q 561 29 780 72 q 0 -14 341 -14 q -14 0 -14 -14 l -14 97 q 0 111 -14 111 l 62 111 l 140 113 q 245 250 199 195 l 197 532 q 154 802 168 692 q 140 953 140 912 q 165 1040 140 1008 q 248 1083 191 1072 q 290 939 267 1005 l 306 889 l 262 851 q 289 590 269 763 q 305 430 302 473 q 311 326 309 388 q 529 521 427 453 q 707 589 631 589 q 827 547 757 589 q 947 450 898 506 q 996 351 996 393 m 667 453 q 475 362 591 453 q 231 114 359 271 q 469 131 382 119 q 618 154 573 143 q 705 180 664 165 q 797 218 747 195 q 921 279 846 241 q 806 408 872 363 q 667 453 739 453 m 627 757 q 521 637 592 705 q 404 744 448 694 q 518 863 473 812 q 627 757 572 805 z "},"ﻈ":{"ha":1028,"x_min":-14,"x_max":1055,"o":"m 1042 -14 q 898 16 968 -14 q 786 94 828 45 q 0 -14 537 -14 q -14 0 -14 -14 l -14 97 q 0 111 -14 111 l 62 111 l 140 113 q 245 250 199 195 l 197 532 q 154 802 168 692 q 140 953 140 912 q 165 1040 140 1008 q 248 1083 191 1072 q 290 939 267 1005 l 306 889 l 262 851 q 289 590 269 763 q 305 430 302 473 q 311 326 309 388 q 529 521 427 453 q 707 589 631 589 q 827 547 757 589 q 947 450 898 506 q 996 351 996 393 q 880 147 996 231 q 1042 111 949 111 q 1055 97 1055 111 l 1055 0 q 1042 -14 1055 -14 m 667 453 q 475 362 591 453 q 231 114 359 271 q 469 131 382 119 q 618 154 573 143 q 705 180 664 165 q 797 218 747 195 q 921 279 846 241 q 806 408 872 363 q 667 453 739 453 m 625 757 q 519 637 591 705 q 403 744 447 694 q 517 863 472 812 q 625 757 570 805 z "},"ﻆ":{"ha":1267,"x_min":69,"x_max":1295,"o":"m 647 -14 q 458 -8 579 -14 q 290 12 336 -2 q 187 57 255 22 q 69 127 119 92 l 86 184 q 335 134 271 142 q 428 252 376 189 l 380 532 q 337 802 351 692 q 323 953 323 912 q 348 1040 323 1008 q 431 1083 374 1072 q 460 981 446 1021 l 489 889 l 446 851 q 479 530 454 724 q 494 326 490 415 q 705 507 606 444 q 885 570 804 570 q 1008 527 936 570 q 1127 428 1080 484 q 1174 332 1174 372 q 1109 154 1174 229 q 1280 111 1185 111 q 1295 97 1295 111 l 1295 0 q 1280 -14 1295 -14 q 1145 14 1213 -14 q 1032 87 1077 41 q 854 13 958 39 q 647 -14 751 -14 m 844 433 q 652 353 764 433 q 416 122 540 272 q 664 111 524 111 q 1100 250 878 111 q 983 384 1054 334 q 844 433 912 433 m 819 757 q 713 637 785 705 q 597 744 641 694 q 711 863 666 812 q 819 757 764 805 z "},"غ":{"ha":975,"x_min":111,"x_max":1031,"o":"m 608 -472 q 296 -361 408 -472 q 183 -54 183 -250 q 334 302 183 145 q 176 391 240 323 q 111 539 111 459 q 151 688 111 611 q 249 811 190 766 q 372 856 309 856 q 478 829 428 856 q 602 739 528 802 l 572 688 q 478 719 507 712 q 414 725 450 725 q 204 665 314 725 q 278 499 204 565 q 482 422 353 433 q 751 542 605 498 q 770 490 770 519 q 757 445 770 465 q 723 411 744 426 q 644 372 701 396 q 424 254 516 321 q 286 108 331 186 q 241 -54 241 30 q 286 -202 241 -139 q 419 -301 330 -265 q 612 -338 509 -338 q 1013 -292 807 -338 l 1031 -347 q 804 -444 906 -416 q 608 -472 703 -472 m 452 1068 q 346 949 417 1016 q 229 1055 273 1005 q 343 1175 298 1123 q 452 1068 397 1116 z "},"ﻏ":{"ha":825,"x_min":-14,"x_max":783,"o":"m 0 -14 q -14 0 -14 -14 l -14 97 q 0 111 -14 111 q 203 115 113 111 q 132 189 159 146 q 106 281 106 231 q 145 430 106 353 q 244 552 184 507 q 367 597 303 597 q 473 571 422 597 q 596 481 523 544 l 567 429 q 473 460 502 454 q 408 467 444 467 q 199 407 307 467 q 232 280 199 337 q 329 188 266 222 q 482 146 393 153 q 761 235 597 168 q 783 176 783 214 l 782 159 q 714 90 772 105 q 415 23 513 41 q 217 -4 318 6 q 0 -14 116 -14 m 342 792 q 237 673 308 740 q 120 779 164 729 q 234 899 189 847 q 342 792 288 840 z "},"ﻐ":{"ha":676,"x_min":-14,"x_max":704,"o":"m 688 -14 q 502 7 582 -14 q 358 75 422 27 q 184 6 269 26 q 1 -14 100 -14 q -14 1 -14 -14 l -14 96 q 1 111 -14 111 q 282 150 182 111 q 238 207 258 178 q 198 263 218 235 q 155 317 178 291 q 104 367 132 344 l 79 350 q 49 423 49 383 q 104 517 49 479 q 230 576 160 555 q 368 597 300 597 q 544 539 473 597 q 614 393 614 481 q 576 261 614 326 q 467 140 539 195 q 688 111 536 111 q 704 96 704 111 l 704 1 q 688 -14 704 -14 m 374 463 q 182 414 273 463 q 289 305 235 370 q 378 201 355 224 q 465 278 433 237 q 497 358 497 319 q 463 433 497 404 q 374 463 429 463 m 439 824 q 333 705 404 772 q 216 811 260 761 q 330 930 286 879 q 439 824 384 872 z "},"ﻎ":{"ha":739,"x_min":111,"x_max":918,"o":"m 750 -14 q 556 9 637 -14 q 414 81 474 31 q 236 -201 236 -39 q 332 -397 236 -321 q 583 -472 429 -472 q 731 -464 669 -472 q 900 -431 793 -455 l 918 -486 q 762 -566 808 -547 q 670 -596 715 -585 q 579 -607 625 -607 q 375 -555 467 -607 q 230 -410 283 -503 q 178 -204 178 -317 q 224 -17 178 -106 q 354 138 271 71 q 307 197 328 167 q 264 257 286 227 q 219 315 243 287 q 167 367 196 342 l 142 350 q 111 423 111 383 q 170 519 111 481 q 295 577 228 557 q 431 597 361 597 q 606 539 536 597 q 676 393 676 481 q 518 144 676 252 q 750 111 591 111 q 766 96 766 111 l 766 1 q 750 -14 766 -14 m 436 463 q 337 451 382 463 q 244 414 292 439 q 304 358 279 386 q 353 304 330 331 q 396 250 375 277 q 443 199 417 224 q 559 358 559 284 q 525 433 559 404 q 436 463 491 463 m 488 824 q 382 705 453 772 q 265 811 309 761 q 379 930 334 879 q 488 824 433 872 z "},"ﮐ":{"ha":677,"x_min":-14,"x_max":649,"o":"m 0 -14 q -14 0 -14 -14 l -14 97 q 0 111 -14 111 q 267 133 149 111 q 482 207 384 155 q 139 528 421 393 q 100 522 124 522 q 29 552 58 522 q 0 628 0 582 q 17 719 0 659 q 43 785 33 779 q 348 937 234 884 q 624 1055 461 989 q 643 1027 637 1044 q 649 994 649 1009 l 648 979 q 579 897 640 922 q 60 673 291 779 q 299 572 184 643 q 480 415 413 501 q 547 254 547 329 q 411 55 547 123 q 0 -14 275 -14 z "},"ﮑ":{"ha":750,"x_min":-14,"x_max":778,"o":"m 257 171 q 167 371 234 282 q 48 538 94 457 q 1 664 1 620 q 17 734 1 707 q 72 783 33 762 q 268 883 168 837 q 677 1055 368 929 q 697 1027 690 1044 q 703 994 703 1009 l 702 979 q 633 897 694 922 l 476 833 q 60 659 202 722 q 276 411 189 501 q 454 244 363 320 q 617 140 545 169 q 764 111 690 111 q 778 97 778 111 l 778 0 q 764 -14 778 -14 q 598 12 671 -14 q 450 98 525 38 q 319 210 374 158 q 281 77 319 141 q 140 9 206 33 q 0 -14 74 -14 q -14 0 -14 -14 l -14 97 q 0 111 -14 111 q 129 127 59 111 q 257 171 199 143 z "},"ف":{"ha":1386,"x_min":111,"x_max":1303,"o":"m 524 -14 q 111 265 111 -14 q 134 444 111 372 l 192 444 q 186 364 186 399 q 225 212 186 264 q 348 135 264 159 q 558 111 432 111 q 917 144 720 111 q 1225 227 1114 176 q 1203 354 1215 304 q 971 265 1088 265 q 854 318 900 265 q 808 456 808 371 q 836 611 808 536 q 911 729 864 685 q 1011 772 958 772 q 1159 713 1093 772 q 1264 542 1225 654 q 1303 298 1303 431 q 1246 132 1303 246 q 939 25 1138 64 q 524 -14 741 -14 m 1010 389 q 1182 429 1090 389 q 986 633 1111 633 q 904 589 937 633 q 871 488 871 544 q 904 412 871 436 q 1010 389 938 389 m 1088 1004 q 982 885 1053 952 q 865 991 909 941 q 979 1111 935 1059 q 1088 1004 1033 1053 z "},"ﻓ":{"ha":686,"x_min":-14,"x_max":603,"o":"m 525 199 q 503 326 516 271 q 271 237 388 237 q 154 291 199 237 q 109 428 109 344 q 136 583 109 509 q 211 701 164 657 q 311 745 258 745 q 460 684 395 745 q 564 513 526 624 q 603 271 603 403 q 546 104 603 218 q 323 15 447 43 q 1 -14 200 -14 q -14 1 -14 -14 l -14 96 q 1 111 -14 111 q 304 133 182 111 q 525 199 425 155 m 310 361 q 482 401 391 361 q 286 606 411 606 q 204 561 237 606 q 171 460 171 516 q 204 385 171 409 q 310 361 237 361 m 359 977 q 253 857 324 924 q 136 964 180 913 q 250 1083 205 1031 q 359 977 304 1025 z "},"ﻔ":{"ha":632,"x_min":-14,"x_max":660,"o":"m 142 117 q 82 257 82 184 q 91 353 82 298 q 111 428 100 408 q 226 553 157 509 q 370 597 294 597 q 452 555 412 597 q 516 444 492 513 q 541 304 541 374 q 471 119 541 199 q 646 111 532 111 q 660 97 660 111 l 660 0 q 646 -14 660 -14 q 311 39 437 -14 q 182 -1 253 11 q 1 -14 111 -14 q -14 1 -14 -14 l -14 96 q 1 111 -14 111 q 142 117 96 111 m 143 272 q 311 154 211 193 q 476 254 404 191 q 450 345 472 296 q 399 426 427 393 q 354 458 372 458 q 243 402 307 458 q 143 272 180 346 m 387 829 q 281 710 352 777 q 164 817 208 766 q 278 936 233 884 q 387 829 332 878 z "},"ﻒ":{"ha":1336,"x_min":111,"x_max":1364,"o":"m 1350 -14 q 1014 52 1147 -14 q 801 3 927 20 q 524 -14 674 -14 q 111 265 111 -14 q 134 444 111 372 l 192 444 q 186 364 186 399 q 225 212 186 264 q 348 135 264 159 q 558 111 432 111 q 851 139 713 111 q 786 285 786 209 q 795 376 786 317 q 815 456 804 434 q 930 581 861 537 q 1074 625 998 625 q 1156 583 1116 625 q 1220 471 1196 541 q 1244 332 1244 401 q 1150 129 1244 214 q 1350 111 1236 111 q 1364 97 1364 111 l 1364 0 q 1350 -14 1364 -14 m 847 300 q 999 180 909 226 q 1181 282 1109 220 q 1154 372 1177 323 q 1104 454 1132 421 q 1059 486 1076 486 q 948 431 1013 486 q 847 300 884 375 m 1121 863 q 1015 743 1086 810 q 899 850 943 800 q 1013 969 968 918 q 1121 863 1066 911 z "},"ﭪ":{"ha":1386,"x_min":111,"x_max":1303,"o":"m 524 -14 q 111 265 111 -14 q 134 444 111 372 l 192 444 q 186 364 186 399 q 225 212 186 264 q 348 135 264 159 q 558 111 432 111 q 917 144 720 111 q 1225 227 1114 176 q 1203 354 1215 304 q 971 265 1088 265 q 854 318 900 265 q 808 456 808 371 q 836 611 808 536 q 911 729 864 685 q 1011 772 958 772 q 1159 713 1093 772 q 1264 542 1225 654 q 1303 298 1303 431 q 1246 132 1303 246 q 939 25 1138 64 q 524 -14 741 -14 m 1010 389 q 1182 429 1090 389 q 986 633 1111 633 q 904 589 937 633 q 871 488 871 544 q 904 412 871 436 q 1010 389 938 389 m 1072 1189 q 978 1099 1007 1119 q 875 1189 918 1139 q 972 1289 911 1221 q 1022 1234 991 1264 q 1072 1189 1054 1203 m 950 1006 q 852 895 913 952 q 745 994 787 945 q 850 1104 773 1020 q 950 1006 861 1093 m 1210 1029 q 1112 918 1173 975 q 1004 1018 1048 966 q 1109 1128 1033 1044 q 1210 1029 1124 1112 z "},"ﭬ":{"ha":686,"x_min":-14,"x_max":603,"o":"m 525 199 q 503 326 516 271 q 271 237 388 237 q 154 291 199 237 q 109 428 109 344 q 136 583 109 509 q 211 701 164 657 q 311 745 258 745 q 460 684 395 745 q 564 513 526 624 q 603 271 603 403 q 546 104 603 218 q 323 15 447 43 q 1 -14 200 -14 q -14 1 -14 -14 l -14 96 q 1 111 -14 111 q 304 133 182 111 q 525 199 425 155 m 310 361 q 482 401 391 361 q 286 606 411 606 q 204 561 237 606 q 171 460 171 516 q 204 385 171 409 q 310 361 237 361 m 360 1116 q 266 1025 295 1046 q 163 1116 206 1066 q 260 1215 199 1148 q 310 1160 279 1191 q 360 1116 342 1130 m 238 932 q 140 821 201 879 q 33 921 75 871 q 138 1031 61 947 q 238 932 149 1019 m 498 956 q 400 844 461 902 q 292 945 336 893 q 397 1055 321 970 q 498 956 412 1038 z "},"ﭭ":{"ha":632,"x_min":-14,"x_max":660,"o":"m 142 117 q 82 257 82 184 q 91 353 82 298 q 111 428 100 408 q 226 553 157 509 q 370 597 294 597 q 452 555 412 597 q 516 444 492 513 q 541 304 541 374 q 471 119 541 199 q 646 111 532 111 q 660 97 660 111 l 660 0 q 646 -14 660 -14 q 311 39 437 -14 q 182 -1 253 11 q 1 -14 111 -14 q -14 1 -14 -14 l -14 96 q 1 111 -14 111 q 142 117 96 111 m 143 272 q 311 154 211 193 q 476 254 404 191 q 450 345 472 296 q 399 426 427 393 q 354 458 372 458 q 243 402 307 458 q 143 272 180 346 m 399 979 q 305 889 334 909 q 202 979 245 930 q 300 1079 239 1012 q 350 1024 318 1055 q 399 979 381 994 m 277 796 q 180 685 241 743 q 72 785 114 735 q 177 895 100 810 q 277 796 188 883 m 537 819 q 439 708 500 766 q 332 808 376 757 q 437 918 360 834 q 537 819 452 902 z "},"ﭫ":{"ha":1336,"x_min":111,"x_max":1364,"o":"m 1350 -14 q 1014 52 1147 -14 q 801 3 927 20 q 524 -14 674 -14 q 111 265 111 -14 q 134 444 111 372 l 192 444 q 186 364 186 399 q 225 212 186 264 q 348 135 264 159 q 558 111 432 111 q 851 139 713 111 q 786 285 786 209 q 795 376 786 317 q 815 456 804 434 q 930 581 861 537 q 1074 625 998 625 q 1156 583 1116 625 q 1220 471 1196 541 q 1244 332 1244 401 q 1150 129 1244 214 q 1350 111 1236 111 q 1364 97 1364 111 l 1364 0 q 1350 -14 1364 -14 m 847 300 q 999 180 909 226 q 1181 282 1109 220 q 1154 372 1177 323 q 1104 454 1132 421 q 1059 486 1076 486 q 948 431 1013 486 q 847 300 884 375 m 1117 996 q 1023 906 1052 926 q 920 996 963 947 q 1017 1096 956 1029 q 1067 1041 1036 1072 q 1117 996 1099 1010 m 995 813 q 897 702 958 760 q 789 802 831 752 q 895 911 818 827 q 995 813 905 900 m 1255 836 q 1157 725 1218 783 q 1049 825 1093 774 q 1154 935 1078 851 q 1255 836 1169 919 z "},"ﻗ":{"ha":686,"x_min":-14,"x_max":603,"o":"m 525 199 q 503 326 516 271 q 271 237 388 237 q 154 291 199 237 q 109 428 109 344 q 136 583 109 509 q 211 701 164 657 q 311 745 258 745 q 460 684 395 745 q 564 513 526 624 q 603 271 603 403 q 546 104 603 218 q 323 15 447 43 q 1 -14 200 -14 q -14 1 -14 -14 l -14 96 q 1 111 -14 111 q 304 133 182 111 q 525 199 425 155 m 310 361 q 482 401 391 361 q 286 606 411 606 q 204 561 237 606 q 171 460 171 516 q 204 385 171 409 q 310 361 237 361 m 243 934 q 146 823 206 879 q 38 922 79 874 q 144 1032 70 951 q 243 934 158 1017 m 490 957 q 392 846 453 903 q 284 946 328 895 q 389 1056 313 972 q 490 957 404 1040 z "},"ﻘ":{"ha":632,"x_min":-14,"x_max":660,"o":"m 142 117 q 82 257 82 184 q 91 353 82 298 q 111 428 100 408 q 226 553 157 509 q 370 597 294 597 q 452 555 412 597 q 516 444 492 513 q 541 304 541 374 q 471 119 541 199 q 646 111 532 111 q 660 97 660 111 l 660 0 q 646 -14 660 -14 q 311 39 437 -14 q 182 -1 253 11 q 1 -14 111 -14 q -14 1 -14 -14 l -14 96 q 1 111 -14 111 q 142 117 96 111 m 143 272 q 311 154 211 193 q 476 254 404 191 q 450 345 472 296 q 399 426 427 393 q 354 458 372 458 q 243 402 307 458 q 143 272 180 346 m 278 796 q 181 685 241 741 q 73 785 114 736 q 178 895 104 814 q 278 796 193 879 m 524 819 q 427 708 488 766 q 319 808 363 757 q 424 918 347 834 q 524 819 439 902 z "},"ق":{"ha":1057,"x_min":111,"x_max":974,"o":"m 890 -127 q 871 83 890 -12 q 759 8 813 30 q 648 -14 705 -14 q 500 43 556 -14 q 444 197 444 100 q 477 361 444 281 q 565 492 510 441 q 675 542 619 542 q 823 474 753 542 q 933 287 892 406 q 974 22 974 167 q 932 -169 974 -80 q 814 -325 890 -258 q 635 -432 738 -391 q 435 -472 532 -472 q 197 -392 282 -472 q 111 -165 111 -311 q 117 -76 111 -115 q 143 46 123 -38 l 203 32 q 184 -85 184 -38 q 250 -273 184 -208 q 439 -338 316 -338 q 617 -310 524 -338 q 782 -235 711 -283 q 890 -127 852 -188 m 688 119 q 852 157 774 119 q 799 287 831 232 q 727 372 766 342 q 650 403 687 403 q 584 378 617 403 q 529 315 551 354 q 507 243 507 275 q 554 151 507 183 q 688 119 602 119 m 572 763 q 475 652 535 708 q 367 751 408 703 q 473 861 399 781 q 572 763 487 846 m 819 786 q 721 675 782 732 q 613 775 657 724 q 718 885 642 801 q 819 786 733 869 z "},"ﻖ":{"ha":1048,"x_min":111,"x_max":1076,"o":"m 675 555 q 807 497 743 555 q 914 336 871 439 q 970 111 958 233 l 1004 111 l 1063 111 q 1076 97 1076 111 l 1076 0 q 1063 -14 1076 -14 l 972 -14 q 892 -240 964 -138 q 692 -408 820 -343 q 435 -472 564 -472 q 197 -392 282 -472 q 111 -165 111 -311 q 117 -76 111 -115 q 143 46 123 -38 l 203 32 q 184 -85 184 -38 q 250 -273 184 -208 q 439 -338 316 -338 q 705 -281 583 -338 q 890 -127 827 -224 l 884 -12 q 596 17 674 -5 q 481 87 517 39 q 444 211 444 134 q 477 375 444 294 q 565 505 510 455 q 675 555 619 555 m 864 113 q 810 274 844 205 q 734 379 777 342 q 650 416 692 416 q 584 392 617 416 q 529 328 551 367 q 507 257 507 290 q 547 174 507 205 q 685 125 587 143 q 864 113 725 116 m 614 770 q 517 659 576 715 q 408 758 450 710 q 514 868 440 787 q 614 770 528 852 m 860 793 q 762 682 823 739 q 654 782 699 730 q 760 892 683 808 q 860 793 774 876 z "},"ﻧ":{"ha":450,"x_min":-14,"x_max":367,"o":"m 0 -14 q -14 0 -14 -14 l -14 97 q 0 111 -14 111 q 151 127 73 111 q 289 171 230 143 q 230 350 269 243 q 199 460 199 434 q 229 534 199 497 q 306 597 258 572 q 323 503 313 550 q 343 410 334 456 q 360 322 353 365 q 367 243 367 280 q 310 77 367 191 q 0 -14 159 -14 m 295 811 q 189 692 260 759 q 73 798 117 748 q 186 918 142 866 q 295 811 240 859 z "},"ﻨ":{"ha":478,"x_min":-14,"x_max":505,"o":"m 0 -14 q -14 0 -14 -14 l -14 97 q 0 111 -14 111 q 115 126 70 111 q 182 170 159 141 q 246 279 205 199 l 275 332 q 325 358 289 358 q 366 346 349 358 q 286 172 320 236 q 492 111 382 111 q 505 97 505 111 l 505 0 q 492 -14 505 -14 q 233 82 340 -14 l 220 63 l 207 46 q 163 19 197 34 q 87 -5 130 4 q 0 -14 45 -14 m 326 598 q 220 479 291 546 q 103 585 147 535 q 217 705 172 653 q 326 598 271 646 z "},"ن":{"ha":958,"x_min":111,"x_max":875,"o":"m 407 -472 q 189 -392 267 -472 q 111 -165 111 -311 q 117 -76 111 -115 q 143 46 123 -38 l 203 32 q 184 -85 184 -38 q 244 -272 184 -205 q 411 -338 304 -338 q 572 -311 489 -338 q 721 -237 655 -285 q 814 -134 787 -190 q 707 179 707 101 q 814 325 707 264 q 832 215 821 267 q 852 113 842 162 q 868 19 861 64 q 875 -72 875 -27 q 812 -262 875 -170 q 638 -413 749 -353 q 407 -472 527 -472 m 547 348 q 441 229 513 296 q 325 335 369 285 q 439 454 394 403 q 547 348 492 396 z "},"ﻦ":{"ha":957,"x_min":111,"x_max":985,"o":"m 971 -14 q 869 8 916 -14 q 875 -72 875 -44 q 812 -262 875 -170 q 638 -413 749 -353 q 407 -472 527 -472 q 189 -392 267 -472 q 111 -165 111 -311 q 117 -76 111 -115 q 143 46 123 -38 l 203 32 q 184 -85 184 -38 q 244 -272 184 -205 q 411 -338 304 -338 q 572 -311 489 -338 q 721 -237 655 -285 q 814 -134 787 -190 q 707 179 707 101 q 814 325 707 264 q 846 142 819 281 q 909 117 880 123 q 971 111 939 111 q 985 97 985 111 l 985 0 q 971 -14 985 -14 m 547 348 q 441 229 513 296 q 325 335 369 285 q 439 454 394 403 q 547 348 492 396 z "},"ە":{"ha":667,"x_min":111,"x_max":583,"o":"m 111 192 q 271 503 111 350 l 264 509 q 231 576 231 530 q 244 624 231 602 q 275 653 256 646 q 421 565 350 629 q 538 419 493 500 q 583 273 583 338 q 546 140 583 225 q 472 32 508 56 q 311 -14 405 -14 q 164 42 217 -14 q 111 192 111 98 m 503 189 q 318 468 469 348 q 222 350 258 412 q 186 240 186 289 q 223 149 186 181 q 329 117 260 117 q 418 137 368 117 q 503 189 468 158 z "},"ۀ":{"ha":667,"x_min":111,"x_max":583,"o":"m 111 192 q 271 503 111 350 l 264 509 q 231 576 231 530 q 244 624 231 602 q 275 653 256 646 q 421 565 350 629 q 538 419 493 500 q 583 273 583 338 q 546 140 583 225 q 472 32 508 56 q 311 -14 405 -14 q 164 42 217 -14 q 111 192 111 98 m 503 189 q 318 468 469 348 q 222 350 258 412 q 186 240 186 289 q 223 149 186 181 q 329 117 260 117 q 418 137 368 117 q 503 189 468 158 m 297 970 l 298 978 q 291 996 298 987 q 272 1004 283 1004 q 216 983 244 1004 q 176 926 189 961 q 275 886 208 886 q 375 899 311 886 l 370 820 q 230 775 280 795 q 117 721 179 754 l 113 800 q 152 824 131 813 q 193 846 173 835 q 118 928 118 860 q 140 1003 118 966 q 198 1066 161 1041 q 269 1090 235 1090 q 329 1071 308 1090 q 350 1015 350 1052 q 346 986 350 1003 q 336 959 341 969 l 297 970 z "},"ﮥ":{"ha":739,"x_min":111,"x_max":766,"o":"m 456 82 q 325 100 372 89 q 223 137 278 111 q 140 188 168 163 q 111 233 111 213 q 133 306 111 254 q 170 385 154 357 q 273 486 193 429 q 450 585 353 544 l 441 653 q 504 704 474 684 q 566 745 533 724 q 580 257 572 466 l 583 153 q 753 111 657 111 q 766 97 766 111 l 766 0 q 753 -14 766 -14 q 593 23 654 -14 q 521 129 532 60 l 511 187 l 456 82 m 507 215 l 465 479 q 191 309 271 410 q 270 257 233 276 q 368 228 307 239 q 507 215 428 217 m 401 982 l 403 990 q 395 1008 403 999 q 376 1017 388 1017 q 321 995 349 1017 q 281 939 293 973 q 380 898 313 898 q 479 911 416 898 l 475 832 q 334 787 385 808 q 221 733 283 766 l 217 812 q 256 836 235 825 q 297 859 277 847 q 222 941 222 872 q 244 1016 222 978 q 303 1078 266 1053 q 374 1103 340 1103 q 433 1083 412 1103 q 454 1027 454 1064 q 450 998 454 1015 q 440 971 446 981 l 401 982 z "},"ؤ":{"ha":765,"x_min":56,"x_max":682,"o":"m 315 -347 q 182 -314 261 -347 q 56 -243 102 -281 l 79 -189 q 278 -220 169 -220 q 487 -148 399 -220 q 621 66 574 -75 l 619 73 l 619 79 q 400 -14 523 -14 q 251 44 307 -14 q 196 197 196 101 q 229 361 196 281 q 316 492 262 441 q 427 542 371 542 q 553 480 494 542 q 647 317 612 419 q 682 118 682 215 q 630 -110 682 1 q 495 -284 578 -222 q 315 -347 412 -347 m 439 119 q 522 127 486 119 q 604 157 557 136 q 518 334 576 265 q 401 403 461 403 q 335 378 368 403 q 280 314 302 354 q 258 243 258 275 q 306 151 258 183 q 439 119 353 119 m 354 842 l 355 850 q 348 867 355 859 q 329 876 340 876 q 273 854 301 876 q 233 798 245 833 q 332 758 265 758 q 432 771 368 758 l 427 692 q 287 647 337 667 q 174 593 236 626 l 170 672 q 209 696 188 685 q 250 718 230 707 q 175 800 175 732 q 197 875 175 838 q 255 938 218 913 q 326 962 292 962 q 386 943 365 962 q 407 886 407 924 q 402 858 407 875 q 393 831 398 841 l 354 842 z "},"ﺆ":{"ha":765,"x_min":56,"x_max":793,"o":"m 315 -347 q 182 -314 261 -347 q 56 -243 102 -281 l 79 -189 q 278 -220 169 -220 q 589 -11 489 -220 q 340 19 414 -3 q 231 89 266 41 q 196 211 196 136 q 229 375 196 294 q 316 505 262 455 q 427 555 371 555 q 551 496 493 555 q 646 332 609 437 q 682 118 682 226 l 682 111 l 779 111 q 793 97 793 111 l 793 0 q 779 -14 793 -14 l 724 -14 l 665 -12 q 588 -186 640 -109 q 465 -305 535 -263 q 315 -347 394 -347 m 615 113 q 568 267 602 196 q 491 377 535 338 q 401 416 447 416 q 335 392 368 416 q 280 328 302 367 q 258 257 258 290 q 298 174 258 205 q 436 125 338 143 q 615 113 480 116 m 355 840 l 357 848 q 349 866 357 857 q 330 875 342 875 q 275 853 302 875 q 235 797 247 831 q 334 756 267 756 q 433 770 370 756 l 429 690 q 288 645 338 666 q 175 591 237 625 l 171 671 q 210 694 189 684 q 251 717 231 705 q 176 799 176 730 q 198 874 176 836 q 257 936 220 911 q 328 961 294 961 q 387 942 366 961 q 408 885 408 922 q 404 857 408 873 q 394 829 399 840 l 355 840 z "},"ﯨ":{"ha":450,"x_min":-14,"x_max":367,"o":"m 0 -14 q -14 0 -14 -14 l -14 97 q 0 111 -14 111 q 151 127 73 111 q 289 171 230 143 q 230 350 269 243 q 199 460 199 434 q 229 534 199 497 q 306 597 258 572 q 323 503 313 550 q 343 410 334 456 q 360 322 353 365 q 367 243 367 280 q 310 77 367 191 q 0 -14 159 -14 z "},"ﯩ":{"ha":478,"x_min":-14,"x_max":505,"o":"m 0 -14 q -14 0 -14 -14 l -14 97 q 0 111 -14 111 q 115 126 70 111 q 182 170 159 141 q 246 279 205 199 l 275 332 q 325 358 289 358 q 366 346 349 358 q 286 172 320 236 q 492 111 382 111 q 505 97 505 111 l 505 0 q 492 -14 505 -14 q 233 82 340 -14 l 220 63 l 207 46 q 163 19 197 34 q 87 -5 130 4 q 0 -14 45 -14 z "},"ﻳ":{"ha":561,"x_min":-14,"x_max":478,"o":"m 0 -14 q -14 0 -14 -14 l -14 97 q 0 111 -14 111 q 140 117 58 111 q 290 137 222 123 q 400 171 358 151 q 341 350 380 243 q 310 460 310 434 q 340 534 310 497 q 416 597 370 572 q 434 503 424 550 q 455 410 445 456 q 471 322 465 365 q 478 243 478 280 q 421 77 478 191 q 234 11 352 35 q 0 -14 115 -14 m 206 -222 q 109 -334 169 -277 q 1 -234 42 -282 q 106 -124 33 -205 q 206 -222 121 -140 m 452 -199 q 355 -311 416 -253 q 247 -210 291 -262 q 352 -100 275 -184 q 452 -199 367 -117 z "},"ﻴ":{"ha":589,"x_min":-14,"x_max":616,"o":"m 436 358 q 476 346 460 358 q 397 172 429 231 q 603 111 494 111 q 616 97 616 111 l 616 0 q 603 -14 616 -14 q 345 82 451 -14 l 332 63 l 318 46 q 256 21 308 35 q 137 -4 205 6 q 0 -14 70 -14 q -14 0 -14 -14 l -14 97 q 0 111 -14 111 q 271 149 217 111 q 309 192 288 160 q 357 279 330 224 l 386 332 q 436 358 401 358 m 294 -222 q 197 -334 256 -277 q 88 -234 130 -282 q 194 -124 120 -205 q 294 -222 208 -140 m 540 -199 q 442 -311 503 -253 q 334 -210 378 -262 q 439 -100 363 -184 q 540 -199 454 -117 z "},"ي":{"ha":1010,"x_min":111,"x_max":954,"o":"m 895 -92 q 808 -81 853 -84 q 622 -50 682 -71 q 531 17 562 -29 q 500 135 500 63 q 555 310 500 214 q 687 474 610 406 q 828 542 765 542 q 906 510 876 542 q 954 400 937 477 l 896 383 q 873 404 884 399 q 843 408 863 408 q 736 363 800 408 q 622 254 671 318 q 558 129 572 190 q 626 92 583 106 q 738 68 669 77 q 869 38 825 55 q 932 -8 912 22 q 953 -90 953 -37 q 864 -256 953 -164 q 647 -410 776 -349 q 407 -472 518 -472 q 189 -392 267 -472 q 111 -165 111 -311 q 117 -76 111 -115 q 143 46 123 -38 l 203 32 q 184 -85 184 -38 q 244 -272 184 -205 q 411 -338 304 -338 q 590 -303 488 -338 q 778 -211 691 -269 q 895 -92 865 -152 m 575 -674 q 478 -785 538 -729 q 370 -686 411 -734 q 475 -576 401 -656 q 575 -674 490 -591 m 821 -651 q 724 -762 785 -705 q 616 -662 660 -713 q 721 -552 644 -636 q 821 -651 736 -568 z "},"ﻲ":{"ha":1122,"x_min":111,"x_max":1150,"o":"m 1132 -14 q 1003 -5 1078 -14 q 879 16 928 3 l 1026 -64 q 1057 -103 1050 -79 q 1064 -160 1064 -128 q 972 -307 1064 -233 q 739 -426 880 -380 q 463 -472 597 -472 q 203 -392 294 -472 q 111 -165 111 -311 q 117 -76 111 -115 q 143 46 123 -38 l 203 32 q 184 -85 184 -38 q 259 -270 184 -203 q 467 -338 334 -338 q 805 -291 659 -338 q 1006 -161 951 -243 l 973 -143 q 715 28 715 -4 q 726 73 715 47 q 751 118 736 98 q 771 138 766 138 l 774 138 q 1132 111 918 111 q 1150 93 1150 111 l 1150 3 q 1132 -14 1150 -14 m 647 -674 q 550 -785 610 -729 q 441 -686 483 -734 q 547 -576 473 -656 q 647 -674 562 -591 m 893 -651 q 795 -762 857 -705 q 688 -662 732 -713 q 793 -552 716 -636 q 893 -651 808 -568 z "},"ی":{"ha":1010,"x_min":111,"x_max":954,"o":"m 895 -92 q 808 -81 853 -84 q 622 -50 682 -71 q 531 17 562 -29 q 500 135 500 63 q 555 310 500 214 q 687 474 610 406 q 828 542 765 542 q 906 510 876 542 q 954 400 937 477 l 896 383 q 873 404 884 399 q 843 408 863 408 q 736 363 800 408 q 622 254 671 318 q 558 129 572 190 q 626 92 583 106 q 738 68 669 77 q 869 38 825 55 q 932 -8 912 22 q 953 -90 953 -37 q 864 -256 953 -164 q 647 -410 776 -349 q 407 -472 518 -472 q 189 -392 267 -472 q 111 -165 111 -311 q 117 -76 111 -115 q 143 46 123 -38 l 203 32 q 184 -85 184 -38 q 244 -272 184 -205 q 411 -338 304 -338 q 590 -303 488 -338 q 778 -211 691 -269 q 895 -92 865 -152 z "},"ﯾ":{"ha":561,"x_min":-14,"x_max":478,"o":"m 0 -14 q -14 0 -14 -14 l -14 97 q 0 111 -14 111 q 140 117 58 111 q 290 137 222 123 q 400 171 358 151 q 341 350 380 243 q 310 460 310 434 q 340 534 310 497 q 416 597 370 572 q 434 503 424 550 q 455 410 445 456 q 471 322 465 365 q 478 243 478 280 q 421 77 478 191 q 234 11 352 35 q 0 -14 115 -14 m 206 -222 q 109 -334 169 -277 q 1 -234 42 -282 q 106 -124 33 -205 q 206 -222 121 -140 m 452 -199 q 355 -311 416 -253 q 247 -210 291 -262 q 352 -100 275 -184 q 452 -199 367 -117 z "},"ﯿ":{"ha":589,"x_min":-14,"x_max":616,"o":"m 436 358 q 476 346 460 358 q 397 172 429 231 q 603 111 494 111 q 616 97 616 111 l 616 0 q 603 -14 616 -14 q 345 82 451 -14 l 332 63 l 318 46 q 256 21 308 35 q 137 -4 205 6 q 0 -14 70 -14 q -14 0 -14 -14 l -14 97 q 0 111 -14 111 q 271 149 217 111 q 309 192 288 160 q 357 279 330 224 l 386 332 q 436 358 401 358 m 294 -222 q 197 -334 256 -277 q 88 -234 130 -282 q 194 -124 120 -205 q 294 -222 208 -140 m 540 -199 q 442 -311 503 -253 q 334 -210 378 -262 q 439 -100 363 -184 q 540 -199 454 -117 z "},"ﯽ":{"ha":1122,"x_min":111,"x_max":1150,"o":"m 1132 -14 q 1003 -5 1078 -14 q 879 16 928 3 l 1026 -64 q 1057 -103 1050 -79 q 1064 -160 1064 -128 q 972 -307 1064 -233 q 739 -426 880 -380 q 463 -472 597 -472 q 203 -392 294 -472 q 111 -165 111 -311 q 117 -76 111 -115 q 143 46 123 -38 l 203 32 q 184 -85 184 -38 q 259 -270 184 -203 q 467 -338 334 -338 q 805 -291 659 -338 q 1006 -161 951 -243 l 973 -143 q 715 28 715 -4 q 726 73 715 47 q 751 118 736 98 q 771 138 766 138 l 774 138 q 1132 111 918 111 q 1150 93 1150 111 l 1150 3 q 1132 -14 1150 -14 z "},"ۓ":{"ha":1303,"x_min":134,"x_max":1257,"o":"m 686 -14 q 437 -1 566 -14 q 220 32 307 11 q 134 72 134 52 q 152 171 134 101 q 186 257 171 241 q 321 349 241 311 q 415 383 344 359 q 507 417 484 407 q 553 450 530 427 q 591 500 576 473 l 642 472 q 585 364 618 402 q 498 310 551 326 q 330 251 381 275 q 208 179 279 227 q 415 126 298 142 q 707 111 531 111 q 977 132 833 111 q 1234 186 1121 152 q 1257 133 1257 159 q 1205 63 1257 92 q 992 10 1154 34 q 686 -14 831 -14 m 418 747 l 420 755 q 412 772 420 764 q 393 781 405 781 q 338 760 366 781 q 298 703 310 738 q 397 663 330 663 q 496 676 433 663 l 492 597 q 351 552 401 572 q 238 498 300 531 l 234 577 q 273 601 252 590 q 314 623 294 612 q 239 705 239 637 q 261 780 239 743 q 320 843 283 818 q 391 867 357 867 q 450 848 429 867 q 471 791 471 829 q 467 763 471 780 q 457 736 463 746 l 418 747 z "},"ﮱ":{"ha":838,"x_min":56,"x_max":956,"o":"m 134 -175 q 507 -222 296 -222 q 932 -184 727 -222 q 956 -241 956 -213 q 927 -297 956 -274 q 853 -326 897 -320 q 496 -347 715 -347 q 291 -331 391 -347 q 123 -291 190 -315 q 56 -249 56 -267 q 72 -174 56 -228 q 98 -113 88 -121 q 398 57 218 3 q 857 111 577 111 q 874 93 874 111 l 874 3 q 857 -14 874 -14 q 561 -30 698 -14 q 324 -82 425 -46 q 134 -175 223 -117 m 371 349 l 372 357 q 365 375 372 366 q 346 384 357 384 q 290 362 318 384 q 250 306 262 340 q 349 265 282 265 q 449 279 385 265 l 444 199 q 303 154 354 175 q 191 100 253 134 l 186 180 q 226 203 205 193 q 267 226 247 214 q 192 308 192 239 q 214 383 192 345 q 272 445 235 420 q 343 470 309 470 q 403 451 382 470 q 424 394 424 431 q 419 366 424 382 q 410 338 415 349 l 371 349 z "},"ئ":{"ha":1010,"x_min":111,"x_max":954,"o":"m 895 -92 q 808 -81 853 -84 q 622 -50 682 -71 q 531 17 562 -29 q 500 135 500 63 q 555 310 500 214 q 687 474 610 406 q 828 542 765 542 q 906 510 876 542 q 954 400 937 477 l 896 383 q 873 404 884 399 q 843 408 863 408 q 736 363 800 408 q 622 254 671 318 q 558 129 572 190 q 626 92 583 106 q 738 68 669 77 q 869 38 825 55 q 932 -8 912 22 q 953 -90 953 -37 q 864 -256 953 -164 q 647 -410 776 -349 q 407 -472 518 -472 q 189 -392 267 -472 q 111 -165 111 -311 q 117 -76 111 -115 q 143 46 123 -38 l 203 32 q 184 -85 184 -38 q 244 -272 184 -205 q 411 -338 304 -338 q 590 -303 488 -338 q 778 -211 691 -269 q 895 -92 865 -152 m 379 446 l 380 454 q 373 472 380 463 q 354 481 366 481 q 298 459 326 481 q 258 403 271 437 q 357 362 290 362 q 457 376 393 362 l 452 296 q 312 251 362 272 q 199 197 261 231 l 195 277 q 234 300 213 290 q 275 323 255 311 q 200 405 200 336 q 222 480 200 442 q 280 542 243 517 q 351 567 317 567 q 411 548 390 567 q 432 491 432 528 q 428 463 432 479 q 418 435 423 446 l 379 446 z "},"ﺋ":{"ha":450,"x_min":-14,"x_max":367,"o":"m 0 -14 q -14 0 -14 -14 l -14 97 q 0 111 -14 111 q 151 127 73 111 q 289 171 230 143 q 230 350 269 243 q 199 460 199 434 q 229 534 199 497 q 306 597 258 572 q 323 503 313 550 q 343 410 334 456 q 360 322 353 365 q 367 243 367 280 q 310 77 367 191 q 0 -14 159 -14 m 278 876 l 279 884 q 272 902 279 893 q 253 911 264 911 q 197 889 225 911 q 157 833 170 867 q 256 792 189 792 q 356 806 292 792 l 351 726 q 211 681 261 702 q 98 627 160 661 l 94 707 q 133 730 112 720 q 174 753 154 741 q 99 835 99 766 q 121 910 99 872 q 179 972 142 947 q 250 997 216 997 q 310 978 289 997 q 331 921 331 958 q 327 892 331 909 q 317 865 322 876 l 278 876 z "},"ﺌ":{"ha":478,"x_min":-14,"x_max":505,"o":"m 0 -14 q -14 0 -14 -14 l -14 97 q 0 111 -14 111 q 115 126 70 111 q 182 170 159 141 q 246 279 205 199 l 275 332 q 325 358 289 358 q 366 346 349 358 q 286 172 320 236 q 492 111 382 111 q 505 97 505 111 l 505 0 q 492 -14 505 -14 q 233 82 340 -14 l 220 63 l 207 46 q 163 19 197 34 q 87 -5 130 4 q 0 -14 45 -14 m 279 677 l 281 685 q 273 703 281 694 q 254 711 266 711 q 199 690 227 711 q 159 633 171 668 q 258 593 191 593 q 357 606 294 593 l 353 527 q 212 482 262 503 q 99 428 161 461 l 95 507 q 134 531 113 520 q 175 553 155 542 q 100 635 100 567 q 122 710 100 673 q 181 773 144 748 q 252 798 218 798 q 311 778 290 798 q 332 722 332 759 q 328 693 332 710 q 318 666 323 676 l 279 677 z "},"ﺊ":{"ha":1122,"x_min":111,"x_max":1150,"o":"m 1132 -14 q 1003 -5 1078 -14 q 879 16 928 3 l 1026 -64 q 1057 -103 1050 -79 q 1064 -160 1064 -128 q 972 -307 1064 -233 q 739 -426 880 -380 q 463 -472 597 -472 q 203 -392 294 -472 q 111 -165 111 -311 q 117 -76 111 -115 q 143 46 123 -38 l 203 32 q 184 -85 184 -38 q 259 -270 184 -203 q 467 -338 334 -338 q 805 -291 659 -338 q 1006 -161 951 -243 l 973 -143 q 715 28 715 -4 q 726 73 715 47 q 751 118 736 98 q 771 138 766 138 l 774 138 q 1132 111 918 111 q 1150 93 1150 111 l 1150 3 q 1132 -14 1150 -14 m 505 331 l 506 339 q 498 357 506 348 q 479 366 491 366 q 424 344 452 366 q 384 288 396 322 q 483 247 416 247 q 583 260 519 247 l 578 181 q 437 136 488 157 q 324 82 387 115 l 320 161 q 359 185 338 174 q 400 208 380 196 q 326 290 326 221 q 347 365 326 327 q 406 427 369 402 q 477 452 443 452 q 536 432 515 452 q 557 376 557 413 q 553 347 557 364 q 543 320 549 330 l 505 331 z "},"ﻷ":{"ha":846,"x_min":56,"x_max":762,"o":"m 224 -14 q 220 3 220 -14 q 229 73 220 35 q 244 111 238 111 l 278 111 q 417 224 380 191 q 484 291 454 258 q 541 358 515 323 q 196 647 381 538 l 136 643 q 74 717 92 684 q 57 785 57 751 q 67 832 57 809 q 113 873 78 856 q 363 670 221 798 q 587 437 505 541 q 619 578 619 507 q 577 918 619 646 q 565 1008 565 991 q 675 1111 565 1090 q 683 1082 679 1095 q 733 917 686 1068 l 689 879 q 701 611 701 659 q 637 367 701 486 q 762 125 762 159 q 743 58 762 98 q 711 14 724 17 q 224 -14 551 -14 m 697 143 q 595 296 659 214 q 407 114 522 197 q 697 143 583 123 m 241 1171 l 243 1179 q 235 1197 243 1188 q 216 1206 228 1206 q 159 1183 185 1206 q 120 1128 132 1160 q 220 1087 153 1087 q 319 1101 256 1087 l 315 1021 q 176 978 226 998 q 60 922 126 958 l 56 1002 q 96 1025 75 1015 q 137 1048 117 1036 q 62 1130 62 1061 q 83 1205 62 1167 q 142 1267 105 1242 q 214 1292 178 1292 q 273 1272 253 1292 q 294 1216 294 1253 q 290 1187 294 1204 q 280 1160 286 1171 l 241 1171 z "},"ﻸ":{"ha":997,"x_min":56,"x_max":1025,"o":"m 736 644 q 677 292 707 397 q 424 7 601 28 q 240 -9 313 -5 q 92 -14 168 -12 l 86 43 q 347 118 262 85 q 485 192 432 150 q 187 628 362 462 l 127 628 q 81 686 98 659 q 60 732 64 712 q 56 768 56 752 q 118 859 56 832 q 312 665 216 796 q 464 399 409 534 q 525 228 492 327 q 562 272 536 238 q 663 535 627 361 q 708 991 699 709 q 818 1083 756 1042 q 836 392 828 884 l 840 153 q 1011 111 916 111 q 1025 97 1025 111 l 1025 0 q 1011 -14 1025 -14 q 851 25 915 -14 q 779 129 787 63 q 754 377 763 256 q 736 644 745 498 m 241 1183 l 243 1192 q 235 1209 243 1200 q 216 1218 228 1218 q 159 1195 185 1218 q 120 1141 132 1173 q 220 1099 153 1099 q 319 1113 256 1099 l 315 1034 q 176 990 226 1010 q 60 935 126 970 l 56 1014 q 96 1038 75 1027 q 137 1060 117 1048 q 62 1142 62 1074 q 83 1217 62 1179 q 142 1279 105 1255 q 214 1304 178 1304 q 273 1284 253 1304 q 294 1228 294 1265 q 290 1200 294 1217 q 280 1173 286 1183 l 241 1183 z "},"ﻹ":{"ha":846,"x_min":57,"x_max":762,"o":"m 224 -14 q 220 3 220 -14 q 229 73 220 35 q 244 111 238 111 l 278 111 q 417 224 380 191 q 484 291 454 258 q 541 358 515 323 q 196 647 381 538 l 136 643 q 74 717 92 684 q 57 785 57 751 q 67 832 57 809 q 113 873 78 856 q 363 670 221 798 q 587 437 505 541 q 619 578 619 507 q 577 918 619 646 q 565 1008 565 991 q 675 1111 565 1090 q 683 1082 679 1095 q 733 917 686 1068 l 689 879 q 701 611 701 659 q 637 367 701 486 q 762 125 762 159 q 743 58 762 98 q 711 14 724 17 q 224 -14 551 -14 m 697 143 q 595 296 659 214 q 407 114 522 197 q 697 143 583 123 m 625 -189 l 627 -180 q 619 -163 627 -172 q 600 -154 612 -154 q 543 -177 569 -154 q 504 -231 516 -199 q 604 -273 536 -273 q 703 -259 640 -273 l 699 -338 q 560 -382 610 -362 q 444 -437 510 -402 l 440 -358 q 480 -334 459 -345 q 521 -312 501 -323 q 446 -230 446 -298 q 467 -155 446 -193 q 526 -93 489 -117 q 597 -68 562 -68 q 657 -87 637 -68 q 677 -144 677 -107 q 673 -172 677 -155 q 664 -199 669 -189 l 625 -189 z "},"ﻺ":{"ha":997,"x_min":56,"x_max":1025,"o":"m 736 644 q 677 292 707 397 q 424 7 601 28 q 240 -9 313 -5 q 92 -14 168 -12 l 86 43 q 347 118 262 85 q 485 192 432 150 q 187 628 362 462 l 127 628 q 81 686 98 659 q 60 732 64 712 q 56 768 56 752 q 118 859 56 832 q 312 665 216 796 q 464 399 409 534 q 525 228 492 327 q 562 272 536 238 q 663 535 627 361 q 708 991 699 709 q 818 1083 756 1042 q 836 392 828 884 l 840 153 q 1011 111 916 111 q 1025 97 1025 111 l 1025 0 q 1011 -14 1025 -14 q 851 25 915 -14 q 779 129 787 63 q 754 377 763 256 q 736 644 745 498 m 664 -161 l 665 -153 q 658 -135 665 -144 q 639 -126 650 -126 q 581 -149 608 -126 q 543 -203 555 -172 q 642 -245 575 -245 q 741 -231 679 -245 l 737 -311 q 598 -354 648 -334 q 483 -410 549 -374 l 479 -330 q 519 -307 498 -317 q 559 -284 540 -296 q 484 -202 484 -271 q 506 -127 484 -165 q 564 -65 528 -90 q 636 -40 601 -40 q 696 -60 675 -40 q 716 -116 716 -79 q 712 -144 716 -127 q 703 -172 708 -161 l 664 -161 z "},"ﻵ":{"ha":916,"x_min":56,"x_max":831,"o":"m 293 -14 q 289 3 289 -14 q 298 73 289 35 q 313 111 307 111 l 347 111 q 486 224 449 191 q 553 291 523 258 q 610 358 584 323 q 265 647 450 538 l 205 643 q 143 717 161 684 q 126 785 126 751 q 137 832 126 809 q 182 873 147 856 q 432 670 290 798 q 656 437 574 541 q 688 578 688 507 q 646 918 688 646 q 634 1008 634 991 q 744 1111 634 1090 q 752 1082 748 1095 q 802 917 755 1068 l 758 879 q 770 611 770 659 q 707 367 770 486 q 831 125 831 159 q 812 58 831 98 q 781 14 793 17 q 293 -14 621 -14 m 766 143 q 664 296 728 214 q 476 114 591 197 q 766 143 652 123 m 391 964 q 179 1008 296 964 q 81 960 125 985 l 56 1003 q 191 1101 174 1101 q 279 1084 203 1101 q 399 1067 355 1067 q 485 1078 435 1067 q 564 1105 534 1090 l 581 1060 q 488 993 544 1021 q 391 964 431 964 z "},"ﻶ":{"ha":997,"x_min":56,"x_max":1025,"o":"m 736 644 q 677 292 707 397 q 424 7 601 28 q 240 -9 313 -5 q 92 -14 168 -12 l 86 43 q 347 118 262 85 q 485 192 432 150 q 187 628 362 462 l 127 628 q 81 686 98 659 q 60 732 64 712 q 56 768 56 752 q 118 859 56 832 q 312 665 216 796 q 464 399 409 534 q 525 228 492 327 q 562 272 536 238 q 663 535 627 361 q 708 991 699 709 q 818 1083 756 1042 q 836 392 828 884 l 840 153 q 1011 111 916 111 q 1025 97 1025 111 l 1025 0 q 1011 -14 1025 -14 q 851 25 915 -14 q 779 129 787 63 q 754 377 763 256 q 736 644 745 498 m 458 930 q 246 975 363 930 q 148 926 193 951 l 123 969 q 258 1067 241 1067 q 347 1050 271 1067 q 466 1033 422 1033 q 552 1044 502 1033 q 631 1071 602 1056 l 648 1026 q 555 959 611 987 q 458 930 498 930 z "},"ۂ":{"ha":694,"x_min":111,"x_max":722,"o":"m 704 -14 q 609 -1 649 -14 q 538 32 568 12 q 487 74 509 52 q 447 116 465 96 q 413 149 429 136 q 376 161 396 161 q 282 120 336 161 q 154 -14 229 79 l 111 24 q 431 293 294 293 q 493 271 463 293 q 559 202 524 248 q 629 134 593 157 q 704 111 664 111 q 722 94 722 111 l 722 4 q 704 -14 722 -14 m 374 601 l 375 609 q 368 627 375 618 q 349 635 360 635 q 293 614 321 635 q 253 557 265 592 q 352 517 285 517 q 452 530 388 517 l 447 451 q 306 406 357 427 q 193 352 256 385 l 189 431 q 229 455 208 444 q 269 477 250 466 q 195 559 195 491 q 216 634 195 597 q 275 697 238 672 q 346 722 312 722 q 406 702 385 722 q 427 646 427 683 q 422 617 427 634 q 412 590 418 600 l 374 601 z "},"ﮦ":{"ha":667,"x_min":111,"x_max":583,"o":"m 111 192 q 271 503 111 350 l 264 509 q 231 576 231 530 q 244 624 231 602 q 275 653 256 646 q 421 565 350 629 q 538 419 493 500 q 583 273 583 338 q 546 140 583 225 q 472 32 508 56 q 311 -14 405 -14 q 164 42 217 -14 q 111 192 111 98 m 503 189 q 318 468 469 348 q 222 350 258 412 q 186 240 186 289 q 223 149 186 181 q 329 117 260 117 q 418 137 368 117 q 503 189 468 158 z "},"ۃ":{"ha":694,"x_min":111,"x_max":722,"o":"m 704 -14 q 609 -1 649 -14 q 538 32 568 12 q 487 74 509 52 q 447 116 465 96 q 413 149 429 136 q 376 161 396 161 q 282 120 336 161 q 154 -14 229 79 l 111 24 q 431 293 294 293 q 493 271 463 293 q 559 202 524 248 q 629 134 593 157 q 704 111 664 111 q 722 94 722 111 l 722 4 q 704 -14 722 -14 m 349 554 q 252 443 311 499 q 143 543 184 494 q 249 652 175 572 q 349 554 263 637 m 595 577 q 497 466 558 524 q 389 566 433 515 q 494 676 418 592 q 595 577 509 660 z "},"ﮫ":{"ha":789,"x_min":28,"x_max":817,"o":"m 664 319 q 586 129 664 205 q 355 14 508 52 q 484 -222 379 -111 q 513 -90 496 -139 q 557 -6 530 -40 q 621 56 584 27 q 702 98 659 84 q 799 111 745 111 q 817 94 817 111 l 817 4 q 799 -14 817 -14 q 676 -19 717 -14 q 608 -36 635 -24 q 578 -155 585 -90 q 572 -296 572 -220 l 457 -371 q 307 -207 364 -300 q 237 -8 249 -113 q 148 -22 193 -15 q 52 -46 102 -29 l 28 3 q 239 104 104 69 q 325 386 252 252 q 557 679 398 521 l 614 661 q 644 485 618 597 q 664 319 664 391 m 519 514 q 392 293 428 382 q 351 118 356 203 q 469 146 418 126 q 575 204 520 166 l 560 287 q 531 425 539 380 q 519 514 522 471 z "},"ﮬ":{"ha":829,"x_min":-14,"x_max":746,"o":"m 0 -14 q -14 0 -14 -14 l -14 100 q 0 111 -14 111 q 187 132 106 111 q 86 325 86 219 q 105 427 86 372 q 157 524 124 481 q 231 587 191 567 l 268 694 q 517 574 407 654 q 686 390 627 494 q 746 176 746 286 q 663 -43 746 100 q 300 58 452 -18 q 161 3 234 20 q 0 -14 89 -14 m 144 326 q 310 191 217 248 q 392 364 392 254 q 362 451 392 410 q 296 492 332 492 q 239 470 270 492 q 183 412 208 449 q 144 326 158 375 m 488 359 q 404 143 488 235 q 659 77 515 94 q 602 295 659 182 q 453 488 545 409 q 488 359 488 427 z "},"ﮭ":{"ha":636,"x_min":0,"x_max":664,"o":"m 530 -24 q 600 -78 575 -47 q 624 -140 624 -109 q 602 -224 624 -165 q 568 -296 579 -283 q 511 -332 551 -317 q 431 -347 470 -347 q 223 -272 304 -347 q 122 -57 142 -196 l 60 -83 l 43 -12 l 26 -14 l 14 -14 q 0 0 0 -14 l 0 97 q 14 111 0 111 q 121 115 64 111 q 427 677 151 416 l 485 661 q 514 469 490 587 q 534 313 534 363 q 401 98 534 184 q 646 111 505 111 q 664 94 664 111 l 664 4 q 646 -14 664 -14 q 530 -24 577 -14 m 390 514 q 292 359 323 420 q 241 234 260 298 q 220 109 222 171 q 440 205 341 124 l 426 288 q 390 514 396 442 m 293 -14 q 229 -24 270 -14 q 307 -177 251 -123 q 444 -232 363 -232 q 505 -220 474 -232 q 553 -189 536 -208 q 499 -103 540 -144 q 404 -38 459 -62 q 293 -14 349 -14 z "},"۰":{"ha":514,"x_min":125,"x_max":389,"o":"m 125 342 q 173 430 151 387 q 224 513 195 473 q 343 436 297 471 q 389 383 389 401 q 298 229 389 361 q 125 342 208 296 z "},"۱":{"ha":517,"x_min":125,"x_max":392,"o":"m 125 794 q 147 857 125 826 q 214 914 169 887 q 344 596 296 765 q 392 298 392 427 q 370 -14 392 146 l 307 1 q 290 286 303 184 q 244 497 277 388 q 139 747 211 606 q 125 794 125 772 z "},"۲":{"ha":675,"x_min":125,"x_max":633,"o":"m 125 795 q 148 858 125 827 q 214 914 170 889 q 298 730 261 828 q 406 700 341 700 q 518 755 477 700 q 568 913 559 811 l 633 900 q 407 562 633 562 q 350 575 381 562 q 392 298 392 411 q 388 170 392 232 q 370 -14 385 109 l 307 1 q 290 297 303 201 q 242 502 276 394 q 139 747 208 610 q 125 795 125 772 z "},"۳":{"ha":781,"x_min":125,"x_max":739,"o":"m 125 795 q 214 914 125 864 q 298 729 259 831 q 390 700 338 700 q 460 729 438 700 q 482 823 482 759 q 478 897 482 854 l 526 914 q 550 771 550 828 l 550 761 q 596 751 572 751 q 649 781 631 751 q 668 865 668 810 q 665 911 668 890 l 732 904 q 739 818 739 853 q 700 672 739 728 q 597 615 661 615 q 519 637 560 615 q 406 562 481 562 q 347 575 378 562 q 389 298 389 418 q 370 -14 389 138 l 307 1 q 289 291 303 187 q 239 507 275 395 q 139 747 203 620 q 125 795 125 773 z "},"۹":{"ha":701,"x_min":72,"x_max":607,"o":"m 511 -16 q 425 251 452 134 q 396 494 397 369 q 307 476 351 476 q 133 529 193 476 q 72 682 72 581 q 105 800 72 737 q 189 903 138 863 q 286 943 239 943 q 430 859 382 943 q 477 599 477 774 q 607 87 477 349 l 511 -16 m 354 614 q 389 618 370 614 q 245 800 366 800 q 175 774 207 800 q 143 722 143 748 q 173 667 143 692 q 252 628 202 642 q 354 614 302 614 z "},"۷":{"ha":713,"x_min":14,"x_max":699,"o":"m 334 -14 q 236 293 273 189 q 151 500 199 397 q 24 751 104 604 q 14 786 14 768 q 94 911 14 852 q 259 560 171 792 q 380 161 348 328 q 486 568 414 357 q 629 911 558 779 l 699 794 q 535 425 595 588 q 421 52 475 261 q 334 -14 374 14 z "},"۸":{"ha":713,"x_min":14,"x_max":699,"o":"m 379 911 q 513 508 458 647 q 689 146 568 370 q 699 111 699 130 q 677 46 699 80 q 618 -14 655 13 q 515 185 572 58 q 404 473 458 313 q 330 734 350 632 q 226 329 297 541 q 83 -14 155 118 l 14 103 q 181 481 122 320 q 292 846 239 643 q 379 911 339 884 z "},"ﹰ":{"ha":0,"x_min":-60,"x_max":336,"o":"m 334 884 l 336 862 q 289 789 336 811 q -39 669 172 734 l -29 757 q 334 884 144 808 m 310 1025 l 312 1003 q 302 960 312 983 q 265 926 292 938 q -60 817 139 873 l -53 899 q 310 1025 136 956 z "},"ﹲ":{"ha":0,"x_min":-125,"x_max":319,"o":"m 24 646 q -4 663 20 646 q -28 685 -28 681 l -26 692 q -20 739 -20 722 q -25 762 -20 755 q -39 770 -31 770 q -62 763 -48 770 q -107 742 -76 757 l -125 762 q -64 824 -92 805 q -18 843 -37 843 q 22 822 9 843 q 35 770 35 801 q 26 715 35 743 q 151 771 104 734 q 96 811 117 786 q 74 869 74 837 q 92 929 74 900 q 138 977 110 959 q 193 996 167 996 q 244 961 224 996 q 264 864 264 926 q 256 811 264 832 q 319 807 287 807 q 296 763 316 775 q 236 751 277 751 l 208 754 q 107 677 163 709 q 24 646 52 646 m 123 899 q 203 823 123 848 q 212 860 212 840 q 200 911 212 891 q 168 930 188 930 q 138 920 153 930 q 123 899 123 909 z "},"ﹴ":{"ha":0,"x_min":-60,"x_max":336,"o":"m 334 -244 l 336 -266 q 289 -339 336 -317 q -39 -458 172 -394 l -29 -371 q 334 -244 144 -319 m 310 -103 l 312 -125 q 302 -168 312 -145 q 265 -201 292 -190 q -60 -311 139 -255 l -53 -229 q 310 -103 136 -172 z "},"ﹶ":{"ha":0,"x_min":-39,"x_max":336,"o":"m 334 896 l 336 874 q 289 802 336 823 q -39 682 172 747 l -29 770 q 334 896 184 836 z "},"ﹸ":{"ha":0,"x_min":-71,"x_max":292,"o":"m -71 694 q 25 721 -27 701 q 122 771 77 741 q 68 810 91 785 q 46 869 46 835 q 64 929 46 900 q 111 977 82 959 q 165 996 139 996 q 216 961 197 996 q 236 864 236 926 q 227 811 236 838 q 292 807 260 807 q 269 763 288 775 q 208 751 249 751 l 196 751 l 183 753 q 83 673 137 705 q -11 642 29 642 q -55 655 -39 642 q -71 694 -71 669 m 96 899 q 175 823 96 848 q 184 860 184 840 q 172 911 184 891 q 140 930 160 930 q 110 920 125 930 q 96 899 96 909 z "},"ﹺ":{"ha":0,"x_min":-39,"x_max":336,"o":"m 334 -143 l 336 -165 q 289 -237 336 -216 q -39 -357 172 -292 l -29 -269 q 334 -143 184 -203 z "},"ﹼ":{"ha":0,"x_min":-47,"x_max":292,"o":"m 258 950 q 282 886 273 921 q 292 827 292 852 q 263 747 292 783 q 192 711 235 711 q 158 719 176 711 q 127 742 139 726 q 88 689 113 707 q 36 671 63 671 q -24 694 -1 671 q -47 761 -47 717 q -42 800 -47 776 q -25 846 -37 824 l 3 840 q -4 791 -4 811 q 40 741 -4 741 q 75 755 61 741 q 89 796 89 770 l 86 860 l 129 888 q 144 820 136 839 q 167 791 153 801 q 205 781 182 781 q 228 788 217 781 q 241 803 238 795 q 212 878 236 827 q 209 894 209 886 q 223 928 209 911 q 258 950 238 945 z "},"ﹾ":{"ha":0,"x_min":18,"x_max":229,"o":"m 119 693 q 46 727 73 693 q 18 810 18 762 q 33 879 18 849 q 73 926 48 909 q 122 943 98 943 q 173 926 148 943 q 214 879 199 909 q 229 808 229 848 q 195 727 229 761 q 119 693 161 693 m 187 808 q 177 833 187 817 q 150 860 166 850 q 111 871 134 871 q 76 856 92 871 q 60 821 60 842 q 76 781 60 796 q 123 766 93 766 q 167 781 147 766 q 187 808 187 795 z "},"ﱞ":{"ha":0,"x_min":-181,"x_max":292,"o":"m 258 950 q 282 886 273 921 q 292 827 292 852 q 263 747 292 783 q 192 711 235 711 q 158 719 176 711 q 127 742 139 726 q 88 689 113 707 q 36 671 63 671 q -24 694 -1 671 q -47 761 -47 717 q -42 800 -47 776 q -25 846 -37 824 l 3 840 q -4 791 -4 811 q 40 741 -4 741 q 75 755 61 741 q 89 796 89 770 l 86 860 l 129 888 q 144 820 136 839 q 167 791 153 801 q 205 781 182 781 q 228 788 217 781 q 241 803 238 795 q 212 878 236 827 q 209 894 209 886 q 223 928 209 911 q 258 950 238 945 m -33 922 q -60 940 -37 922 q -84 962 -84 958 l -83 968 q -76 1016 -76 999 q -82 1039 -76 1031 q -95 1046 -87 1046 q -118 1040 -104 1046 q -163 1019 -132 1034 l -181 1039 q -121 1101 -149 1082 q -75 1120 -93 1120 q -34 1099 -47 1120 q -22 1046 -22 1078 q -30 992 -22 1020 q 95 1048 47 1010 q 39 1088 61 1063 q 18 1146 18 1114 q 36 1206 18 1177 q 82 1254 54 1236 q 137 1272 111 1272 q 188 1237 168 1272 q 208 1141 208 1202 q 199 1088 208 1109 q 263 1084 231 1084 q 240 1040 260 1052 q 180 1028 220 1028 l 152 1031 q 51 954 106 985 q -33 922 -5 922 m 67 1175 q 146 1100 67 1125 q 156 1137 156 1117 q 144 1187 156 1168 q 112 1207 132 1207 q 82 1196 96 1207 q 67 1175 67 1185 z "},"ﱟ":{"ha":0,"x_min":-47,"x_max":374,"o":"m 258 950 q 282 886 273 921 q 292 827 292 852 q 263 747 292 783 q 192 711 235 711 q 158 719 176 711 q 127 742 139 726 q 88 689 113 707 q 36 671 63 671 q -24 694 -1 671 q -47 761 -47 717 q -42 800 -47 776 q -25 846 -37 824 l 3 840 q -4 791 -4 811 q 40 741 -4 741 q 75 755 61 741 q 89 796 89 770 l 86 860 l 129 888 q 144 820 136 839 q 167 791 153 801 q 205 781 182 781 q 228 788 217 781 q 241 803 238 795 q 212 878 236 827 q 209 894 209 886 q 223 928 209 911 q 258 950 238 945 m 372 553 l 374 532 q 328 458 374 481 q 0 339 210 404 l 9 427 q 372 553 183 478 m 349 694 l 351 673 q 341 630 351 652 q 304 596 331 608 q -21 486 178 543 l -14 568 q 349 694 174 625 z "},"ﱠ":{"ha":0,"x_min":-109,"x_max":292,"o":"m 258 950 q 282 886 273 921 q 292 827 292 852 q 263 747 292 783 q 192 711 235 711 q 158 719 176 711 q 127 742 139 726 q 88 689 113 707 q 36 671 63 671 q -24 694 -1 671 q -47 761 -47 717 q -42 800 -47 776 q -25 846 -37 824 l 3 840 q -4 791 -4 811 q 40 741 -4 741 q 75 755 61 741 q 89 796 89 770 l 86 860 l 129 888 q 144 820 136 839 q 167 791 153 801 q 205 781 182 781 q 228 788 217 781 q 241 803 238 795 q 212 878 236 827 q 209 894 209 886 q 223 928 209 911 q 258 950 238 945 m 264 1105 l 266 1084 q 219 1011 266 1032 q -109 892 102 956 l -99 979 q 264 1105 114 1046 z "},"ﱡ":{"ha":0,"x_min":-113,"x_max":292,"o":"m 258 950 q 282 886 273 921 q 292 827 292 852 q 263 747 292 783 q 192 711 235 711 q 158 719 176 711 q 127 742 139 726 q 88 689 113 707 q 36 671 63 671 q -24 694 -1 671 q -47 761 -47 717 q -42 800 -47 776 q -25 846 -37 824 l 3 840 q -4 791 -4 811 q 40 741 -4 741 q 75 755 61 741 q 89 796 89 770 l 86 860 l 129 888 q 144 820 136 839 q 167 791 153 801 q 205 781 182 781 q 228 788 217 781 q 241 803 238 795 q 212 878 236 827 q 209 894 209 886 q 223 928 209 911 q 258 950 238 945 m -113 977 q -17 1003 -69 983 q 80 1053 35 1023 q 26 1092 49 1067 q 4 1152 4 1117 q 22 1212 4 1182 q 68 1259 40 1241 q 123 1278 97 1278 q 174 1243 155 1278 q 194 1146 194 1208 q 184 1093 194 1120 q 250 1089 218 1089 q 227 1045 246 1057 q 166 1034 207 1034 l 154 1034 l 141 1035 q 41 956 95 987 q -53 924 -13 924 q -97 938 -81 924 q -113 977 -113 951 m 54 1181 q 133 1105 54 1131 q 142 1142 142 1122 q 130 1193 142 1173 q 98 1213 118 1213 q 68 1202 83 1213 q 54 1181 54 1191 z "},"ﱢ":{"ha":0,"x_min":-47,"x_max":341,"o":"m 258 950 q 282 886 273 921 q 292 827 292 852 q 263 747 292 783 q 192 711 235 711 q 158 719 176 711 q 127 742 139 726 q 88 689 113 707 q 36 671 63 671 q -24 694 -1 671 q -47 761 -47 717 q -42 800 -47 776 q -25 846 -37 824 l 3 840 q -4 791 -4 811 q 40 741 -4 741 q 75 755 61 741 q 89 796 89 770 l 86 860 l 129 888 q 144 820 136 839 q 167 791 153 801 q 205 781 182 781 q 228 788 217 781 q 241 803 238 795 q 212 878 236 827 q 209 894 209 886 q 223 928 209 911 q 258 950 238 945 m 339 682 l 341 661 q 294 588 341 609 q -33 469 177 533 l -24 556 q 339 682 189 623 z "},"ﱣ":{"ha":0,"x_min":-47,"x_max":292,"o":"m 258 950 q 282 886 273 921 q 292 827 292 852 q 263 747 292 783 q 192 711 235 711 q 158 719 176 711 q 127 742 139 726 q 88 689 113 707 q 36 671 63 671 q -24 694 -1 671 q -47 761 -47 717 q -42 800 -47 776 q -25 846 -37 824 l 3 840 q -4 791 -4 811 q 40 741 -4 741 q 75 755 61 741 q 89 796 89 770 l 86 860 l 129 888 q 144 820 136 839 q 167 791 153 801 q 205 781 182 781 q 228 788 217 781 q 241 803 238 795 q 212 878 236 827 q 209 894 209 886 q 223 928 209 911 q 258 950 238 945 m 102 1337 q 123 1200 118 1255 q 129 1074 129 1145 q 83 924 129 986 l 73 926 q 43 1198 73 1079 q 37 1238 37 1221 q 55 1299 37 1272 q 102 1337 73 1326 z "},"ٲ":{"ha":389,"x_min":-60,"x_max":341,"o":"m 261 758 q 271 437 271 483 l 271 378 q 260 0 271 258 l 184 -14 q 174 354 182 208 l 171 425 q 140 844 163 590 l 138 867 q 164 948 138 918 q 247 990 191 979 q 276 888 262 928 l 305 796 l 261 758 m 132 1105 q 165 1111 150 1105 q 107 1153 126 1130 q 89 1208 89 1176 q 112 1281 89 1244 q 172 1342 135 1317 q 236 1367 208 1367 q 289 1348 269 1367 q 308 1294 308 1329 q 304 1266 308 1284 q 297 1239 301 1249 l 261 1249 l 262 1255 q 254 1274 262 1266 q 237 1282 246 1282 q 188 1260 215 1282 q 146 1210 161 1239 q 199 1173 165 1189 q 260 1157 233 1157 q 341 1177 297 1157 l 337 1101 q 219 1045 279 1067 q 130 1023 159 1023 q 80 1040 109 1023 q 36 1055 52 1055 q -31 1014 6 1055 l -60 1036 q -12 1095 -42 1067 q 41 1122 19 1122 q 76 1115 46 1122 l 83 1114 q 132 1105 111 1105 z "},"ٳ":{"ha":425,"x_min":-39,"x_max":362,"o":"m 250 851 q 260 530 260 576 q 248 0 260 273 l 174 -14 q 159 476 170 213 q 129 937 147 740 l 127 960 q 154 1041 127 1010 q 236 1083 180 1072 q 265 981 252 1021 l 294 889 l 250 851 m 153 -336 q 186 -330 171 -336 q 129 -288 147 -311 q 110 -233 110 -265 q 133 -160 110 -197 q 193 -99 156 -124 q 257 -75 229 -75 q 310 -94 290 -75 q 329 -147 329 -113 q 326 -175 329 -157 q 318 -202 322 -192 l 282 -193 l 283 -186 q 275 -167 283 -175 q 258 -159 267 -159 q 209 -181 236 -159 q 167 -231 182 -202 q 220 -268 186 -252 q 281 -284 254 -284 q 362 -264 318 -284 l 358 -340 q 240 -396 300 -374 q 151 -418 180 -418 q 101 -401 130 -418 q 57 -386 73 -386 q -9 -427 27 -386 l -39 -405 q 9 -346 -21 -374 q 62 -319 40 -319 q 97 -326 67 -319 l 104 -328 q 153 -336 132 -336 z "},"ٵ":{"ha":389,"x_min":125,"x_max":611,"o":"m 248 758 q 258 437 258 483 l 258 378 q 247 0 258 258 l 172 -14 q 161 354 169 208 l 158 425 q 127 844 151 590 l 125 867 q 152 948 125 918 q 234 990 178 979 q 263 888 250 928 l 292 796 l 248 758 m 534 1061 l 535 1069 q 528 1087 535 1078 q 509 1096 520 1096 q 451 1073 477 1096 q 412 1019 425 1050 q 512 977 445 977 q 611 991 549 977 l 607 911 q 468 868 518 888 q 353 812 418 848 l 349 892 q 389 916 368 905 q 429 938 410 926 q 354 1020 354 951 q 376 1095 354 1057 q 434 1157 397 1133 q 506 1182 471 1182 q 566 1162 545 1182 q 586 1106 586 1143 q 582 1078 586 1095 q 572 1050 578 1061 l 534 1061 z "},"ٶ":{"ha":889,"x_min":56,"x_max":806,"o":"m 315 -347 q 182 -314 261 -347 q 56 -243 102 -281 l 79 -189 q 278 -220 169 -220 q 487 -148 399 -220 q 621 66 574 -75 l 619 73 l 619 79 q 400 -14 523 -14 q 251 44 307 -14 q 196 197 196 101 q 229 361 196 281 q 316 492 262 441 q 427 542 371 542 q 553 480 494 542 q 647 317 612 419 q 682 118 682 215 q 630 -110 682 1 q 495 -284 578 -222 q 315 -347 412 -347 m 439 119 q 522 127 486 119 q 604 157 557 136 q 518 334 576 265 q 401 403 461 403 q 335 378 368 403 q 280 314 302 354 q 258 243 258 275 q 306 151 258 183 q 439 119 353 119 m 728 846 l 730 854 q 722 872 730 863 q 703 881 715 881 q 646 858 672 881 q 607 804 619 836 q 707 762 640 762 q 806 776 743 762 l 802 696 q 663 653 713 673 q 547 597 613 633 l 543 677 q 583 701 562 690 q 624 723 604 711 q 549 805 549 736 q 570 880 549 842 q 629 942 592 918 q 701 967 665 967 q 760 947 740 967 q 781 891 781 928 q 777 863 781 880 q 767 836 772 846 l 728 846 z "},"ٷ":{"ha":909,"x_min":56,"x_max":826,"o":"m 336 -347 q 203 -314 282 -347 q 77 -243 123 -281 l 100 -189 q 299 -220 190 -220 q 508 -148 420 -220 q 642 66 595 -75 l 640 73 l 640 79 q 421 -14 544 -14 q 272 44 328 -14 q 217 197 217 101 q 250 361 217 281 q 337 492 283 441 q 448 542 392 542 q 574 480 515 542 q 668 317 633 419 q 703 118 703 215 q 651 -110 703 1 q 516 -284 600 -222 q 336 -347 433 -347 m 460 119 q 543 127 507 119 q 625 157 578 136 q 539 334 597 265 q 422 403 482 403 q 356 378 389 403 q 301 314 323 354 q 279 243 279 275 q 327 151 279 183 q 460 119 374 119 m 56 595 q 151 622 99 602 q 248 672 203 642 q 195 711 217 686 q 172 770 172 736 q 190 830 172 801 q 237 878 208 860 q 292 897 265 897 q 342 862 323 897 q 362 765 362 827 q 353 712 362 739 q 418 708 386 708 q 395 664 414 676 q 334 652 375 652 l 322 652 l 309 654 q 209 574 263 606 q 115 543 155 543 q 72 556 87 543 q 56 595 56 570 m 222 800 q 301 724 222 749 q 311 761 311 741 q 298 812 311 792 q 267 831 286 831 q 236 821 251 831 q 222 800 222 810 m 749 846 l 750 854 q 743 872 750 863 q 724 881 735 881 q 666 858 692 881 q 627 804 640 836 q 727 762 660 762 q 826 776 764 762 l 822 696 q 683 653 733 673 q 568 597 633 633 l 564 677 q 604 701 583 690 q 644 723 625 711 q 569 805 569 736 q 591 880 569 842 q 649 942 612 918 q 721 967 686 967 q 781 947 760 967 q 801 891 801 928 q 797 863 801 880 q 787 836 793 846 l 749 846 z "},"ٸ":{"ha":1010,"x_min":111,"x_max":954,"o":"m 895 -92 q 808 -81 853 -84 q 622 -50 682 -71 q 531 17 562 -29 q 500 135 500 63 q 555 310 500 214 q 687 474 610 406 q 828 542 765 542 q 906 510 876 542 q 954 400 937 477 l 896 383 q 873 404 884 399 q 843 408 863 408 q 736 363 800 408 q 622 254 671 318 q 558 129 572 190 q 626 92 583 106 q 738 68 669 77 q 869 38 825 55 q 932 -8 912 22 q 953 -90 953 -37 q 864 -256 953 -164 q 647 -410 776 -349 q 407 -472 518 -472 q 189 -392 267 -472 q 111 -165 111 -311 q 117 -76 111 -115 q 143 46 123 -38 l 203 32 q 184 -85 184 -38 q 244 -272 184 -205 q 411 -338 304 -338 q 590 -303 488 -338 q 778 -211 691 -269 q 895 -92 865 -152 m 750 791 l 751 799 q 744 817 751 808 q 725 825 736 825 q 667 803 694 825 q 629 748 641 780 q 728 707 661 707 q 827 720 765 707 l 823 641 q 685 597 734 617 q 569 542 635 577 l 565 621 q 605 645 584 634 q 646 667 626 656 q 570 749 570 681 q 592 824 570 787 q 650 887 614 862 q 722 911 687 911 q 782 892 762 911 q 802 836 802 872 q 798 807 802 824 q 789 780 794 790 l 750 791 z "},"ٺ":{"ha":1261,"x_min":112,"x_max":1179,"o":"m 704 600 q 607 488 667 545 q 498 588 540 540 q 604 698 530 617 q 704 600 618 682 m 673 873 q 576 762 636 818 q 468 862 508 814 q 574 971 504 895 q 673 873 588 956 m 511 -14 q 213 58 315 -14 q 112 265 112 129 q 134 444 112 372 l 193 444 q 189 411 191 437 q 186 364 186 385 q 224 215 186 269 q 342 136 262 161 q 545 111 421 111 q 840 141 696 111 q 1101 227 985 172 q 1042 406 1081 299 q 1010 515 1010 490 q 1040 590 1010 553 q 1118 653 1070 627 q 1135 558 1124 606 q 1155 466 1145 511 q 1172 378 1165 420 q 1179 298 1179 336 q 1122 132 1179 246 q 853 23 1008 60 q 511 -14 698 -14 z "},"ٻ":{"ha":1261,"x_min":112,"x_max":1179,"o":"m 830 -509 q 733 -621 793 -564 q 625 -520 665 -568 q 730 -411 661 -488 q 830 -509 745 -427 m 800 -236 q 703 -347 763 -289 q 594 -247 635 -295 q 700 -137 626 -218 q 751 -190 727 -167 q 800 -236 776 -213 m 511 -14 q 213 58 315 -14 q 112 265 112 129 q 134 444 112 372 l 193 444 q 189 411 191 437 q 186 364 186 385 q 224 215 186 269 q 342 136 262 161 q 545 111 421 111 q 840 141 696 111 q 1101 227 985 172 q 1042 406 1081 299 q 1010 515 1010 490 q 1040 590 1010 553 q 1118 653 1070 627 q 1135 558 1124 606 q 1155 466 1145 511 q 1172 378 1165 420 q 1179 298 1179 336 q 1122 132 1179 246 q 853 23 1008 60 q 511 -14 698 -14 z "},"ټ":{"ha":1261,"x_min":112,"x_max":1179,"o":"m 511 -14 q 213 58 315 -14 q 112 265 112 129 q 134 444 112 372 l 193 444 q 189 411 191 437 q 186 364 186 385 q 224 215 186 269 q 342 136 262 161 q 545 111 421 111 q 840 141 696 111 q 1101 227 985 172 q 1042 406 1081 299 q 1010 515 1010 490 q 1040 590 1010 553 q 1118 653 1070 627 q 1135 558 1124 606 q 1155 466 1145 511 q 1172 378 1165 420 q 1179 298 1179 336 q 1122 132 1179 246 q 853 23 1008 60 q 511 -14 698 -14 m 603 652 q 506 541 566 597 q 397 640 439 592 q 503 750 429 669 q 603 652 517 734 m 849 675 q 751 564 812 621 q 644 664 688 612 q 749 774 672 690 q 849 675 764 758 m 675 -184 q 601 -150 629 -184 q 574 -67 574 -115 q 589 2 574 -28 q 628 50 604 33 q 677 66 653 66 q 729 49 703 66 q 769 2 754 32 q 785 -68 785 -28 q 751 -150 785 -116 q 675 -184 717 -184 m 743 -68 q 732 -43 743 -60 q 706 -17 722 -27 q 667 -6 690 -6 q 631 -21 648 -6 q 615 -56 615 -35 q 632 -96 615 -81 q 679 -111 648 -111 q 723 -96 703 -111 q 743 -68 743 -81 z "},"ٽ":{"ha":1261,"x_min":112,"x_max":1179,"o":"m 511 -14 q 213 58 315 -14 q 112 265 112 129 q 134 444 112 372 l 193 444 q 189 411 191 437 q 186 364 186 385 q 224 215 186 269 q 342 136 262 161 q 545 111 421 111 q 840 141 696 111 q 1101 227 985 172 q 1042 406 1081 299 q 1010 515 1010 490 q 1040 590 1010 553 q 1118 653 1070 627 q 1135 558 1124 606 q 1155 466 1145 511 q 1172 378 1165 420 q 1179 298 1179 336 q 1122 132 1179 246 q 853 23 1008 60 q 511 -14 698 -14 m 600 621 q 503 510 562 566 q 394 610 434 562 q 500 720 441 653 q 600 621 514 704 m 859 645 q 762 534 822 590 q 654 633 695 585 q 760 743 690 667 q 859 645 774 728 m 740 442 q 646 352 675 372 q 543 442 584 394 q 640 542 597 492 q 690 487 659 517 q 740 442 722 456 z "},"ٿ":{"ha":1261,"x_min":112,"x_max":1179,"o":"m 511 -14 q 213 58 315 -14 q 112 265 112 129 q 134 444 112 372 l 193 444 q 189 411 191 437 q 186 364 186 385 q 224 215 186 269 q 342 136 262 161 q 545 111 421 111 q 840 141 696 111 q 1101 227 985 172 q 1042 406 1081 299 q 1010 515 1010 490 q 1040 590 1010 553 q 1118 653 1070 627 q 1135 558 1124 606 q 1155 466 1145 511 q 1172 378 1165 420 q 1179 298 1179 336 q 1122 132 1179 246 q 853 23 1008 60 q 511 -14 698 -14 m 618 533 q 521 422 581 478 q 412 522 454 473 q 518 631 444 551 q 618 533 532 616 m 864 556 q 766 445 827 503 q 659 545 703 494 q 764 655 687 571 q 864 556 779 639 m 576 797 q 479 686 540 743 q 371 785 413 736 q 476 895 399 811 q 576 797 487 884 m 822 820 q 725 709 785 767 q 616 809 658 761 q 722 919 648 838 l 774 867 l 822 820 z "},"ڀ":{"ha":1261,"x_min":112,"x_max":1179,"o":"m 763 -510 q 665 -621 728 -562 q 557 -521 600 -570 q 663 -411 586 -495 q 763 -510 677 -427 m 1008 -486 q 911 -597 971 -541 q 803 -497 846 -547 q 909 -387 835 -468 q 960 -440 936 -417 q 1008 -486 985 -463 m 721 -245 q 624 -357 684 -300 q 515 -257 557 -305 q 621 -147 547 -228 q 721 -245 635 -163 m 967 -222 q 869 -334 930 -276 q 762 -233 806 -285 q 867 -123 790 -208 q 967 -222 882 -140 m 511 -14 q 213 58 315 -14 q 112 265 112 129 q 134 444 112 372 l 193 444 q 189 411 191 437 q 186 364 186 385 q 224 215 186 269 q 342 136 262 161 q 545 111 421 111 q 840 141 696 111 q 1101 227 985 172 q 1042 406 1081 299 q 1010 515 1010 490 q 1040 590 1010 553 q 1118 653 1070 627 q 1135 558 1124 606 q 1155 466 1145 511 q 1172 378 1165 420 q 1179 298 1179 336 q 1122 132 1179 246 q 853 23 1008 60 q 511 -14 698 -14 z "},"ځ":{"ha":1039,"x_min":111,"x_max":1011,"o":"m 222 -54 q 266 -201 222 -138 q 399 -301 310 -264 q 593 -338 489 -338 q 800 -326 705 -338 q 993 -292 895 -314 l 1011 -347 q 785 -444 886 -416 q 589 -472 683 -472 q 276 -361 388 -472 q 164 -54 164 -250 q 269 251 164 111 q 543 457 374 391 l 478 479 q 314 517 370 517 q 173 477 237 517 l 135 453 q 118 480 125 463 q 111 517 111 497 q 166 616 111 579 q 309 653 221 653 q 428 639 363 653 q 583 596 494 625 q 868 539 758 539 l 894 539 l 975 542 l 929 416 q 833 410 886 410 q 529 326 680 397 q 300 156 378 255 q 222 -54 222 58 m 628 968 l 629 977 q 622 994 629 985 q 603 1003 614 1003 q 545 980 572 1003 q 507 926 519 958 q 606 884 539 884 q 705 898 643 884 l 701 819 q 563 775 612 795 q 447 720 513 755 l 443 799 q 483 823 462 812 q 524 845 504 833 q 448 927 448 859 q 470 1002 448 964 q 528 1064 492 1040 q 600 1089 565 1089 q 660 1069 640 1089 q 680 1013 680 1050 q 676 985 680 1002 q 667 958 672 968 l 628 968 z "},"ڂ":{"ha":1039,"x_min":111,"x_max":1011,"o":"m 222 -54 q 266 -201 222 -138 q 399 -301 310 -264 q 593 -338 489 -338 q 800 -326 705 -338 q 993 -292 895 -314 l 1011 -347 q 785 -444 886 -416 q 589 -472 683 -472 q 276 -361 388 -472 q 164 -54 164 -250 q 269 251 164 111 q 543 457 374 391 l 478 479 q 314 517 370 517 q 173 477 237 517 l 135 453 q 118 480 125 463 q 111 517 111 497 q 166 616 111 579 q 309 653 221 653 q 428 639 363 653 q 583 596 494 625 q 868 539 758 539 l 894 539 l 975 542 l 929 416 q 833 410 886 410 q 529 326 680 397 q 300 156 378 255 q 222 -54 222 58 m 636 846 q 539 735 599 791 q 431 835 472 787 q 536 945 463 864 q 636 846 551 929 m 606 1120 q 509 1008 568 1065 q 400 1109 440 1061 q 506 1218 436 1141 q 606 1120 520 1202 z "},"ڃ":{"ha":1039,"x_min":111,"x_max":1011,"o":"m 222 -54 q 266 -201 222 -138 q 399 -301 310 -264 q 593 -338 489 -338 q 800 -326 705 -338 q 993 -292 895 -314 l 1011 -347 q 785 -444 886 -416 q 589 -472 683 -472 q 276 -361 388 -472 q 164 -54 164 -250 q 269 251 164 111 q 543 457 374 391 l 478 479 q 314 517 370 517 q 173 477 237 517 l 135 453 q 118 480 125 463 q 111 517 111 497 q 166 616 111 579 q 309 653 221 653 q 428 639 363 653 q 583 596 494 625 q 868 539 758 539 l 894 539 l 975 542 l 929 416 q 833 410 886 410 q 529 326 680 397 q 300 156 378 255 q 222 -54 222 58 m 615 -26 q 518 -138 578 -81 q 410 -38 451 -86 q 515 72 441 -9 q 615 -26 530 56 m 861 -3 q 764 -114 826 -55 q 656 -14 698 -64 q 761 96 684 12 q 861 -3 776 79 z "},"ڄ":{"ha":1124,"x_min":111,"x_max":1096,"o":"m 210 -471 q 177 -360 190 -421 q 164 -253 164 -298 q 220 -17 164 -124 q 379 168 276 91 q 619 283 482 245 q 540 326 577 304 q 466 366 503 348 q 393 394 430 383 q 314 406 355 406 q 173 366 237 406 l 135 342 q 118 369 125 351 q 111 406 111 386 q 166 505 111 468 q 309 542 221 542 q 437 522 372 542 q 576 460 503 501 q 783 357 718 380 q 925 322 848 333 q 1096 309 1003 312 l 1034 187 q 852 211 913 201 q 635 167 750 208 q 433 64 519 127 q 298 -81 346 1 q 250 -253 250 -163 q 258 -337 250 -294 q 290 -441 267 -379 l 210 -471 m 736 -372 q 639 -484 699 -427 q 530 -383 570 -431 q 636 -274 566 -351 q 736 -372 650 -290 m 705 -99 q 608 -210 669 -152 q 500 -110 541 -158 q 606 0 532 -81 q 657 -53 633 -30 q 705 -99 682 -76 z "},"څ":{"ha":1039,"x_min":111,"x_max":1011,"o":"m 222 -54 q 266 -201 222 -138 q 399 -301 310 -264 q 593 -338 489 -338 q 800 -326 705 -338 q 993 -292 895 -314 l 1011 -347 q 785 -444 886 -416 q 589 -472 683 -472 q 276 -361 388 -472 q 164 -54 164 -250 q 269 251 164 111 q 543 457 374 391 l 478 479 q 314 517 370 517 q 173 477 237 517 l 135 453 q 118 480 125 463 q 111 517 111 497 q 166 616 111 579 q 309 653 221 653 q 428 639 363 653 q 583 596 494 625 q 868 539 758 539 l 894 539 l 975 542 l 929 416 q 833 410 886 410 q 529 326 680 397 q 300 156 378 255 q 222 -54 222 58 m 650 1059 q 555 968 585 989 q 452 1059 496 1009 q 550 1158 489 1091 q 600 1103 568 1134 q 650 1059 631 1073 m 528 876 q 430 764 491 822 q 322 864 364 814 q 427 974 351 890 q 528 876 438 962 m 787 899 q 690 787 751 845 q 582 888 626 836 q 687 998 610 913 q 787 899 702 981 z "},"ڇ":{"ha":1124,"x_min":111,"x_max":1096,"o":"m 210 -471 q 177 -360 190 -421 q 164 -253 164 -298 q 220 -17 164 -124 q 379 168 276 91 q 619 283 482 245 q 540 326 577 304 q 466 366 503 348 q 393 394 430 383 q 314 406 355 406 q 173 366 237 406 l 135 342 q 118 369 125 351 q 111 406 111 386 q 166 505 111 468 q 309 542 221 542 q 437 522 372 542 q 576 460 503 501 q 783 357 718 380 q 925 322 848 333 q 1096 309 1003 312 l 1034 187 q 852 211 913 201 q 635 167 750 208 q 433 64 519 127 q 298 -81 346 1 q 250 -253 250 -163 q 258 -337 250 -294 q 290 -441 267 -379 l 210 -471 m 657 -387 q 559 -497 622 -438 q 452 -397 494 -447 q 557 -288 480 -372 q 657 -387 572 -304 m 903 -363 q 806 -474 865 -418 q 697 -374 740 -424 q 803 -264 729 -345 q 854 -317 830 -294 q 903 -363 879 -340 m 615 -122 q 518 -233 578 -177 q 410 -134 451 -182 q 515 -24 441 -104 q 615 -122 530 -39 m 861 -99 q 764 -210 825 -153 q 656 -110 700 -161 q 761 0 684 -84 q 861 -99 776 -16 z "},"ډ":{"ha":676,"x_min":56,"x_max":607,"o":"m 256 -14 q 106 13 157 -14 q 56 90 56 39 q 63 137 56 114 q 85 176 71 161 q 178 127 125 143 q 307 111 230 111 q 529 144 421 111 q 427 359 502 220 l 397 413 q 363 484 374 454 q 353 545 353 513 q 375 612 353 585 q 439 653 398 640 q 492 524 463 586 q 547 406 522 461 q 590 302 572 350 q 607 216 607 254 q 550 50 607 164 q 256 -14 427 -14 m 339 -188 q 266 -154 293 -188 q 238 -71 238 -119 q 253 -2 238 -32 q 293 45 268 28 q 342 62 317 62 q 393 45 368 62 q 434 -2 418 28 q 449 -73 449 -33 q 415 -154 449 -120 q 339 -188 381 -188 m 407 -73 q 396 -47 407 -64 q 370 -21 386 -31 q 331 -10 354 -10 q 296 -25 312 -10 q 279 -60 279 -39 q 296 -100 279 -85 q 343 -115 313 -115 q 387 -100 367 -115 q 407 -73 407 -85 z "},"ڊ":{"ha":676,"x_min":56,"x_max":607,"o":"m 256 -14 q 106 13 157 -14 q 56 90 56 39 q 63 137 56 114 q 85 176 71 161 q 178 127 125 143 q 307 111 230 111 q 529 144 421 111 q 427 359 502 220 l 397 413 q 363 484 374 454 q 353 545 353 513 q 375 612 353 585 q 439 653 398 640 q 492 524 463 586 q 547 406 522 461 q 590 302 572 350 q 607 216 607 254 q 550 50 607 164 q 256 -14 427 -14 m 446 -235 q 340 -354 411 -287 q 223 -248 267 -298 q 337 -127 296 -176 q 446 -235 393 -189 z "},"ڋ":{"ha":682,"x_min":56,"x_max":612,"o":"m 261 -14 q 112 13 163 -14 q 61 90 61 39 q 69 137 61 114 q 90 176 77 161 q 183 127 131 143 q 313 111 235 111 q 534 144 427 111 q 432 359 507 220 l 403 413 q 369 484 379 454 q 358 545 358 513 q 381 612 358 585 q 444 653 404 640 q 498 524 469 586 q 552 406 527 461 q 595 302 578 350 q 612 216 612 254 q 555 50 612 164 q 261 -14 432 -14 m 453 -235 q 347 -354 418 -287 q 231 -248 275 -298 q 345 -127 303 -176 q 453 -235 401 -189 m 68 899 l 159 884 q 200 937 177 912 l 165 1109 q 150 1197 150 1183 q 176 1231 150 1215 q 235 1253 201 1246 l 258 1182 l 242 1169 q 246 1083 245 1130 q 249 990 247 1037 q 330 1053 291 1030 q 393 1075 368 1075 q 455 1051 421 1075 q 514 992 490 1027 q 538 935 538 958 q 506 850 538 888 q 422 789 475 812 q 315 767 369 767 q 230 775 271 767 q 152 799 189 784 q 56 847 115 813 l 68 899 m 382 974 q 303 948 347 974 q 218 878 259 922 q 319 872 267 872 q 409 880 373 872 q 492 908 446 888 q 445 954 477 935 q 382 974 412 974 z "},"ڌ":{"ha":676,"x_min":56,"x_max":607,"o":"m 256 -14 q 106 13 157 -14 q 56 90 56 39 q 63 137 56 114 q 85 176 71 161 q 178 127 125 143 q 307 111 230 111 q 529 144 421 111 q 427 359 502 220 l 397 413 q 363 484 374 454 q 353 545 353 513 q 375 612 353 585 q 439 653 398 640 q 492 524 463 586 q 547 406 522 461 q 590 302 572 350 q 607 216 607 254 q 550 50 607 164 q 256 -14 427 -14 m 332 856 q 235 745 294 801 q 126 844 168 796 q 232 954 158 873 q 332 856 246 939 m 578 879 q 480 768 541 825 q 372 868 416 817 q 477 978 401 894 q 578 879 492 962 z "},"ڍ":{"ha":676,"x_min":56,"x_max":607,"o":"m 256 -14 q 106 13 157 -14 q 56 90 56 39 q 63 137 56 114 q 85 176 71 161 q 178 127 125 143 q 307 111 230 111 q 529 144 421 111 q 427 359 502 220 l 397 413 q 363 484 374 454 q 353 545 353 513 q 375 612 353 585 q 439 653 398 640 q 492 524 463 586 q 547 406 522 461 q 590 302 572 350 q 607 216 607 254 q 550 50 607 164 q 256 -14 427 -14 m 347 -246 q 250 -357 310 -301 q 142 -258 183 -306 q 248 -148 174 -229 q 347 -246 262 -163 m 593 -223 q 496 -334 558 -275 q 388 -234 430 -283 q 493 -124 416 -208 q 593 -223 508 -140 z "},"ڎ":{"ha":676,"x_min":56,"x_max":607,"o":"m 256 -14 q 106 13 157 -14 q 56 90 56 39 q 63 137 56 114 q 85 176 71 161 q 178 127 125 143 q 307 111 230 111 q 529 144 421 111 q 427 359 502 220 l 397 413 q 363 484 374 454 q 353 545 353 513 q 375 612 353 585 q 439 653 398 640 q 492 524 463 586 q 547 406 522 461 q 590 302 572 350 q 607 216 607 254 q 550 50 607 164 q 256 -14 427 -14 m 446 1038 q 352 947 381 968 q 249 1038 292 988 q 347 1137 286 1070 q 396 1082 365 1113 q 446 1038 428 1052 m 324 854 q 227 743 288 801 q 119 843 161 793 q 224 953 147 869 q 324 854 235 941 m 584 878 q 486 766 547 824 q 378 867 422 815 q 484 977 407 892 q 584 878 498 960 z "},"ڏ":{"ha":676,"x_min":56,"x_max":607,"o":"m 256 -14 q 106 13 157 -14 q 56 90 56 39 q 63 137 56 114 q 85 176 71 161 q 178 127 125 143 q 307 111 230 111 q 529 144 421 111 q 427 359 502 220 l 397 413 q 363 484 374 454 q 353 545 353 513 q 375 612 353 585 q 439 653 398 640 q 492 524 463 586 q 547 406 522 461 q 590 302 572 350 q 607 216 607 254 q 550 50 607 164 q 256 -14 427 -14 m 292 1013 q 195 901 255 958 q 87 1002 127 954 q 193 1111 134 1044 q 292 1013 207 1095 m 552 1036 q 455 925 515 981 q 347 1025 388 977 q 452 1135 383 1059 q 552 1036 467 1119 m 433 833 q 338 743 368 764 q 236 833 277 785 q 333 933 290 883 q 383 878 351 909 q 433 833 414 848 z "},"ڐ":{"ha":676,"x_min":56,"x_max":607,"o":"m 256 -14 q 106 13 157 -14 q 56 90 56 39 q 63 137 56 114 q 85 176 71 161 q 178 127 125 143 q 307 111 230 111 q 529 144 421 111 q 427 359 502 220 l 397 413 q 363 484 374 454 q 353 545 353 513 q 375 612 353 585 q 439 653 398 640 q 492 524 463 586 q 547 406 522 461 q 590 302 572 350 q 607 216 607 254 q 550 50 607 164 q 256 -14 427 -14 m 317 856 q 220 745 280 801 q 112 844 153 796 q 218 954 144 873 q 317 856 232 939 m 564 879 q 466 768 527 825 q 358 868 402 817 q 463 978 387 894 q 564 879 478 962 m 276 1120 q 178 1008 239 1066 q 71 1108 113 1059 q 176 1218 99 1134 q 276 1120 186 1206 m 522 1143 q 425 1032 485 1090 q 316 1132 357 1084 q 422 1242 348 1161 l 473 1190 l 522 1143 z "},"ڒ":{"ha":608,"x_min":-56,"x_max":525,"o":"m 158 -347 q 57 -320 121 -347 q -56 -256 -7 -292 l -33 -201 q 54 -216 24 -213 q 121 -220 85 -220 q 331 -147 243 -220 q 464 66 418 -74 q 435 131 449 104 q 387 217 420 158 q 330 328 356 268 q 304 429 304 388 q 330 496 304 471 q 400 543 355 522 q 446 408 411 499 q 510 218 496 277 q 525 118 525 159 q 477 -117 525 -9 q 345 -286 429 -225 q 158 -347 260 -347 m 308 764 q 348 891 317 816 q 402 998 378 966 q 432 982 419 996 q 446 940 446 968 q 438 913 446 928 q 417 873 431 899 q 385 805 404 847 q 344 697 366 764 q 244 664 302 673 q 171 815 208 741 q 84 958 134 889 l 115 966 q 149 971 133 971 q 196 954 175 971 q 250 881 217 937 q 308 764 283 825 z "},"ړ":{"ha":629,"x_min":-56,"x_max":546,"o":"m 158 -347 q 57 -320 121 -347 q -56 -256 -7 -292 l -33 -201 q 54 -216 24 -213 q 121 -220 85 -220 q 331 -147 243 -220 q 464 66 418 -74 q 435 131 449 104 q 387 217 420 158 q 330 328 356 268 q 304 429 304 388 q 330 496 304 471 q 400 543 355 522 q 446 408 411 499 q 510 218 496 277 q 525 118 525 159 q 477 -117 525 -9 q 345 -286 429 -225 q 158 -347 260 -347 m 436 -408 q 362 -373 390 -408 q 335 -291 335 -339 q 350 -221 335 -252 q 390 -174 365 -191 q 439 -157 414 -157 q 490 -175 465 -157 q 531 -222 515 -192 q 546 -292 546 -252 q 512 -374 546 -340 q 436 -408 478 -408 m 504 -292 q 493 -267 504 -283 q 467 -240 483 -251 q 428 -230 451 -230 q 393 -244 409 -230 q 376 -280 376 -259 q 393 -319 376 -304 q 440 -334 410 -334 q 484 -320 464 -334 q 504 -292 504 -305 z "},"ڔ":{"ha":733,"x_min":-56,"x_max":650,"o":"m 158 -347 q 57 -320 121 -347 q -56 -256 -7 -292 l -33 -201 q 54 -216 24 -213 q 121 -220 85 -220 q 331 -147 243 -220 q 464 66 418 -74 q 435 131 449 104 q 387 217 420 158 q 330 328 356 268 q 304 429 304 388 q 330 496 304 471 q 400 543 355 522 q 446 408 411 499 q 510 218 496 277 q 525 118 525 159 q 477 -117 525 -9 q 345 -286 429 -225 q 158 -347 260 -347 m 650 -352 q 544 -471 615 -404 q 427 -365 471 -415 q 541 -245 500 -294 q 650 -352 597 -307 z "},"ڕ":{"ha":608,"x_min":-56,"x_max":525,"o":"m 158 -347 q 57 -320 121 -347 q -56 -256 -7 -292 l -33 -201 q 54 -216 24 -213 q 121 -220 85 -220 q 331 -147 243 -220 q 464 66 418 -74 q 435 131 449 104 q 387 217 420 158 q 330 328 356 268 q 304 429 304 388 q 330 496 304 471 q 400 543 355 522 q 446 408 411 499 q 510 218 496 277 q 525 118 525 159 q 477 -117 525 -9 q 345 -286 429 -225 q 158 -347 260 -347 m 302 -635 q 342 -508 311 -583 q 397 -401 373 -433 q 427 -417 414 -403 q 440 -459 440 -431 q 433 -486 440 -471 q 412 -526 425 -500 q 379 -594 398 -552 q 338 -702 361 -635 q 239 -735 296 -726 q 165 -584 203 -658 q 79 -441 128 -510 l 109 -433 q 143 -428 127 -428 q 191 -445 170 -428 q 245 -518 212 -462 q 302 -635 278 -574 z "},"ږ":{"ha":705,"x_min":-56,"x_max":622,"o":"m 158 -347 q 57 -320 121 -347 q -56 -256 -7 -292 l -33 -201 q 54 -216 24 -213 q 121 -220 85 -220 q 331 -147 243 -220 q 464 66 418 -74 q 435 131 449 104 q 387 217 420 158 q 330 328 356 268 q 304 429 304 388 q 330 496 304 471 q 400 543 355 522 q 446 408 411 499 q 510 218 496 277 q 525 118 525 159 q 477 -117 525 -9 q 345 -286 429 -225 q 158 -347 260 -347 m 307 119 q 201 0 272 67 q 84 106 128 56 q 198 227 157 178 q 307 119 254 165 m 622 -352 q 516 -471 587 -404 q 399 -365 444 -415 q 513 -245 472 -294 q 622 -352 570 -307 z "},"ڗ":{"ha":624,"x_min":-56,"x_max":541,"o":"m 158 -347 q 57 -320 121 -347 q -56 -256 -7 -292 l -33 -201 q 54 -216 24 -213 q 121 -220 85 -220 q 331 -147 243 -220 q 464 66 418 -74 q 435 131 449 104 q 387 217 420 158 q 330 328 356 268 q 304 429 304 388 q 330 496 304 471 q 400 543 355 522 q 446 408 411 499 q 510 218 496 277 q 525 118 525 159 q 477 -117 525 -9 q 345 -286 429 -225 q 158 -347 260 -347 m 295 743 q 198 632 258 688 q 90 732 131 684 q 195 842 121 761 q 295 743 210 826 m 541 766 q 444 655 505 713 q 336 755 380 704 q 441 865 364 781 q 541 766 456 849 z "},"ڙ":{"ha":610,"x_min":-56,"x_max":527,"o":"m 158 -347 q 57 -320 121 -347 q -56 -256 -7 -292 l -33 -201 q 54 -216 24 -213 q 121 -220 85 -220 q 331 -147 243 -220 q 464 66 418 -74 q 435 131 449 104 q 387 217 420 158 q 330 328 356 268 q 304 429 304 388 q 330 496 304 471 q 400 543 355 522 q 446 408 411 499 q 510 218 496 277 q 525 118 525 159 q 477 -117 525 -9 q 345 -286 429 -225 q 158 -347 260 -347 m 281 743 q 184 632 243 688 q 75 732 117 684 q 181 842 107 761 q 281 743 195 826 m 527 766 q 429 655 490 713 q 321 755 366 704 q 427 865 350 781 q 527 766 441 849 m 239 1007 q 142 896 203 954 q 34 996 76 946 q 139 1105 62 1021 q 239 1007 150 1094 m 485 1030 q 388 920 448 977 q 279 1019 321 971 q 385 1129 311 1048 l 437 1077 l 485 1030 z "},"ښ":{"ha":1655,"x_min":111,"x_max":1572,"o":"m 407 -472 q 189 -392 267 -472 q 111 -165 111 -311 q 117 -76 111 -115 q 143 46 123 -38 l 203 32 q 184 -85 184 -38 q 244 -272 184 -205 q 411 -338 304 -338 q 572 -311 489 -338 q 721 -237 655 -285 q 814 -134 787 -190 q 707 179 707 101 q 814 325 707 264 q 848 127 821 264 q 951 111 899 111 q 1096 127 1044 111 q 1115 174 1105 143 l 1135 241 q 1174 349 1158 317 q 1206 389 1190 381 q 1240 398 1221 397 q 1278 386 1262 398 q 1240 286 1257 341 q 1207 178 1223 231 q 1347 130 1280 144 q 1495 115 1414 115 q 1434 294 1475 187 q 1401 404 1401 378 q 1431 479 1401 441 q 1508 542 1461 516 q 1527 447 1516 494 q 1548 355 1537 400 q 1565 267 1558 309 q 1572 187 1572 224 q 1553 95 1572 157 q 1510 -14 1533 33 q 1329 0 1403 -14 q 1162 57 1255 14 l 1149 31 q 1078 -1 1137 11 q 933 -14 1019 -14 q 871 -8 898 -14 q 875 -72 875 -42 q 812 -262 875 -170 q 638 -413 749 -353 q 407 -472 527 -472 m 1219 661 q 1114 542 1185 609 q 997 648 1041 598 q 1111 768 1066 716 q 1219 661 1164 709 m 1320 -235 q 1214 -354 1285 -287 q 1097 -248 1141 -298 q 1211 -127 1170 -176 q 1320 -235 1267 -189 z "},"ڛ":{"ha":1655,"x_min":111,"x_max":1572,"o":"m 407 -472 q 189 -392 267 -472 q 111 -165 111 -311 q 117 -76 111 -115 q 143 46 123 -38 l 203 32 q 184 -85 184 -38 q 244 -272 184 -205 q 411 -338 304 -338 q 572 -311 489 -338 q 721 -237 655 -285 q 814 -134 787 -190 q 707 179 707 101 q 814 325 707 264 q 848 127 821 264 q 951 111 899 111 q 1096 127 1044 111 q 1115 174 1105 143 l 1135 241 q 1174 349 1158 317 q 1206 389 1190 381 q 1240 398 1221 397 q 1278 386 1262 398 q 1240 286 1257 341 q 1207 178 1223 231 q 1347 130 1280 144 q 1495 115 1414 115 q 1434 294 1475 187 q 1401 404 1401 378 q 1431 479 1401 441 q 1508 542 1461 516 q 1527 447 1516 494 q 1548 355 1537 400 q 1565 267 1558 309 q 1572 187 1572 224 q 1553 95 1572 157 q 1510 -14 1533 33 q 1329 0 1403 -14 q 1162 57 1255 14 l 1149 31 q 1078 -1 1137 11 q 933 -14 1019 -14 q 871 -8 898 -14 q 875 -72 875 -42 q 812 -262 875 -170 q 638 -413 749 -353 q 407 -472 527 -472 m 1185 -259 q 1088 -370 1147 -314 q 979 -270 1022 -320 q 1085 -160 1023 -230 q 1137 -213 1112 -190 q 1185 -259 1161 -236 m 1444 -235 q 1348 -347 1407 -290 q 1239 -246 1279 -294 q 1345 -137 1286 -203 q 1444 -235 1359 -153 m 1325 -438 q 1231 -528 1260 -508 q 1128 -438 1171 -488 q 1225 -338 1161 -408 q 1325 -438 1263 -388 z "},"ڜ":{"ha":1655,"x_min":111,"x_max":1572,"o":"m 407 -472 q 189 -392 267 -472 q 111 -165 111 -311 q 117 -76 111 -115 q 143 46 123 -38 l 203 32 q 184 -85 184 -38 q 244 -272 184 -205 q 411 -338 304 -338 q 572 -311 489 -338 q 721 -237 655 -285 q 814 -134 787 -190 q 707 179 707 101 q 814 325 707 264 q 848 127 821 264 q 951 111 899 111 q 1096 127 1044 111 q 1115 174 1105 143 l 1135 241 q 1174 349 1158 317 q 1206 389 1190 381 q 1240 398 1221 397 q 1278 386 1262 398 q 1240 286 1257 341 q 1207 178 1223 231 q 1347 130 1280 144 q 1495 115 1414 115 q 1434 294 1475 187 q 1401 404 1401 378 q 1431 479 1401 441 q 1508 542 1461 516 q 1527 447 1516 494 q 1548 355 1537 400 q 1565 267 1558 309 q 1572 187 1572 224 q 1553 95 1572 157 q 1510 -14 1533 33 q 1329 0 1403 -14 q 1162 57 1255 14 l 1149 31 q 1078 -1 1137 11 q 933 -14 1019 -14 q 871 -8 898 -14 q 875 -72 875 -42 q 812 -262 875 -170 q 638 -413 749 -353 q 407 -472 527 -472 m 1222 835 q 1128 745 1157 765 q 1025 835 1068 785 q 1122 935 1061 867 q 1172 880 1141 910 q 1222 835 1204 849 m 1100 652 q 1002 541 1063 598 q 895 640 937 591 q 1000 750 923 666 q 1100 652 1010 739 m 1360 675 q 1262 564 1323 621 q 1154 664 1198 612 q 1259 774 1183 690 q 1360 675 1274 758 m 1189 -259 q 1092 -370 1152 -314 q 983 -270 1026 -320 q 1089 -160 1027 -230 q 1141 -213 1116 -190 q 1189 -259 1165 -236 m 1449 -235 q 1352 -347 1411 -290 q 1243 -246 1283 -294 q 1349 -137 1290 -203 q 1449 -235 1363 -153 m 1329 -438 q 1235 -528 1264 -508 q 1132 -438 1175 -488 q 1230 -338 1165 -408 q 1329 -438 1267 -388 z "},"ڝ":{"ha":1790,"x_min":111,"x_max":1707,"o":"m 407 -472 q 189 -392 267 -472 q 111 -165 111 -311 q 117 -76 111 -115 q 143 46 123 -38 l 203 32 q 184 -85 184 -38 q 244 -272 184 -205 q 411 -338 304 -338 q 572 -311 489 -338 q 721 -237 655 -285 q 814 -134 787 -190 q 707 179 707 101 q 814 325 707 264 q 839 172 825 239 q 885 154 847 168 q 1172 463 1036 357 q 1418 570 1308 570 q 1539 528 1468 570 q 1659 430 1611 486 q 1707 332 1707 374 q 1643 155 1707 231 q 1451 32 1579 78 q 1181 -14 1322 -14 q 1023 -2 1114 -14 q 867 28 932 9 q 875 -72 875 -33 q 812 -262 875 -170 q 638 -413 749 -353 q 407 -472 527 -472 m 1378 433 q 1191 356 1300 433 q 960 135 1082 279 q 1197 111 1074 111 q 1418 147 1311 111 q 1633 250 1525 182 q 1516 384 1587 334 q 1378 433 1445 433 m 1304 -236 q 1207 -347 1267 -291 q 1099 -248 1140 -296 q 1204 -138 1131 -218 q 1304 -236 1219 -153 m 1550 -213 q 1453 -323 1515 -264 q 1345 -224 1387 -273 q 1450 -114 1373 -198 q 1550 -213 1465 -130 z "},"ڞ":{"ha":1790,"x_min":111,"x_max":1707,"o":"m 407 -472 q 189 -392 267 -472 q 111 -165 111 -311 q 117 -76 111 -115 q 143 46 123 -38 l 203 32 q 184 -85 184 -38 q 244 -272 184 -205 q 411 -338 304 -338 q 572 -311 489 -338 q 721 -237 655 -285 q 814 -134 787 -190 q 707 179 707 101 q 814 325 707 264 q 839 172 825 239 q 885 154 847 168 q 1172 463 1036 357 q 1418 570 1308 570 q 1539 528 1468 570 q 1659 430 1611 486 q 1707 332 1707 374 q 1643 155 1707 231 q 1451 32 1579 78 q 1181 -14 1322 -14 q 1023 -2 1114 -14 q 867 28 932 9 q 875 -72 875 -33 q 812 -262 875 -170 q 638 -413 749 -353 q 407 -472 527 -472 m 1378 433 q 1191 356 1300 433 q 960 135 1082 279 q 1197 111 1074 111 q 1418 147 1311 111 q 1633 250 1525 182 q 1516 384 1587 334 q 1378 433 1445 433 m 1297 924 q 1203 833 1232 854 q 1100 924 1143 874 q 1198 1023 1137 956 q 1247 968 1216 999 q 1297 924 1279 938 m 1175 741 q 1078 629 1139 687 q 970 729 1012 680 q 1075 839 998 755 q 1175 741 1086 827 m 1435 764 q 1337 652 1398 710 q 1230 753 1274 701 q 1335 863 1258 779 q 1435 764 1350 846 z "},"ڟ":{"ha":1257,"x_min":69,"x_max":1174,"o":"m 647 -14 q 458 -8 579 -14 q 290 12 336 -2 q 187 57 255 22 q 69 127 119 92 l 86 184 q 335 134 271 142 q 428 252 376 189 l 380 532 q 337 802 351 692 q 323 953 323 912 q 348 1040 323 1008 q 431 1083 374 1072 q 460 981 446 1021 l 489 889 l 446 851 q 479 530 454 724 q 494 326 490 415 q 705 507 606 444 q 885 570 804 570 q 1008 527 936 570 q 1127 428 1080 484 q 1174 332 1174 372 q 1111 155 1174 232 q 918 33 1047 79 q 647 -14 789 -14 m 844 433 q 652 353 764 433 q 416 122 540 272 q 664 111 524 111 q 1100 250 878 111 q 983 384 1054 334 q 844 433 912 433 m 896 924 q 802 833 831 854 q 699 924 742 874 q 796 1023 735 956 q 846 968 814 999 q 896 924 878 938 m 774 741 q 676 629 737 687 q 568 729 610 680 q 673 839 597 755 q 774 741 684 827 m 1034 764 q 936 652 997 710 q 828 753 872 701 q 933 863 857 779 q 1034 764 948 846 z "},"ڠ":{"ha":975,"x_min":111,"x_max":1031,"o":"m 608 -472 q 296 -361 408 -472 q 183 -54 183 -250 q 334 302 183 145 q 176 391 240 323 q 111 539 111 459 q 151 688 111 611 q 249 811 190 766 q 372 856 309 856 q 478 829 428 856 q 602 739 528 802 l 572 688 q 478 719 507 712 q 414 725 450 725 q 204 665 314 725 q 278 499 204 565 q 482 422 353 433 q 751 542 605 498 q 770 490 770 519 q 757 445 770 465 q 723 411 744 426 q 644 372 701 396 q 424 254 516 321 q 286 108 331 186 q 241 -54 241 30 q 286 -202 241 -139 q 419 -301 330 -265 q 612 -338 509 -338 q 1013 -292 807 -338 l 1031 -347 q 804 -444 906 -416 q 608 -472 703 -472 m 444 1251 q 349 1161 378 1181 q 246 1251 290 1202 q 344 1351 283 1284 q 394 1296 362 1326 q 444 1251 425 1265 m 321 1068 q 224 957 285 1015 q 116 1057 158 1007 q 221 1166 144 1082 q 321 1068 232 1155 m 581 1091 q 484 980 545 1038 q 376 1080 420 1029 q 481 1190 404 1106 q 581 1091 496 1174 z "},"ڡ":{"ha":1386,"x_min":111,"x_max":1303,"o":"m 524 -14 q 111 265 111 -14 q 134 444 111 372 l 192 444 q 186 364 186 399 q 225 212 186 264 q 348 135 264 159 q 558 111 432 111 q 917 144 720 111 q 1225 227 1114 176 q 1203 354 1215 304 q 971 265 1088 265 q 854 318 900 265 q 808 456 808 371 q 836 611 808 536 q 911 729 864 685 q 1011 772 958 772 q 1159 713 1093 772 q 1264 542 1225 654 q 1303 298 1303 431 q 1246 132 1303 246 q 939 25 1138 64 q 524 -14 741 -14 m 1010 389 q 1182 429 1090 389 q 986 633 1111 633 q 904 589 937 633 q 871 488 871 544 q 904 412 871 436 q 1010 389 938 389 z "},"ڢ":{"ha":1386,"x_min":111,"x_max":1303,"o":"m 524 -14 q 111 265 111 -14 q 134 444 111 372 l 192 444 q 186 364 186 399 q 225 212 186 264 q 348 135 264 159 q 558 111 432 111 q 917 144 720 111 q 1225 227 1114 176 q 1203 354 1215 304 q 971 265 1088 265 q 854 318 900 265 q 808 456 808 371 q 836 611 808 536 q 911 729 864 685 q 1011 772 958 772 q 1159 713 1093 772 q 1264 542 1225 654 q 1303 298 1303 431 q 1246 132 1303 246 q 939 25 1138 64 q 524 -14 741 -14 m 1010 389 q 1182 429 1090 389 q 986 633 1111 633 q 904 589 937 633 q 871 488 871 544 q 904 412 871 436 q 1010 389 938 389 m 1222 -215 q 1116 -334 1187 -267 q 1000 -228 1044 -278 q 1114 -108 1072 -157 q 1222 -215 1170 -170 z "},"ڣ":{"ha":1386,"x_min":111,"x_max":1303,"o":"m 524 -14 q 111 265 111 -14 q 134 444 111 372 l 192 444 q 186 364 186 399 q 225 212 186 264 q 348 135 264 159 q 558 111 432 111 q 917 144 720 111 q 1225 227 1114 176 q 1203 354 1215 304 q 971 265 1088 265 q 854 318 900 265 q 808 456 808 371 q 836 611 808 536 q 911 729 864 685 q 1011 772 958 772 q 1159 713 1093 772 q 1264 542 1225 654 q 1303 298 1303 431 q 1246 132 1303 246 q 939 25 1138 64 q 524 -14 741 -14 m 1010 389 q 1182 429 1090 389 q 986 633 1111 633 q 904 589 937 633 q 871 488 871 544 q 904 412 871 436 q 1010 389 938 389 m 1088 1004 q 982 885 1053 952 q 865 991 909 941 q 979 1111 935 1059 q 1088 1004 1033 1053 m 1222 -215 q 1116 -334 1187 -267 q 1000 -228 1044 -278 q 1114 -108 1072 -157 q 1222 -215 1170 -170 z "},"ڥ":{"ha":1392,"x_min":111,"x_max":1308,"o":"m 524 -14 q 111 265 111 -14 q 134 444 111 372 l 192 444 q 186 364 186 399 q 225 212 186 264 q 348 135 264 159 q 558 111 432 111 q 917 144 720 111 q 1225 227 1114 176 q 1203 354 1215 304 q 971 265 1088 265 q 854 318 900 265 q 808 456 808 371 q 836 611 808 536 q 911 729 864 685 q 1011 772 958 772 q 1159 713 1093 772 q 1264 542 1225 654 q 1303 298 1303 431 q 1246 132 1303 246 q 939 25 1138 64 q 524 -14 741 -14 m 1010 389 q 1182 429 1090 389 q 986 633 1111 633 q 904 589 937 633 q 871 488 871 544 q 904 412 871 436 q 1010 389 938 389 m 1048 -235 q 951 -347 1011 -290 q 843 -246 886 -296 q 949 -136 887 -206 q 1000 -189 976 -166 q 1048 -235 1025 -212 m 1308 -212 q 1211 -323 1271 -267 q 1103 -222 1143 -271 q 1208 -113 1149 -180 q 1308 -212 1223 -129 m 1189 -414 q 1095 -505 1124 -484 q 991 -414 1035 -464 q 1089 -314 1025 -385 q 1189 -414 1127 -364 z "},"ڦ":{"ha":1386,"x_min":111,"x_max":1303,"o":"m 524 -14 q 111 265 111 -14 q 134 444 111 372 l 192 444 q 186 364 186 399 q 225 212 186 264 q 348 135 264 159 q 558 111 432 111 q 917 144 720 111 q 1225 227 1114 176 q 1203 354 1215 304 q 971 265 1088 265 q 854 318 900 265 q 808 456 808 371 q 836 611 808 536 q 911 729 864 685 q 1011 772 958 772 q 1159 713 1093 772 q 1264 542 1225 654 q 1303 298 1303 431 q 1246 132 1303 246 q 939 25 1138 64 q 524 -14 741 -14 m 1010 389 q 1182 429 1090 389 q 986 633 1111 633 q 904 589 937 633 q 871 488 871 544 q 904 412 871 436 q 1010 389 938 389 m 930 958 q 833 846 893 903 q 725 946 766 898 q 831 1056 757 975 q 930 958 845 1040 m 1177 981 q 1079 869 1140 927 q 971 970 1015 918 q 1076 1080 1000 996 q 1177 981 1091 1063 m 889 1221 q 791 1110 852 1168 q 684 1210 726 1160 q 789 1320 712 1236 q 889 1221 800 1308 m 1135 1244 q 1038 1134 1098 1192 q 929 1234 970 1185 q 1035 1343 961 1263 l 1086 1291 l 1135 1244 z "},"ڧ":{"ha":1057,"x_min":111,"x_max":974,"o":"m 890 -127 q 871 83 890 -12 q 759 8 813 30 q 648 -14 705 -14 q 500 43 556 -14 q 444 197 444 100 q 477 361 444 281 q 565 492 510 441 q 675 542 619 542 q 823 474 753 542 q 933 287 892 406 q 974 22 974 167 q 932 -169 974 -80 q 814 -325 890 -258 q 635 -432 738 -391 q 435 -472 532 -472 q 197 -392 282 -472 q 111 -165 111 -311 q 117 -76 111 -115 q 143 46 123 -38 l 203 32 q 184 -85 184 -38 q 250 -273 184 -208 q 439 -338 316 -338 q 617 -310 524 -338 q 782 -235 711 -283 q 890 -127 852 -188 m 688 119 q 852 157 774 119 q 799 287 831 232 q 727 372 766 342 q 650 403 687 403 q 584 378 617 403 q 529 315 551 354 q 507 243 507 275 q 554 151 507 183 q 688 119 602 119 m 705 774 q 600 654 671 722 q 483 761 527 711 q 597 880 552 829 q 705 774 650 822 z "},"ڨ":{"ha":1057,"x_min":111,"x_max":974,"o":"m 890 -127 q 871 83 890 -12 q 759 8 813 30 q 648 -14 705 -14 q 500 43 556 -14 q 444 197 444 100 q 477 361 444 281 q 565 492 510 441 q 675 542 619 542 q 823 474 753 542 q 933 287 892 406 q 974 22 974 167 q 932 -169 974 -80 q 814 -325 890 -258 q 635 -432 738 -391 q 435 -472 532 -472 q 197 -392 282 -472 q 111 -165 111 -311 q 117 -76 111 -115 q 143 46 123 -38 l 203 32 q 184 -85 184 -38 q 250 -273 184 -208 q 439 -338 316 -338 q 617 -310 524 -338 q 782 -235 711 -283 q 890 -127 852 -188 m 688 119 q 852 157 774 119 q 799 287 831 232 q 727 372 766 342 q 650 403 687 403 q 584 378 617 403 q 529 315 551 354 q 507 243 507 275 q 554 151 507 183 q 688 119 602 119 m 713 924 q 618 833 648 854 q 515 924 559 874 q 613 1023 552 956 q 663 968 631 999 q 713 924 694 938 m 591 741 q 493 629 554 687 q 385 729 427 680 q 490 839 414 755 q 591 741 501 827 m 850 764 q 753 652 814 710 q 645 753 689 701 q 750 863 673 779 q 850 764 765 846 z "},"ڪ":{"ha":1658,"x_min":15,"x_max":1575,"o":"m 468 -14 l 427 -14 q 141 2 213 -14 q 42 48 68 17 q 15 122 15 79 l 17 150 q 443 111 198 111 q 1006 123 713 111 q 1514 160 1299 134 q 1435 261 1491 229 q 1284 294 1380 294 q 953 281 1185 294 q 606 268 720 268 q 447 303 496 268 q 399 419 399 338 q 430 542 399 481 q 528 660 461 602 q 687 766 594 719 q 860 833 780 814 q 864 792 864 812 q 845 720 864 750 q 790 675 825 690 q 634 597 722 647 q 502 509 547 547 q 457 449 457 471 q 517 411 457 427 q 635 395 577 395 q 955 406 711 395 q 1280 418 1198 418 q 1430 390 1362 418 q 1536 312 1498 363 q 1575 191 1575 260 q 1540 58 1575 137 q 1025 6 1316 25 q 468 -14 734 -14 z "},"ګ":{"ha":1122,"x_min":111,"x_max":1150,"o":"m 517 111 q 705 121 624 111 q 849 150 786 132 q 985 207 913 169 q 640 528 923 394 q 602 522 625 522 q 530 552 559 522 q 501 628 501 582 q 518 719 501 659 q 545 785 534 779 q 847 936 740 886 q 1125 1055 954 985 q 1144 1027 1138 1044 q 1150 994 1150 1009 l 1149 979 q 1080 897 1141 922 q 561 673 782 774 q 796 575 681 644 q 980 418 911 505 q 1050 254 1050 332 q 912 54 1050 121 q 503 -14 775 -14 q 205 45 300 -14 q 111 216 111 103 q 132 321 111 273 l 191 321 q 184 254 184 300 q 259 145 184 178 q 517 111 334 111 m 917 645 q 843 679 871 645 q 816 762 816 713 q 831 831 816 801 q 870 878 846 861 q 920 895 895 895 q 971 878 945 895 q 1011 830 996 861 q 1027 760 1027 800 q 993 679 1027 713 q 917 645 959 645 m 985 760 q 974 785 985 769 q 948 812 964 802 q 909 823 932 823 q 873 808 890 823 q 857 772 857 793 q 874 733 857 748 q 921 718 890 718 q 965 733 945 718 q 985 760 985 747 z "},"ڬ":{"ha":1101,"x_min":28,"x_max":814,"o":"m 370 -14 q 142 -3 256 -14 q 28 18 28 7 q 37 90 28 48 q 54 144 45 131 q 220 120 122 129 q 400 111 318 111 q 753 143 571 111 q 720 325 737 221 q 669 622 703 429 q 627 953 635 814 q 652 1039 627 1007 q 734 1083 677 1071 q 742 1054 739 1067 q 793 889 746 1040 l 750 851 q 777 590 756 763 q 814 163 814 262 q 797 83 814 118 q 755 14 781 47 q 370 -14 578 -14 m 441 541 l 443 549 q 435 566 443 557 q 416 575 428 575 q 361 554 389 575 q 321 497 334 532 q 421 456 351 456 q 519 469 460 456 l 515 390 q 380 349 433 370 q 261 292 328 328 l 257 371 l 297 394 l 338 416 q 262 498 262 431 q 312 610 262 559 q 414 661 361 661 q 476 639 457 661 q 494 585 494 617 q 481 529 494 556 l 441 541 m 454 864 q 349 745 420 812 q 232 851 276 801 q 346 970 301 919 q 454 864 399 912 z "},"ڭ":{"ha":911,"x_min":28,"x_max":814,"o":"m 370 -14 q 142 -3 256 -14 q 28 18 28 7 q 37 90 28 48 q 54 144 45 131 q 220 120 122 129 q 400 111 318 111 q 753 143 571 111 q 720 325 737 221 q 669 622 703 429 q 627 953 635 814 q 652 1039 627 1007 q 734 1083 677 1071 q 742 1054 739 1067 q 793 889 746 1040 l 750 851 q 777 590 756 763 q 814 163 814 262 q 797 83 814 118 q 755 14 781 47 q 370 -14 578 -14 m 441 541 l 443 549 q 435 566 443 557 q 416 575 428 575 q 361 554 389 575 q 321 497 334 532 q 421 456 351 456 q 519 469 460 456 l 515 390 q 380 349 433 370 q 261 292 328 328 l 257 371 l 297 394 l 338 416 q 262 498 262 431 q 312 610 262 559 q 414 661 361 661 q 476 639 457 661 q 494 585 494 617 q 481 529 494 556 l 441 541 m 423 1038 q 329 947 358 968 q 226 1038 269 988 q 323 1137 262 1070 q 373 1082 342 1113 q 423 1038 405 1052 m 301 854 q 203 743 264 801 q 96 843 138 793 q 201 953 124 869 q 301 854 212 941 m 561 878 q 463 766 524 824 q 355 867 399 815 q 460 977 384 892 q 561 878 475 960 z "},"ڮ":{"ha":911,"x_min":28,"x_max":814,"o":"m 391 -235 q 294 -347 354 -290 q 186 -246 229 -296 q 292 -136 230 -206 q 343 -189 319 -166 q 391 -235 368 -212 m 651 -212 q 554 -323 614 -267 q 446 -222 486 -271 q 551 -113 492 -180 q 651 -212 566 -129 m 532 -414 q 437 -505 467 -484 q 334 -414 378 -464 q 432 -314 368 -385 q 532 -414 470 -364 m 370 -14 q 142 -3 256 -14 q 28 18 28 7 q 37 90 28 48 q 54 144 45 131 q 220 120 122 129 q 400 111 318 111 q 753 143 571 111 q 720 325 737 221 q 669 622 703 429 q 627 953 635 814 q 652 1039 627 1007 q 734 1083 677 1071 q 742 1054 739 1067 q 793 889 746 1040 l 750 851 q 777 590 756 763 q 814 163 814 262 q 797 83 814 118 q 755 14 781 47 q 370 -14 578 -14 m 441 541 l 443 549 q 435 566 443 557 q 416 575 428 575 q 361 554 389 575 q 321 497 334 532 q 421 456 351 456 q 519 469 460 456 l 515 390 q 380 349 433 370 q 261 292 328 328 l 257 371 l 297 394 l 338 416 q 262 498 262 431 q 312 610 262 559 q 414 661 361 661 q 476 639 457 661 q 494 585 494 617 q 481 529 494 556 l 441 541 z "},"ڰ":{"ha":1179,"x_min":111,"x_max":1150,"o":"m 517 111 q 705 121 624 111 q 849 150 786 132 q 985 207 913 169 q 640 528 923 394 q 602 522 625 522 q 530 552 559 522 q 501 628 501 582 q 518 719 501 659 q 545 785 534 779 q 847 936 740 886 q 1125 1055 954 985 q 1144 1027 1138 1044 q 1150 994 1150 1009 l 1149 979 q 1080 897 1141 922 q 561 673 782 774 q 796 575 681 644 q 980 418 911 505 q 1050 254 1050 332 q 912 54 1050 121 q 503 -14 775 -14 q 205 45 300 -14 q 111 216 111 103 q 132 321 111 273 l 191 321 q 184 254 184 300 q 259 145 184 178 q 517 111 334 111 m 917 645 q 843 679 871 645 q 816 762 816 713 q 831 831 816 801 q 870 878 846 861 q 920 895 895 895 q 971 878 945 895 q 1011 830 996 861 q 1027 760 1027 800 q 993 679 1027 713 q 917 645 959 645 m 985 760 q 974 785 985 769 q 948 812 964 802 q 909 823 932 823 q 873 808 890 823 q 857 772 857 793 q 874 733 857 748 q 921 718 890 718 q 965 733 945 718 q 985 760 985 747 m 514 861 q 503 925 503 907 q 506 935 503 933 q 756 1057 544 954 q 1078 1210 968 1159 q 1101 1168 1101 1193 l 1100 1158 q 1060 1114 1093 1128 q 683 942 798 996 q 514 861 568 888 z "},"ڱ":{"ha":1179,"x_min":111,"x_max":1150,"o":"m 517 111 q 705 121 624 111 q 849 150 786 132 q 985 207 913 169 q 640 528 923 394 q 602 522 625 522 q 530 552 559 522 q 501 628 501 582 q 518 719 501 659 q 545 785 534 779 q 847 936 740 886 q 1125 1055 954 985 q 1144 1027 1138 1044 q 1150 994 1150 1009 l 1149 979 q 1080 897 1141 922 q 561 673 782 774 q 796 575 681 644 q 980 418 911 505 q 1050 254 1050 332 q 912 54 1050 121 q 503 -14 775 -14 q 205 45 300 -14 q 111 216 111 103 q 132 321 111 273 l 191 321 q 184 254 184 300 q 259 145 184 178 q 517 111 334 111 m 724 1220 q 656 1142 692 1174 q 581 1213 604 1183 q 654 1289 611 1240 l 690 1253 l 724 1220 m 896 1236 q 828 1158 867 1194 q 753 1228 777 1199 q 827 1306 788 1262 q 896 1236 850 1280 m 511 861 q 500 925 500 907 q 503 935 500 933 q 753 1057 541 954 q 1075 1210 966 1159 q 1098 1168 1098 1193 l 1097 1158 q 1057 1114 1090 1128 q 680 942 795 996 q 511 861 566 888 z "},"ڲ":{"ha":1179,"x_min":111,"x_max":1150,"o":"m 517 111 q 705 121 624 111 q 849 150 786 132 q 985 207 913 169 q 640 528 923 394 q 602 522 625 522 q 530 552 559 522 q 501 628 501 582 q 518 719 501 659 q 545 785 534 779 q 847 936 740 886 q 1125 1055 954 985 q 1144 1027 1138 1044 q 1150 994 1150 1009 l 1149 979 q 1080 897 1141 922 q 561 673 782 774 q 796 575 681 644 q 980 418 911 505 q 1050 254 1050 332 q 912 54 1050 121 q 503 -14 775 -14 q 205 45 300 -14 q 111 216 111 103 q 132 321 111 273 l 191 321 q 184 254 184 300 q 259 145 184 178 q 517 111 334 111 m 511 861 q 500 925 500 907 q 503 935 500 933 q 753 1057 541 954 q 1075 1210 966 1159 q 1098 1168 1098 1193 l 1097 1158 q 1057 1114 1090 1128 q 680 942 795 996 q 511 861 566 888 m 586 -243 q 489 -354 549 -298 q 380 -254 422 -302 q 486 -144 412 -225 q 586 -243 500 -160 m 832 -220 q 734 -330 797 -271 q 627 -231 669 -280 q 732 -121 655 -205 q 832 -220 747 -137 z "},"ڳ":{"ha":1179,"x_min":111,"x_max":1150,"o":"m 517 111 q 705 121 624 111 q 849 150 786 132 q 985 207 913 169 q 640 528 923 394 q 602 522 625 522 q 530 552 559 522 q 501 628 501 582 q 518 719 501 659 q 545 785 534 779 q 847 936 740 886 q 1125 1055 954 985 q 1144 1027 1138 1044 q 1150 994 1150 1009 l 1149 979 q 1080 897 1141 922 q 561 673 782 774 q 796 575 681 644 q 980 418 911 505 q 1050 254 1050 332 q 912 54 1050 121 q 503 -14 775 -14 q 205 45 300 -14 q 111 216 111 103 q 132 321 111 273 l 191 321 q 184 254 184 300 q 259 145 184 178 q 517 111 334 111 m 511 861 q 500 925 500 907 q 503 935 500 933 q 753 1057 541 954 q 1075 1210 966 1159 q 1098 1168 1098 1193 l 1097 1158 q 1057 1114 1090 1128 q 680 942 795 996 q 511 861 566 888 m 730 -493 q 633 -604 693 -548 q 525 -504 565 -552 q 631 -395 561 -471 q 730 -493 645 -410 m 700 -220 q 603 -330 663 -273 q 494 -231 536 -279 q 600 -121 526 -201 q 652 -174 627 -151 q 700 -220 676 -197 z "},"ڴ":{"ha":1179,"x_min":111,"x_max":1150,"o":"m 517 111 q 705 121 624 111 q 849 150 786 132 q 985 207 913 169 q 640 528 923 394 q 602 522 625 522 q 530 552 559 522 q 501 628 501 582 q 518 719 501 659 q 545 785 534 779 q 847 936 740 886 q 1125 1055 954 985 q 1144 1027 1138 1044 q 1150 994 1150 1009 l 1149 979 q 1080 897 1141 922 q 561 673 782 774 q 796 575 681 644 q 980 418 911 505 q 1050 254 1050 332 q 912 54 1050 121 q 503 -14 775 -14 q 205 45 300 -14 q 111 216 111 103 q 132 321 111 273 l 191 321 q 184 254 184 300 q 259 145 184 178 q 517 111 334 111 m 511 861 q 500 925 500 907 q 503 935 500 933 q 753 1057 541 954 q 1075 1210 966 1159 q 1098 1168 1098 1193 l 1097 1158 q 1057 1114 1090 1128 q 680 942 795 996 q 511 861 566 888 m 899 1238 q 831 1160 869 1196 q 754 1231 786 1195 l 793 1270 l 828 1307 l 899 1238 m 717 1222 q 649 1145 695 1187 q 572 1214 607 1175 q 612 1253 592 1232 q 646 1291 631 1275 l 717 1222 m 802 1350 q 736 1286 763 1305 q 664 1350 695 1312 q 732 1419 701 1384 q 802 1350 755 1389 z "},"ڵ":{"ha":972,"x_min":111,"x_max":875,"o":"m 814 -134 q 737 347 783 73 q 682 706 709 513 q 655 953 655 900 q 680 1039 655 1007 q 762 1083 705 1071 q 770 1054 766 1067 q 821 889 774 1040 l 782 856 l 803 675 l 839 346 q 875 -72 875 58 q 812 -262 875 -170 q 638 -413 749 -353 q 407 -472 527 -472 q 189 -392 267 -472 q 111 -165 111 -311 q 117 -76 111 -115 q 143 46 123 -38 l 203 32 q 184 -85 184 -38 q 244 -272 184 -205 q 411 -338 304 -338 q 572 -311 489 -338 q 721 -237 655 -285 q 814 -134 787 -190 m 688 1246 q 727 1373 696 1298 q 782 1480 758 1449 q 812 1464 799 1478 q 825 1422 825 1450 q 818 1395 825 1410 q 797 1355 810 1381 q 765 1288 783 1329 q 724 1179 746 1246 q 624 1146 682 1155 q 551 1297 588 1223 q 464 1440 513 1371 l 494 1448 q 528 1453 513 1453 q 576 1436 555 1453 q 630 1363 597 1419 q 688 1246 663 1308 z "},"ڶ":{"ha":972,"x_min":111,"x_max":875,"o":"m 814 -134 q 737 347 783 73 q 682 706 709 513 q 655 953 655 900 q 680 1039 655 1007 q 762 1083 705 1071 q 770 1054 766 1067 q 821 889 774 1040 l 782 856 l 803 675 l 839 346 q 875 -72 875 58 q 812 -262 875 -170 q 638 -413 749 -353 q 407 -472 527 -472 q 189 -392 267 -472 q 111 -165 111 -311 q 117 -76 111 -115 q 143 46 123 -38 l 203 32 q 184 -85 184 -38 q 244 -272 184 -205 q 411 -338 304 -338 q 572 -311 489 -338 q 721 -237 655 -285 q 814 -134 787 -190 m 791 1305 q 686 1186 757 1253 q 569 1293 613 1242 q 683 1412 638 1360 q 791 1305 736 1354 z "},"ڷ":{"ha":972,"x_min":111,"x_max":875,"o":"m 814 -134 q 737 347 783 73 q 682 706 709 513 q 655 953 655 900 q 680 1039 655 1007 q 762 1083 705 1071 q 770 1054 766 1067 q 821 889 774 1040 l 782 856 l 803 675 l 839 346 q 875 -72 875 58 q 812 -262 875 -170 q 638 -413 749 -353 q 407 -472 527 -472 q 189 -392 267 -472 q 111 -165 111 -311 q 117 -76 111 -115 q 143 46 123 -38 l 203 32 q 184 -85 184 -38 q 244 -272 184 -205 q 411 -338 304 -338 q 572 -311 489 -338 q 721 -237 655 -285 q 814 -134 787 -190 m 850 1270 q 782 1192 821 1227 q 705 1263 737 1227 l 745 1302 l 779 1339 l 850 1270 m 668 1254 q 600 1177 646 1219 q 524 1246 558 1207 q 563 1285 543 1263 q 597 1322 583 1307 l 668 1254 m 753 1382 q 688 1318 714 1337 q 615 1382 646 1344 q 684 1451 652 1416 q 753 1382 707 1421 z "},"ڸ":{"ha":972,"x_min":111,"x_max":875,"o":"m 814 -134 q 737 347 783 73 q 682 706 709 513 q 655 953 655 900 q 680 1039 655 1007 q 762 1083 705 1071 q 770 1054 766 1067 q 821 889 774 1040 l 782 856 l 803 675 l 839 346 q 875 -72 875 58 q 812 -262 875 -170 q 638 -413 749 -353 q 407 -472 527 -472 q 189 -392 267 -472 q 111 -165 111 -311 q 117 -76 111 -115 q 143 46 123 -38 l 203 32 q 184 -85 184 -38 q 244 -272 184 -205 q 411 -338 304 -338 q 572 -311 489 -338 q 721 -237 655 -285 q 814 -134 787 -190 m 602 -675 q 573 -713 593 -689 q 533 -753 552 -736 q 457 -684 481 -712 q 530 -606 498 -645 q 602 -675 555 -633 m 783 -659 q 715 -737 763 -692 q 639 -667 667 -699 q 712 -590 675 -633 q 783 -659 744 -623 m 700 -801 q 633 -865 658 -848 q 561 -801 587 -833 q 629 -731 581 -783 q 700 -801 655 -766 z "},"ڹ":{"ha":958,"x_min":111,"x_max":875,"o":"m 407 -472 q 189 -392 267 -472 q 111 -165 111 -311 q 117 -76 111 -115 q 143 46 123 -38 l 203 32 q 184 -85 184 -38 q 244 -272 184 -205 q 411 -338 304 -338 q 572 -311 489 -338 q 721 -237 655 -285 q 814 -134 787 -190 q 707 179 707 101 q 814 325 707 264 q 832 215 821 267 q 852 113 842 162 q 868 19 861 64 q 875 -72 875 -27 q 812 -262 875 -170 q 638 -413 749 -353 q 407 -472 527 -472 m 755 -646 q 650 -766 721 -699 q 533 -659 577 -709 q 647 -539 606 -588 q 755 -646 703 -601 m 547 348 q 441 229 513 296 q 325 335 369 285 q 439 454 394 403 q 547 348 492 396 z "},"ڻ":{"ha":958,"x_min":111,"x_max":875,"o":"m 407 -472 q 189 -392 267 -472 q 111 -165 111 -311 q 117 -76 111 -115 q 143 46 123 -38 l 203 32 q 184 -85 184 -38 q 244 -272 184 -205 q 411 -338 304 -338 q 572 -311 489 -338 q 721 -237 655 -285 q 814 -134 787 -190 q 707 179 707 101 q 814 325 707 264 q 832 215 821 267 q 852 113 842 162 q 868 19 861 64 q 875 -72 875 -27 q 812 -262 875 -170 q 638 -413 749 -353 q 407 -472 527 -472 m 182 363 l 273 348 q 314 401 291 376 l 279 573 q 264 661 264 648 q 290 695 264 679 q 349 717 315 711 l 372 646 l 356 633 q 360 548 359 594 q 363 454 361 501 q 444 517 405 494 q 507 539 482 539 q 569 515 535 539 q 628 457 604 492 q 652 399 652 422 q 620 314 652 353 q 536 254 589 276 q 429 231 483 231 q 344 240 385 231 q 266 263 303 248 q 170 311 229 277 l 182 363 m 496 438 q 417 412 460 438 q 332 342 373 386 q 433 336 381 336 q 523 345 487 336 q 606 372 559 353 q 559 418 591 399 q 496 438 526 438 z "},"ڼ":{"ha":958,"x_min":111,"x_max":875,"o":"m 407 -472 q 189 -392 267 -472 q 111 -165 111 -311 q 117 -76 111 -115 q 143 46 123 -38 l 203 32 q 184 -85 184 -38 q 244 -272 184 -205 q 411 -338 304 -338 q 572 -311 489 -338 q 721 -237 655 -285 q 814 -134 787 -190 q 707 179 707 101 q 814 325 707 264 q 832 215 821 267 q 852 113 842 162 q 868 19 861 64 q 875 -72 875 -27 q 812 -262 875 -170 q 638 -413 749 -353 q 407 -472 527 -472 m 647 -595 q 573 -561 601 -595 q 546 -479 546 -527 q 561 -409 546 -439 q 601 -362 576 -379 q 650 -345 625 -345 q 701 -362 675 -345 q 742 -410 726 -380 q 757 -480 757 -440 q 723 -562 757 -528 q 647 -595 689 -595 m 715 -480 q 704 -455 715 -471 q 678 -428 694 -439 q 639 -418 662 -418 q 604 -432 620 -418 q 587 -468 587 -447 q 604 -507 587 -492 q 651 -522 621 -522 q 695 -508 675 -522 q 715 -480 715 -493 m 547 348 q 441 229 513 296 q 325 335 369 285 q 439 454 394 403 q 547 348 492 396 z "},"ڽ":{"ha":958,"x_min":111,"x_max":875,"o":"m 407 -472 q 189 -392 267 -472 q 111 -165 111 -311 q 117 -76 111 -115 q 143 46 123 -38 l 203 32 q 184 -85 184 -38 q 244 -272 184 -205 q 411 -338 304 -338 q 572 -311 489 -338 q 721 -237 655 -285 q 814 -134 787 -190 q 707 179 707 101 q 814 325 707 264 q 832 215 821 267 q 852 113 842 162 q 868 19 861 64 q 875 -72 875 -27 q 812 -262 875 -170 q 638 -413 749 -353 q 407 -472 527 -472 m 567 537 q 473 447 502 467 q 370 537 413 488 q 467 637 406 570 q 517 582 486 612 q 567 537 549 551 m 445 354 q 347 243 408 300 q 239 342 281 293 q 345 452 268 368 q 445 354 355 441 m 705 377 q 607 266 668 323 q 499 366 543 315 q 604 476 528 392 q 705 377 619 460 z "},"ڿ":{"ha":1124,"x_min":111,"x_max":1096,"o":"m 210 -471 q 177 -360 190 -421 q 164 -253 164 -298 q 220 -17 164 -124 q 379 168 276 91 q 619 283 482 245 q 540 326 577 304 q 466 366 503 348 q 393 394 430 383 q 314 406 355 406 q 173 366 237 406 l 135 342 q 118 369 125 351 q 111 406 111 386 q 166 505 111 468 q 309 542 221 542 q 437 522 372 542 q 576 460 503 501 q 783 357 718 380 q 925 322 848 333 q 1096 309 1003 312 l 1034 187 q 852 211 913 201 q 635 167 750 208 q 433 64 519 127 q 298 -81 346 1 q 250 -253 250 -163 q 258 -337 250 -294 q 290 -441 267 -379 l 210 -471 m 856 661 q 750 542 821 609 q 633 648 677 598 q 747 768 703 716 q 856 661 801 709 m 673 -157 q 576 -269 636 -212 q 468 -168 511 -218 q 574 -58 512 -128 q 625 -111 601 -88 q 673 -157 650 -134 m 933 -134 q 836 -245 896 -189 q 728 -144 768 -193 q 833 -35 774 -102 q 933 -134 848 -51 m 814 -336 q 720 -427 749 -406 q 616 -336 660 -386 q 714 -236 650 -307 q 814 -336 752 -286 z "}}}
